<svg version="1.1" id="Layer_1" xmlns="http://www.w3.org/2000/svg" x="0" y="0" viewBox="0 0 128 128" xml:space="preserve"><style>.st0{fill:#5b5b5b}</style><path class="st0" d="M126.8 128H1.2c-.7 0-1.2-.5-1.2-1.2s.5-1.2 1.2-1.2h125.7c.7 0 1.2.5 1.2 1.2s-.6 1.2-1.3 1.2zM57.7 121H31.5c-4.1 0-7.4-3.3-7.4-7.4s3.3-7.4 7.4-7.4h26.2c4.1 0 7.4 3.3 7.4 7.4s-3.3 7.4-7.4 7.4zm-26.2-12.3c-2.7 0-4.9 2.2-4.9 4.9s2.2 4.9 4.9 4.9h26.2c2.7 0 4.9-2.2 4.9-4.9s-2.2-4.9-4.9-4.9H31.5zM30 89.2c-.7 0-1.2-.6-1.2-1.2V74.4c0-5.4 4.4-9.8 9.8-9.8h15.7c.7 0 1.2.6 1.2 1.2s-.6 1.2-1.2 1.2H38.6c-4 0-7.4 3.3-7.4 7.4V88c0 .7-.5 1.2-1.2 1.2z"/><path class="st0" d="M45.4 127.7H33.1c-.7 0-1.2-.6-1.2-1.2v-5.1c0-.7.6-1.2 1.2-1.2s1.2.6 1.2 1.2v3.9h9.8v-3.9c0-.7.6-1.2 1.2-1.2s1.2.6 1.2 1.2v5.1c.2.7-.4 1.2-1.1 1.2zM94.7 128H82.4c-.7 0-1.2-.6-1.2-1.2v-5.1c0-.7.6-1.2 1.2-1.2s1.2.6 1.2 1.2v3.9h9.8v-3.9c0-.7.6-1.2 1.2-1.2s1.2.6 1.2 1.2v5.1c.1.7-.4 1.2-1.1 1.2z"/><path class="st0" d="M96.2 121H70.1c-4.1 0-7.4-3.3-7.4-7.4s3.3-7.4 7.4-7.4h26.2c4.1 0 7.4 3.3 7.4 7.4s-3.4 7.4-7.5 7.4zm-26.1-12.3c-2.7 0-4.9 2.2-4.9 4.9s2.2 4.9 4.9 4.9h26.2c2.7 0 4.9-2.2 4.9-4.9s-2.2-4.9-4.9-4.9H70.1zM40.9 108.7h-8.1c-4.2 0-7.7-3.4-7.7-7.7v-6.7c0-4.1 3.3-7.4 7.4-7.4s7.4 3.3 7.4 7.4v10.9c0 .5.4.9 1 .9.7 0 1.2.6 1.2 1.2s-.5 1.4-1.2 1.4zm-8.3-19.2c-2.7 0-4.9 2.2-4.9 4.9v6.7c0 2.9 2.4 5.2 5.2 5.2h4.8c-.1-.3-.2-.7-.2-.9V94.5c0-2.8-2.2-5-4.9-5z"/><path class="st0" d="M95.1 108.7H87c-.7 0-1.2-.6-1.2-1.2s.6-1.2 1.2-1.2c.5 0 .9-.4.9-.9v-11c0-4.1 3.3-7.4 7.4-7.4s7.4 3.3 7.4 7.4v6.7c0 4.2-3.5 7.6-7.6 7.6zm-4.9-2.4H95c2.9 0 5.2-2.3 5.2-5.2v-6.7c0-2.7-2.2-4.9-4.9-4.9s-4.9 2.2-4.9 4.9v10.9c0 .3 0 .7-.2 1zM86.3 72.6l-.6-.6c-2.8-2.9-5.4-6-7.8-9.2-2.8-2.8-7.1-3.2-9.7-.8L65 64.9l-.6-1.8c-.6-1.6-.9-3.3-.9-5 0-8.7 7.3-15.8 16.2-15.8S96 49.4 96 58.2c0 6-3.4 11.4-8.9 14.1l-.8.3zM72.4 58c2.6 0 5.3 1.1 7.3 3.2l.1.2c2.1 2.9 4.5 5.6 7 8.4 4.2-2.4 6.8-6.8 6.8-11.5 0-7.4-6.2-13.4-13.8-13.4S66 50.9 66 58.2c0 .8.1 1.6.2 2.4l.3-.3c1.7-1.5 3.8-2.3 5.9-2.3zM58.1 50.7c-3.2 0-5.9-2.6-5.9-5.7s2.6-5.7 5.9-5.7S64 41.8 64 45c0 3.1-2.7 5.7-5.9 5.7zm0-9.1c-1.9 0-3.5 1.5-3.5 3.4s1.5 3.4 3.5 3.4 3.5-1.5 3.5-3.4-1.6-3.4-3.5-3.4z"/><path d="M97.6 91.9l-7.8 7.3c-3 2.8-8.1 2.4-11.4-.9-5.2-7-11.4-13.4-18.4-18.8-3.2-3.3-3.5-8.3-.4-11.2l7.8-7.3c3-2.8 8.1-2.4 11.4.9 5.2 7 11.4 13.4 18.4 18.8 3.3 3.4 3.5 8.4.4 11.2z" fill="#46f9d7"/><path class="st0" d="M84.9 102.2c-2.6 0-5.3-1.1-7.3-3.2l-.1-.2c-5.1-7-11.3-13.2-18.2-18.6l-.2-.1c-1.9-2-2.9-4.6-2.9-7.1.1-2.3 1-4.2 2.6-5.8l7.8-7.3c3.5-3.2 9.4-2.9 13.1 1l.1.2c5.1 7 11.3 13.2 18.2 18.6l.2.1c1.9 2 2.9 4.6 2.9 7.1-.1 2.3-.9 4.2-2.6 5.8l-7.8 7.3c-1.6 1.5-3.6 2.2-5.8 2.2zm-5.5-4.7c2.8 2.8 7.1 3.2 9.7.8l7.8-7.3c1.1-1 1.8-2.5 1.8-4 .1-1.9-.7-3.8-2.2-5.3-7-5.4-13.3-11.8-18.6-18.9-2.9-2.8-7.2-3.1-9.7-.8l-7.8 7.3c-1.1 1-1.8 2.5-1.8 4-.1 1.9.7 3.8 2.2 5.3 7 5.4 13.3 11.8 18.6 18.9zM88.2 58.4c-.7 0-1.2-.5-1.2-1.1-.3-5.9-6-5.8-6.2-5.7-.7.1-1.2-.5-1.2-1.2s.5-1.2 1.2-1.2c.1 0 8.3-.3 8.7 8-.2.5-.7 1.1-1.3 1.2 0-.1 0 0 0 0z"/><path class="st0" d="M97.6 83.1l-.4-.5c-.2-.4-.5-.6-.7-.9-3.2-2.4-6.2-5.1-9.2-8.1l-.4-.4v-.5c0-1.1.2-2.1.5-3.2l.2-.4.4-.2c1.8-1.3 3.4-3 4.3-5l.2-.4.4-.2c1.5-.7 3.2-1.1 4.8-1.1 5.9 0 10.6 4.6 10.6 10.4 0 5.5-4.4 10.1-10 10.3l-.7.2zm-8.3-10.9c2.8 2.7 5.7 5.3 8.7 7.6l.2.1c.2.2.4.4.6.7 4-.5 7.1-3.9 7.1-7.9 0-4.4-3.7-8-8.2-8-1.2 0-2.3.2-3.4.7-1.1 2.1-2.7 3.9-4.6 5.3-.2.5-.4 1-.4 1.5zM59 71l-.9-.4c-3.5-1.4-5.9-4.8-5.9-8.5 0-5.1 4.2-9.2 9.4-9.2 1.4 0 2.7.3 4 .9l.9.4-.2 1c-.2 1-.4 2-.4 2.9 0 1.4.2 2.9.7 4.2l.2.7-6.6 6.1c-.3.3-.6.7-.9 1l-.3.9zm2.7-15.7c-3.9 0-7 3.1-7 6.8 0 2.5 1.4 4.7 3.5 5.9l.6-.6 5.5-5.1c-.4-1.4-.6-2.8-.6-4.2 0-.8.1-1.6.2-2.4-.7-.2-1.5-.4-2.2-.4zM76.6 97c-.3 0-.6-.2-.9-.4-.4-.4-.4-1.2 0-1.7l8.1-7.9c.4-.4 1.2-.4 1.7 0s.4 1.2 0 1.7l-8.1 7.9c-.2.3-.5.4-.8.4zM72.6 91.8c-.3 0-.6-.2-.9-.4-.4-.4-.4-1.2 0-1.7l4-3.9c.4-.4 1.2-.4 1.7 0s.4 1.2 0 1.7l-4 3.9c-.2.3-.5.4-.8.4z"/><g><path class="st0" d="M75 74.2c-.3 0-.6-.2-.9-.4-.4-.4-.4-1.2 0-1.7l7.1-6.9c.4-.4 1.2-.4 1.7 0s.4 1.2 0 1.7l-7.1 6.9c-.2.4-.5.4-.8.4z"/></g><g><circle class="st0" cx="48.6" cy="113.7" r="2"/><circle class="st0" cx="40.7" cy="113.7" r="2"/><circle class="st0" cx="32.7" cy="113.7" r="2"/></g><g><circle class="st0" cx="36.7" cy="81.9" r="2"/></g><g><circle class="st0" cx="36.7" cy="74" r="2"/></g><g><circle class="st0" cx="44.6" cy="74" r="2"/></g><g><circle class="st0" cx="52.6" cy="74" r="2"/></g></svg>