<svg xmlns="http://www.w3.org/2000/svg" width="102" height="87"><path fill="#37FAD7" d="M66.65 40.063H56.516l-7.166 4.666-.083-4.666h-2.624c-2.75 0-5-2.25-5-5v-12c0-2.75 2.25-5 5-5H66.65c2.75 0 5 2.25 5 5v12.001c0 2.749-2.25 4.999-5 4.999"/><path fill="none" stroke="#666" stroke-width="2" stroke-linecap="round" stroke-linejoin="round" stroke-miterlimit="10" d="M66.65 40.063H56.516l-7.166 4.666-.083-4.666h-2.624c-2.75 0-5-2.25-5-5v-12c0-2.75 2.25-5 5-5H66.65c2.75 0 5 2.25 5 5v12.001c0 2.749-2.25 4.999-5 4.999zM47.067 26.895h19.158M47.067 31.231h19.158"/><path fill="none" stroke="#666" stroke-width="2" stroke-miterlimit="10" d="M45.179 61.073l3.536-3.536a3.009 3.009 0 014.243 0l4.243 4.244a3.008 3.008 0 010 4.242l-3.536 3.535M32.45 48.344l3.536-3.535a3.01 3.01 0 000-4.244l-4.244-4.242a3.008 3.008 0 00-4.242 0l-3.536 3.535"/><path fill="none" stroke="#666" stroke-width="2" stroke-miterlimit="10" d="M53.667 69.559l-.526.525c-2.652 2.65-10.251.118-20.063-9.693-9.987-9.986-12.405-17.238-9.637-20.008l.531-.531"/><path fill="none" stroke="#666" stroke-width="2" stroke-miterlimit="10" d="M45.183 61.063c-.833.834-4.826-2.09-7.741-5.004-2.833-2.834-5.814-6.887-4.981-7.72"/><g opacity=".2" fill="#434345"><path d="M76.95 60.709c.497 0 .899.402.899.9v10.242c0 .496-.402.896-.899.896s-.9-.4-.9-.896V61.609a.899.899 0 01.9-.9"/><path d="M82.971 66.73a.897.897 0 01-.9.896H71.827a.895.895 0 01-.897-.896c0-.498.4-.9.897-.9H82.07a.9.9 0 01.901.9"/></g><g opacity=".2" fill="#434345"><path d="M23.949 14.513a.9.9 0 010 1.273l-7.242 7.242a.901.901 0 01-1.273-1.273l7.242-7.242a.9.9 0 011.273 0"/><path d="M23.949 23.028a.898.898 0 01-1.272 0l-7.243-7.243a.897.897 0 010-1.272.898.898 0 011.272 0l7.243 7.243a.9.9 0 010 1.272"/></g><path fill="none" d="M15.169 14.249h85.661v58.502H15.169z"/><path fill="none" d="M88.594 43.348h12.236v12.235H88.594z"/><circle opacity=".2" fill="none" stroke="#434345" stroke-width="2" stroke-miterlimit="10" cx="94.712" cy="49.465" r="5.118"/></svg>