<svg version="1.1" id="Layer_1" xmlns="http://www.w3.org/2000/svg" x="0" y="0" viewBox="0 0 128 128" xml:space="preserve"><style>.st0{fill:#5b5b5b}.st1{fill:#46f9d7}</style><path class="st0" d="M126.81 128H1.19c-.66 0-1.19-.54-1.19-1.2 0-.66.53-1.19 1.19-1.19H126.8c.66 0 1.19.54 1.19 1.2.01.66-.52 1.19-1.18 1.19z"/><path class="st0" d="M66.43 50.31H18.1a6.867 6.867 0 00-6.85 6.85v63.99c.01 1.7.63 3.26 1.67 4.46A6.779 6.779 0 0018.1 128h48.33c1.36 0 2.63-.4 3.7-1.09h.01c.36-.24.69-.5 1-.81.17-.14.33-.31.47-.49.13-.13.23-.27.33-.41a3.412 3.412 0 01-1.64-1.86c-.21.38-.48.73-.8 1.03-.3.29-.64.53-1.01.72-.61.33-1.31.51-2.06.51H18.1c-1.94 0-3.59-1.24-4.2-2.97a4.28 4.28 0 01-.26-1.49V57.15c0-2.46 2-4.45 4.46-4.45h48.33c2.46 0 4.46 2 4.46 4.46v56.5h2.39v-56.5a6.867 6.867 0 00-6.85-6.85z"/><path class="st0" d="M73.28 65.3H11.25v-6.11h2.39v3.72h57.25v-4.22h2.39z"/><path class="st0" d="M24.06 58.32c0 .73-.59 1.32-1.32 1.32h-3.96c-.73 0-1.32-.59-1.32-1.32 0-.73.59-1.32 1.32-1.32h3.96c.73 0 1.32.59 1.32 1.32zM26.93 51.51h2.39v12.6h-2.39zM64 61.74c-2.02 0-3.67-1.64-3.67-3.67 0-2.02 1.64-3.67 3.67-3.67 2.02 0 3.67 1.64 3.67 3.67 0 2.03-1.64 3.67-3.67 3.67zm0-5c-.72 0-1.32.58-1.32 1.31 0 .72.58 1.32 1.31 1.32.72 0 1.32-.58 1.32-1.31v-.01c0-.72-.58-1.31-1.31-1.31z"/><circle class="st0" cx="39.51" cy="58.05" r="1.98"/><circle class="st0" cx="33.72" cy="58.05" r="1.98"/><path class="st0" d="M42.25 72.4c-10.27 0-18.82 7.38-20.62 17.13-.08.4-.14.8-.19 1.2s-.09.8-.11 1.2c.02-.01.04-.01.06-.01l2.33.01a16.819 16.819 0 01.35-2.4c1.76-8.42 9.24-14.75 18.2-14.74 5.13.01 9.77 2.09 13.13 5.46 3.37 3.36 5.45 8.01 5.46 13.14-.01 10.28-8.34 18.6-18.61 18.6-8.82-.01-16.21-6.15-18.1-14.39-.1-.39-.18-.79-.25-1.2-.06-.39-.11-.78-.15-1.18h-2.39c.02.4.07.79.13 1.18.05.4.12.81.21 1.2 1.94 9.58 10.41 16.78 20.57 16.78 11.58-.02 20.97-9.41 20.98-20.99v-.01c-.01-11.59-9.41-20.99-21-20.98z"/><path class="st0" d="M59.13 93.36c0-9.31-7.55-16.86-16.86-16.86-8 0-14.7 5.57-16.43 13.03-.09.4-.17.8-.24 1.2-.06.4-.11.8-.13 1.21h1.33c.4 0 .77.14 1.05.39.03-.44.08-.88.16-1.31.06-.41.15-.81.25-1.21 1.59-6.25 7.26-10.87 14.01-10.87 3.99 0 7.59 1.62 10.21 4.24 2.61 2.61 4.23 6.22 4.24 10.21v.01c0 .43-.02.85-.06 1.27-.64 7.38-6.84 13.17-14.39 13.17-6.64 0-12.22-4.46-13.92-10.55-.12-.39-.21-.79-.29-1.2-.08-.42-.14-.85-.18-1.28-.28.25-.66.41-1.08.41h-1.29c.03.4.09.79.16 1.18.08.41.16.8.27 1.2 1.18 4.58 4.24 8.39 8.3 10.59 0 0 .01-.01.01 0 .58.32 1.17.6 1.79.84.72.3 1.47.54 2.24.72.26.06.52.12.78.17.49.09.98.17 1.48.22.57.06 1.15.09 1.73.09.35 0 .7-.01 1.04-.03.42-.03.83-.07 1.24-.13.04 0 .08 0 .11-.01.26-.03.52-.08.77-.13.23-.04.46-.09.68-.14.16-.04.32-.07.47-.12.24-.06.47-.13.7-.2.21-.07.43-.14.63-.21 1.61-.57 3.11-1.38 4.45-2.38.4-.31.78-.62 1.15-.96.19-.16.37-.34.55-.51.05-.04.09-.08.13-.12.06-.06.12-.12.18-.19.06-.06.12-.13.18-.19l.06-.06c.16-.18.32-.36.48-.55a15.502 15.502 0 001.55-2.16c.16-.24.3-.49.44-.75.2-.36.38-.74.55-1.12.11-.24.21-.48.31-.72.01-.02.02-.05.03-.07.14-.36.26-.72.37-1.1.5-1.58.79-3.27.79-5.02z"/><path class="st0" d="M31.88 88.99c-.2 0-.4-.05-.57-.14a1.2 1.2 0 01-.48-1.62c1.76-3.25 4.81-5.61 8.41-6.47.65-.13 1.28.3 1.4.94.12.61-.25 1.21-.85 1.38-2.93.71-5.42 2.63-6.86 5.29a1.2 1.2 0 01-1.05.62z"/><path class="st1" d="M57.8 95.07c-.79 7.49-6.83 13.36-14.34 13.93-7.59.58-14.32-4.35-16.26-11.42-.1-.39-.2-.79-.27-1.19-.08-.38-.14-.77-.18-1.17h.05c.42 0 .8-.16 1.08-.41.33-.29.54-.71.56-1.18.34-.09.72-.19 1.15-.27.37-.08.78-.15 1.22-.2 2.73-.38 6.67-.39 11.46 1.08 6.99 2.15 12.16 1.11 14.39.43.17-.05.32-.09.45-.14a.78.78 0 01.22-.03c.28.03.49.28.47.57z"/><path class="st0" d="M58.9 94.44a1.709 1.709 0 00-2.18-1.04c-1.87.64-6.97 1.89-14.1-.31-5.05-1.55-9.22-1.51-12.1-1.09-.45.06-.87.14-1.26.22-.46.09-.87.19-1.23.29.26.28.41.66.41 1.07v.05c-.02.47-.23.89-.56 1.18-.28.25-.66.41-1.08.41h-1.25c.04.4.1.8.18 1.18.07.41.15.81.26 1.2 1.18 4.59 4.23 8.38 8.25 10.59 0 0 .01-.01.01 0 .58.31 1.17.59 1.79.84.73.29 1.47.53 2.24.72.26.06.52.12.78.17.49.09.98.17 1.48.22.57.06 1.15.09 1.73.09.35 0 .7-.01 1.04-.03.42-.03.83-.07 1.24-.13.04 0 .08 0 .11-.01.26-.03.52-.08.77-.13.23-.04.46-.09.68-.14.16-.04.32-.07.47-.12.24-.06.47-.13.7-.2.21-.07.43-.14.63-.21 1.61-.57 3.11-1.38 4.45-2.38.4-.31.78-.62 1.15-.96.19-.16.37-.34.55-.51l.31-.31c.06-.06.12-.13.18-.19l.06-.06c.16-.18.32-.36.48-.55a15.502 15.502 0 001.55-2.16c.16-.24.3-.49.44-.75.2-.36.38-.74.55-1.12.11-.24.21-.48.31-.72.01-.02.02-.05.03-.07.51-1.34.86-2.76 1.02-4.26.03-.26 0-.53-.09-.78zm-29.5.18c.4-.09.85-.18 1.35-.25 2.59-.4 6.42-.46 11.16.98 6.76 2.07 11.93 1.34 14.55.6a14.444 14.444 0 01-12.56 11.78c-7.15.81-13.67-3.74-15.53-10.45h-.01a14.998 14.998 0 01-.44-2.25c.38-.13.87-.27 1.48-.41z"/><path class="st0" d="M30.81 93.16c-.04-.41-.14-.8-.29-1.16-.42-1-1.24-1.8-2.26-2.19-.45-.18-.94-.28-1.46-.28h-5.41a4.03 4.03 0 00-4.03 4.03c0 2.23 1.8 4.04 4.03 4.04h5.41c.14 0 .27-.01.4-.02.41-.04.79-.14 1.15-.29l.01-.01h.01c1.21-.51 2.11-1.6 2.38-2.91.05-.26.08-.53.08-.81 0-.14-.01-.27-.02-.4zm-2.93 1.65c-.28.25-.66.41-1.08.41h-5.44c-.9-.02-1.62-.75-1.62-1.65 0-.89.71-1.62 1.59-1.64.02-.01.04-.01.06-.01l2.33.01 1.75.01h1.33c.4 0 .77.14 1.05.39.07.04.13.11.18.18.26.28.41.66.41 1.07v.05c-.02.47-.23.89-.56 1.18zM70.1 122.63H12.45v-2.39h57.1z"/><path class="st0" d="M120.26 108.48l-.01-.01a2.397 2.397 0 00-2.21-1.42H67.1c-.18 0-.36.02-.53.06-.77.18-1.36.68-1.66 1.35-.01 0-.01.01-.01.01-.23.47-.31 1.02-.18 1.57l.51 2.2v.01l.31 1.33 1.56 6.66.55 2.39.2.85c.13.58.35 1.12.64 1.61.1.18.21.35.34.52.36.5.8.94 1.3 1.3h.01c.96.69 2.13 1.09 3.38 1.09h38.09a5.843 5.843 0 005.69-4.54l2.29-9.87.31-1.34.51-2.21a2.351 2.351 0 00-.15-1.56zm-3.17 5.18l-2.15 9.26a3.436 3.436 0 01-3.37 2.67H73.54c-.57 0-1.12-.14-1.6-.39a3.412 3.412 0 01-1.64-1.86c-.05-.13-.1-.28-.13-.42l-.07-.29-.55-2.39-1.53-6.58-.28-1.2-.27-1.18-.42-1.79-1.16.28 1.21-.33h50.91l.05.05-.42 1.79-.27 1.18-.28 1.2z"/><path class="st1" d="M92.88 108.06H66.12a2.15 2.15 0 00-2.11 2.2c-.02 1.19.92 2.17 2.11 2.2h52.91a2.15 2.15 0 002.11-2.2c.02-1.19-.92-2.17-2.11-2.2H92.88z"/><path class="st0" d="M119.03 106.86H66.12a3.415 3.415 0 00-3.25 3.24 3.414 3.414 0 003.25 3.56h52.91c.19-.01.38-.03.56-.07a3.411 3.411 0 002.68-3.17 3.408 3.408 0 00-3.24-3.56zm0 4.42H66.12c-.5-.05-.88-.44-.93-.93-.03-.47.26-.89.69-1.03.07-.03.16-.05.24-.06h52.91c.07.01.14.02.2.04.39.11.69.46.72.88.05.56-.37 1.05-.92 1.1z"/><path class="st0" d="M113.77 109.25H80.4a4.314 4.314 0 010-8.62h33.37a4.314 4.314 0 010 8.62zm-33.34-6.22a1.93 1.93 0 00-1.8 2.04c.06.97.83 1.74 1.8 1.8h33.34a1.93 1.93 0 001.8-2.04 1.92 1.92 0 00-1.8-1.8H80.43z"/><path class="st0" d="M106.5 103.03H80.44a3.796 3.796 0 01-3.63-3.97 3.795 3.795 0 013.63-3.63h26.06c2.1-.09 3.88 1.53 3.97 3.63.09 2.1-1.53 3.88-3.63 3.97h-.34zm-26.06-5.21c-.78.06-1.37.73-1.31 1.51.05.7.61 1.26 1.31 1.31h26.06c.78.06 1.46-.53 1.51-1.31.06-.78-.53-1.46-1.31-1.51H80.44zM78.18 117.93v3.96c0 .72-.59 1.31-1.32 1.31-.73 0-1.32-.59-1.32-1.31v-3.96c0-.73.59-1.32 1.32-1.32.73 0 1.32.59 1.32 1.32zM98.12 117.93v3.96c0 .72-.59 1.31-1.32 1.31-.73 0-1.32-.59-1.32-1.31v-3.96c0-.73.59-1.32 1.32-1.32.73 0 1.31.59 1.32 1.32zM88.04 117.93v3.96a1.314 1.314 0 01-2.63 0v-3.96c0-.73.59-1.32 1.32-1.32.72 0 1.31.59 1.31 1.32zM108.58 117.93v3.96c0 .72-.59 1.31-1.32 1.31s-1.32-.59-1.32-1.31v-3.96c.01-.73.59-1.32 1.32-1.32s1.32.59 1.32 1.32z"/></svg>