<svg xmlns="http://www.w3.org/2000/svg" width="131" height="110"><path fill="#434345" d="M105.053 91.289H19.989a.945.945 0 110-1.889h85.063a.945.945 0 01.001 1.889"/><path fill="#FFF" d="M92.572 37.277H29.099a1 1 0 00-1 1v51.061a1 1 0 001 1h63.473a1 1 0 001-1V38.277a1 1 0 00-1-1"/><path fill="none" stroke="#434345" stroke-width="2" stroke-miterlimit="10" d="M92.572 37.277H29.099a1 1 0 00-1 1v51.061a1 1 0 001 1h63.473a1 1 0 001-1V38.277a1 1 0 00-1-1z"/><path fill="#434345" d="M39.104 64.03c0 .623-.507 1.131-1.13 1.131s-1.131-.508-1.131-1.131a1.131 1.131 0 012.261 0M47.009 64.03c0 .623-.508 1.131-1.13 1.131a1.13 1.13 0 111.13-1.131M54.907 64.03a1.127 1.127 0 11-2.254 0 1.127 1.127 0 112.254 0M62.812 64.03c0 .623-.508 1.131-1.13 1.131-.623 0-1.131-.508-1.131-1.131a1.131 1.131 0 012.261 0M70.709 64.03a1.127 1.127 0 11-2.254 0 1.127 1.127 0 112.254 0M78.615 64.03c0 .623-.508 1.131-1.131 1.131s-1.131-.508-1.131-1.131a1.131 1.131 0 012.262 0M86.52 64.03c0 .623-.508 1.131-1.129 1.131a1.131 1.131 0 111.129-1.131M39.104 71.929c0 .629-.507 1.131-1.13 1.131s-1.131-.502-1.131-1.131c0-.621.508-1.123 1.131-1.123s1.13.502 1.13 1.123M47.009 71.929c0 .629-.508 1.131-1.13 1.131a1.127 1.127 0 110-2.254c.621 0 1.13.502 1.13 1.123M54.907 71.929c0 .629-.501 1.131-1.13 1.131a1.123 1.123 0 01-1.124-1.131c0-.621.501-1.123 1.124-1.123.629 0 1.13.502 1.13 1.123M62.812 71.929c0 .629-.508 1.131-1.13 1.131a1.128 1.128 0 110-2.254c.622 0 1.13.502 1.13 1.123M70.709 71.929c0 .629-.501 1.131-1.123 1.131-.63 0-1.131-.502-1.131-1.131 0-.621.501-1.123 1.131-1.123.622 0 1.123.502 1.123 1.123M78.615 71.929c0 .629-.508 1.131-1.131 1.131s-1.131-.502-1.131-1.131c0-.621.508-1.123 1.131-1.123s1.131.502 1.131 1.123M86.52 71.929c0 .629-.508 1.131-1.129 1.131a1.127 1.127 0 110-2.254c.621 0 1.129.502 1.129 1.123"/><path fill="none" stroke="#434345" stroke-width="2" stroke-miterlimit="10" d="M28.099 46.187h65.473M58.51 25.214L40.515 37.277h41.633L64.155 25.214a5.068 5.068 0 00-5.645 0z"/><path fill="#64FFDA" d="M64.187 26.145a3.35 3.35 0 11-6.703 0 3.351 3.351 0 016.703 0"/><circle fill="none" stroke="#434345" stroke-width="2" stroke-miterlimit="10" cx="60.835" cy="26.145" r="3.352"/><path fill="#FFF" d="M109.833 38.408c0 10.376-8.411 18.787-18.787 18.787s-18.788-8.411-18.788-18.787S80.67 19.62 91.046 19.62s18.787 8.412 18.787 18.788"/><path fill="#64FFDA" d="M110.957 38.969h-19.35V19.621c10.686 0 19.35 8.662 19.35 19.348z"/><path fill="#434345" d="M90.997 36.49a2.568 2.568 0 00-1.927 2.478 2.57 2.57 0 002.568 2.569 2.568 2.568 0 002.479-1.926h4.589a.643.643 0 100-1.286h-4.589a2.568 2.568 0 00-1.835-1.835v-6.514a.645.645 0 00-1.289 0l.004 6.514zm.642 3.764a1.284 1.284 0 110-2.569 1.285 1.285 0 110 2.569M91.607 26.12a.643.643 0 00.644-.642v-.64a.642.642 0 00-.644-.643.643.643 0 00-.645.643v.64a.644.644 0 00.645.642M91.607 51.815a.646.646 0 00-.645.643v.645a.645.645 0 001.289 0v-.645a.647.647 0 00-.644-.643M105.741 38.325h-.644a.645.645 0 00-.645.642c0 .355.288.644.645.644h.644a.641.641 0 00.639-.644.641.641 0 00-.639-.642M78.117 38.325h-.643a.643.643 0 000 1.286h.643a.644.644 0 100-1.286M101.145 28.521l-.453.454a.642.642 0 10.908.91l.455-.455a.644.644 0 00-.91-.909M81.615 48.055l-.455.45a.644.644 0 00.908.91l.457-.455a.64.64 0 000-.905.64.64 0 00-.91 0M101.6 48.055a.635.635 0 00-.91 0 .64.64 0 000 .905l.457.455a.644.644 0 00.908-.91l-.455-.45zM82.068 28.521a.643.643 0 00-.909.909l.456.455a.644.644 0 00.908-.91l-.455-.454z"/><circle fill="none" stroke="#434345" stroke-width="2" stroke-miterlimit="10" cx="91.607" cy="38.969" r="19.349"/><path fill="#FFF" d="M93.091 38.969a1.484 1.484 0 11-2.963 0 1.484 1.484 0 012.963 0"/><g opacity=".2" fill="#434345"><path d="M34.07 20.836a.9.9 0 01-.9.9H22.928a.9.9 0 010-1.8H33.17a.9.9 0 01.9.9"/><path d="M28.049 26.858a.9.9 0 01-.9-.9V15.714a.9.9 0 011.8 0v10.244a.9.9 0 01-.9.9"/></g><circle opacity=".2" fill="none" stroke="#434345" stroke-width="2" stroke-miterlimit="10" cx="41.762" cy="7.118" r="5.118"/></svg>