<svg version="1.1" id="Layer_1" xmlns="http://www.w3.org/2000/svg" x="0" y="0" viewBox="0 0 128 128" xml:space="preserve"><style>.st0{fill:#5b5b5b}</style><path class="st0" d="M126.81 128H1.19c-.66 0-1.19-.53-1.19-1.19s.53-1.19 1.19-1.19H126.8c.66 0 1.19.53 1.19 1.19s-.52 1.19-1.18 1.19z"/><path class="st0" d="M81.16 66.24h-1.2v1.54l1.53-1.49c-.1-.03-.21-.05-.33-.05zm-1.2 24.8v1.5c0-.31.12-.63.37-.86l.08-.08.33-.32h-.58c-.06-.08-.13-.16-.2-.24zm1.2-33.65h-5.97c-.01-.01-.01 0-.02 0h-6.72c.03.22.08.45.12.67.05.22.1.43.16.64.03.14.07.27.11.41l-.72.67h11.84v65.83H42.87V59.78h16.45a5.14 5.14 0 01-.07-.88c.01-.52.07-1.03.2-1.51H41.67c-.66 0-1.19.54-1.19 1.2v68.22c0 .62.47 1.12 1.07 1.18.04.01.08.01.12.01h39.49c.04 0 .08 0 .12-.01.6-.06 1.07-.56 1.07-1.18V58.59c0-.66-.53-1.2-1.19-1.2z"/><path class="st0" d="M88.75 63.5v62.1H34.5V51.04h36.72v-.01c.26-.83.6-1.62 1.01-2.38H33.31c-.66 0-1.2.54-1.2 1.2v76.95c0 .66.54 1.19 1.2 1.19h56.64c.66 0 1.19-.53 1.19-1.19V66.17c-.82-.87-1.62-1.76-2.39-2.67zm1.2-14.85H87.9c1.26.47 2.62 1.43 3.24 3.38v-2.18c0-.66-.53-1.2-1.19-1.2z"/><path class="st0" d="M77.33 43.43c-.1-.4-.27-.78-.47-1.12-.2-.35-.44-.67-.72-.95a4.849 4.849 0 00-3.48-1.47H50.57c-2.68.01-4.85 2.2-4.84 4.88v5.07c0 .66.53 1.19 1.19 1.19h24.3c.26-.83.6-1.62 1.01-2.38l.01-.01H48.12v-3.88a2.467 2.467 0 012.45-2.48h22.09c.54 0 1.04.18 1.45.47.32.24.58.54.76.9.17.33.26.71.26 1.1v.27c.67-.6 1.41-1.14 2.2-1.59z"/><path class="st0" d="M67.68 42.27H55.56c-.66 0-1.19-.53-1.19-1.19V36c-.01-2.68 2.16-4.86 4.84-4.88h4.8c2.68 0 4.86 2.18 4.86 4.86v5.09c.01.66-.53 1.2-1.19 1.2zm-10.92-2.39h9.73v-3.89c0-1.36-1.11-2.47-2.47-2.47h-4.8A2.482 2.482 0 0056.76 36v3.88zM81.16 68.63H41.67c-.66 0-1.19-.53-1.19-1.19s.53-1.19 1.19-1.19h39.49c.66 0 1.19.53 1.19 1.19s-.53 1.19-1.19 1.19zM81.16 76.98H41.67c-.66 0-1.19-.53-1.19-1.19s.53-1.19 1.19-1.19h39.49c.66 0 1.19.53 1.19 1.19s-.53 1.19-1.19 1.19zM81.16 85.32H41.67c-.66 0-1.19-.53-1.19-1.19 0-.66.53-1.19 1.19-1.19h39.49c.66 0 1.19.53 1.19 1.19 0 .66-.53 1.19-1.19 1.19z"/><path class="st0" d="M51.69 128c-.66 0-1.19-.53-1.19-1.19V58.65c0-.66.53-1.19 1.19-1.19s1.19.53 1.19 1.19v68.15c.01.67-.53 1.2-1.19 1.2zM62.87 64.7v62.11c0 .62-.47 1.12-1.08 1.18-.04.01-.08.01-.12.01-.04 0-.08 0-.12-.01-.6-.06-1.07-.56-1.07-1.18V62.74c.6.84 1.38 1.55 2.31 2.05.02-.03.05-.06.08-.09zM71.64 128c-.66 0-1.19-.53-1.19-1.19V58.65c0-.66.53-1.19 1.19-1.19s1.19.53 1.19 1.19v68.15c.01.67-.53 1.2-1.19 1.2z"/><path class="st0" d="M81.16 93.67H41.67c-.66 0-1.19-.53-1.19-1.19s.53-1.19 1.19-1.19h39.49c.66 0 1.19.53 1.19 1.19s-.53 1.19-1.19 1.19zM81.16 102.01H41.67c-.66 0-1.19-.53-1.19-1.19s.53-1.19 1.19-1.19h39.49c.66 0 1.19.53 1.19 1.19s-.53 1.19-1.19 1.19zM81.16 110.35H41.67c-.66 0-1.19-.53-1.19-1.19s.53-1.19 1.19-1.19h39.49c.66 0 1.19.53 1.19 1.19s-.53 1.19-1.19 1.19zM81.16 118.7H41.67c-.66 0-1.19-.53-1.19-1.19s.53-1.19 1.19-1.19h39.49c.66 0 1.19.53 1.19 1.19s-.53 1.19-1.19 1.19zM61.92 33.51c-.66 0-1.19-.53-1.19-1.19V22.07c0-.66.53-1.19 1.19-1.19s1.19.53 1.19 1.19v10.25c.01.66-.53 1.19-1.19 1.19zM86 60.2c-.56-.71-1.11-1.43-1.66-2.16l-.11-.13c-.17-.17-.35-.34-.53-.5-.26-.24-.53-.46-.81-.65-.15-.12-.31-.23-.47-.33-.21-.14-.43-.27-.65-.39-.15-.08-.3-.16-.45-.23-.15-.08-.3-.15-.45-.21-.13-.06-.27-.11-.4-.16a.442.442 0 00-.16-.06c-.15-.06-.31-.12-.47-.16-.22-.07-.44-.13-.66-.18-.1-.03-.2-.05-.31-.07-.06-.01-.12-.03-.19-.04a.875.875 0 00-.16-.02c-.15-.03-.3-.05-.46-.07-.19-.02-.38-.04-.57-.05s-.37-.02-.56-.02c-2.13 0-4.18.72-5.76 2.18l-.32.3v-.01c-.01-.02-.01-.05-.01-.07-.04-.19-.07-.37-.09-.56-.03-.19-.06-.38-.07-.57-.02-.19-.04-.38-.04-.57s-.01-.38-.01-.57c0-1.34.2-2.64.59-3.86v-.01h-1.25v.01a14.055 14.055 0 00-.3 6.35c.02.13.05.26.07.39l.09.41c.07.26.14.51.21.76l.18.51v.01h-.01v.01c0 .01.01.02.01.03l.23-.22.74-.71.79-.75c.08-.08.17-.15.25-.21.09-.09.18-.16.28-.23.14-.11.29-.21.45-.31.06-.04.13-.08.2-.12.16-.1.32-.18.48-.26a.3.3 0 01.08-.04c.16-.07.32-.14.48-.2.03-.01.05-.02.08-.03.12-.05.24-.09.37-.12.02-.02.04-.02.07-.02.1-.04.21-.07.32-.09.15-.05.31-.08.47-.1.1-.02.2-.04.3-.05.01-.01.03-.01.04-.01.08-.02.17-.03.25-.03.1-.02.2-.03.3-.03h.06c.01-.01.02-.01.03 0 .26-.01.53-.02.79-.01.02 0 .04.01.06.01.09 0 .18 0 .27.01.04 0 .09.01.13.01.13.01.26.03.39.05.1.01.19.03.29.05.1.02.2.04.29.06.09.01.18.03.27.06.08.02.17.04.26.07.21.05.42.12.63.2.08.03.16.06.25.09.21.08.42.17.63.27.67.33 1.32.75 1.93 1.25a10.347 10.347 0 01.7.65l.9 1.19c.3.4.61.79.92 1.18l.7.88c0-.01.01-.01.01-.01.09-.07.18-.13.28-.17.06-.03.13-.05.2-.06.15-.04.32-.05.48-.02l.21.06c.07.02.14.05.2.09.05.03.11.06.15.11.01 0 .02 0 .02.01.01 0 .01 0 .01.01.03.02.05.04.07.06A89.74 89.74 0 0186 60.2zm-1.59-21.07c-3.01 0-5.85.81-8.27 2.23-.71.41-1.39.88-2.03 1.39-1.95 1.58-3.52 3.59-4.53 5.89 0 0-.01 0-.01.01a16.422 16.422 0 00-.84 2.38v.01c-.02.07-.04.14-.05.21-.14.58-.25 1.18-.33 1.78v.02c-.07.57-.1 1.13-.1 1.69 0 .06-.01.11-.01.16 0 .21 0 .42.01.64.01.21.03.42.04.63v.01a.03.03 0 000 .04c.01.19.04.38.07.58.03.2.06.4.09.59.03.22.08.45.12.67.05.22.1.43.16.64.03.14.07.27.11.41v.02c.07.22.14.44.21.65.01.04.03.08.04.12l.16.46v.01l.43 1.22v.01l.02.06.75-.72 1.22-1.16.83-.8.29-.27c.02-.01.03-.03.05-.04 0-.01.01-.02.02-.02.08-.08.17-.15.26-.22.01-.01.02-.02.03-.02.05-.05.1-.09.16-.12.24-.19.51-.35.78-.48l.18-.09c.29-.14.59-.25.9-.33.01 0 .01-.01.02 0 .07-.02.14-.04.21-.05.13-.04.26-.07.39-.09.09-.02.18-.03.27-.04.06-.01.12-.02.19-.02.08-.01.16-.02.25-.02.15-.01.3-.02.46-.02.23 0 .47.01.7.04.36.04.72.1 1.08.2.03 0 .06.01.09.03a5.951 5.951 0 01.87.28c.09.03.17.07.26.11.02 0 .03.01.05.02.18.08.36.17.53.26.23.12.45.26.67.41.23.14.44.3.65.48.17.14.33.28.49.44.04.03.08.07.12.11.3.4.6.8.91 1.2.3.4.61.79.92 1.18.25.31.49.62.74.92.06.09.13.17.21.26.22.27.44.53.66.79.23.27.45.53.68.79.7.83 1.42 1.64 2.16 2.44.49.54.99 1.07 1.5 1.6l.6.62.29-.14.38-.18.11-.05c.11-.05.22-.1.32-.17.28-.13.55-.28.82-.43.09-.06.18-.11.27-.17.38-.23.75-.48 1.11-.75.24-.16.47-.34.69-.55.23-.19.45-.38.67-.58.43-.4.83-.82 1.22-1.26.15-.18.3-.35.44-.54.07-.07.13-.15.18-.23.1-.13.2-.25.29-.39.12-.16.23-.32.33-.48.25-.37.48-.75.69-1.14.29-.53.55-1.08.78-1.64a15.793 15.793 0 001.15-5.73c0-8.7-7.26-15.77-16.18-15.77zm11.9 22.44c-.15.25-.3.49-.46.72-.22.32-.45.63-.71.93-.09.13-.2.25-.3.37l-.48.51c-.19.21-.4.4-.61.58-.2.19-.42.37-.64.54-.22.19-.44.35-.67.5l-.33.23v.01c-.24.16-.49.31-.75.45-.07-.08-.15-.16-.22-.24-.82-.87-1.62-1.76-2.39-2.67-.37-.41-.72-.82-1.07-1.24-.04-.06-.09-.12-.15-.18a89.74 89.74 0 01-3.19-4.04l-.11-.13c-.17-.17-.35-.34-.53-.5-.26-.24-.53-.46-.81-.65-.15-.12-.31-.23-.47-.33-.21-.14-.43-.27-.65-.39-.15-.08-.3-.16-.45-.23-.15-.08-.3-.15-.45-.21-.13-.06-.27-.11-.4-.16a.442.442 0 00-.16-.06c-.15-.06-.31-.12-.47-.16-.22-.07-.44-.13-.66-.18-.1-.03-.2-.05-.31-.07-.06-.01-.12-.03-.19-.04a.875.875 0 00-.16-.02c-.15-.03-.3-.05-.46-.07-.19-.02-.38-.04-.57-.05s-.37-.02-.56-.02c-2.13 0-4.18.72-5.76 2.18l-.32.3v-.01c-.01-.02-.01-.05-.01-.07-.04-.19-.07-.37-.09-.56-.03-.19-.06-.38-.07-.57-.02-.19-.04-.38-.04-.57s-.01-.38-.01-.57c0-1.34.2-2.64.59-3.86v-.01c.26-.83.6-1.62 1.01-2.38l.01-.01a13.3 13.3 0 012.89-3.62c.67-.6 1.41-1.14 2.2-1.59 2.07-1.21 4.49-1.91 7.08-1.91 7.6 0 13.79 6 13.79 13.37-.02 2.39-.7 4.69-1.89 6.68zM77.2 26c-3.23 0-5.86 2.57-5.86 5.74 0 3.16 2.63 5.74 5.86 5.74 3.23 0 5.87-2.58 5.87-5.74 0-3.17-2.64-5.74-5.87-5.74zm0 9.09c-1.92 0-3.48-1.5-3.48-3.35s1.56-3.35 3.48-3.35 3.48 1.5 3.48 3.35-1.56 3.35-3.48 3.35z"/><path d="M102.22 88.62l-7.8 7.24c-3.04 2.82-8.14 2.41-11.4-.92A95.328 95.328 0 0064.6 76.15c-3.26-3.32-3.44-8.31-.4-11.12l7.78-7.21c3.04-2.82 8.14-2.41 11.4.92a95.277 95.277 0 0018.42 18.78c3.27 3.32 3.46 8.31.42 11.1z" fill="#46f9d7"/><path class="st0" d="M101.01 78.41c-3.21-2.48-6.29-5.2-9.16-8.06L91.5 70v-.5c0-.17 0-.33.02-.49 0-.21.01-.42.04-.62v-.01c.02-.27.06-.53.12-.79-.18.1-.36.19-.54.28-.01 0-.01.01-.02.01-.81-.84-1.6-1.69-2.37-2.56-.44-.49-.88-.99-1.3-1.49-.53-.61-1.04-1.22-1.54-1.84-.24-.29-.47-.58-.71-.87-.31-.39-.62-.78-.92-1.18l-.9-1.19c-.11-.11-.23-.23-.34-.33-.12-.11-.24-.22-.36-.32-.61-.5-1.26-.92-1.93-1.25-.21-.1-.42-.19-.63-.27-.09-.03-.17-.06-.25-.09-.21-.08-.42-.15-.63-.2-.09-.03-.18-.05-.26-.07a1.31 1.31 0 00-.27-.06c-.09-.02-.19-.04-.29-.06-.1-.02-.19-.04-.29-.05-.13-.02-.26-.04-.39-.05-.04 0-.09-.01-.13-.01-.09-.01-.18-.01-.27-.01-.02 0-.04-.01-.06-.01-.26-.01-.53 0-.79.01-.01-.01-.02-.01-.03 0h-.06c-.1 0-.2.01-.3.03-.08 0-.17.01-.25.03-.01 0-.03 0-.04.01-.1.01-.2.03-.3.05-.16.02-.32.05-.47.1-.11.02-.22.05-.32.09-.03 0-.05 0-.07.02-.13.03-.25.07-.37.12-.03.01-.05.02-.08.03-.16.06-.32.13-.48.2a.3.3 0 00-.08.04c-.16.08-.32.16-.48.26-.07.04-.14.08-.2.12-.16.1-.31.2-.45.31-.1.07-.19.14-.28.23-.08.06-.17.13-.25.21l-.79.74v.01c.05.17.1.33.16.49l.25.71.01.02.02-.02.87-.8.29-.27c.02-.01.03-.03.05-.04 0-.01.01-.02.02-.02.08-.08.17-.15.26-.22.01-.01.02-.02.03-.02.05-.05.1-.09.16-.12.24-.19.51-.35.78-.48l.18-.09c.29-.14.59-.25.9-.33.01 0 .01-.01.02 0 .07-.03.14-.05.21-.05.13-.04.26-.07.39-.09.09-.02.18-.03.27-.04.06-.01.12-.02.19-.02.08-.01.16-.02.25-.02.15-.01.3-.02.46-.02.23 0 .47.01.7.04.36.04.72.1 1.08.2.03 0 .06.01.09.03.14.02.27.06.4.11.16.05.31.1.47.17.09.03.17.07.26.11.02 0 .03.01.05.02.18.08.35.16.53.26.23.12.45.26.67.41.23.14.44.3.65.48.17.14.33.28.49.44.04.03.08.07.12.11.3.4.6.8.91 1.2.3.4.61.79.92 1.18.25.31.49.62.74.92.06.09.13.17.21.26.22.27.44.53.66.79.21.27.44.54.67.8.7.83 1.43 1.65 2.17 2.46.77.85 1.57 1.7 2.39 2.52a97.73 97.73 0 009.86 8.77c.09.09.18.18.26.27-.08-.1-.16-.2-.25-.29zM79.96 89.18v1.86c.07.08.14.16.2.24h.58l.53-.52c-.42-.53-.86-1.06-1.31-1.58zm-7.12-7.54c-.78-.74-1.58-1.47-2.39-2.19a85.79 85.79 0 00-2.9-2.47c-.71-.58-1.42-1.16-2.15-1.72-.21-.21-.4-.44-.57-.67-1.06-1.36-1.63-3-1.6-4.61.01-.46.07-.92.19-1.35h-.55v5.07c.15.31.31.6.49.89.35.55.76 1.08 1.24 1.57.35.27.7.55 1.05.82.08.07.17.13.25.2.34.27.68.55 1.01.82l.75.63c.26.21.52.43.78.66.05.04.1.08.15.13.55.47 1.1.95 1.63 1.44.08.06.15.13.23.2.68.62 1.34 1.24 2 1.87h1.72c-.44-.44-.89-.87-1.33-1.29zm28.17-3.23c-3.21-2.48-6.29-5.2-9.16-8.06L91.5 70v-.5c0-.17 0-.33.02-.49 0-.21.01-.42.04-.62v-.01c.02-.27.06-.53.12-.79-.18.1-.36.19-.54.28-.01 0-.01.01-.02.01-.81-.84-1.6-1.69-2.37-2.56-.44-.49-.88-.99-1.3-1.49-.53-.61-1.04-1.22-1.54-1.84-.24-.29-.47-.58-.71-.87-.31-.39-.62-.78-.92-1.18l-.9-1.19c-.11-.11-.23-.23-.34-.33-.12-.11-.24-.22-.36-.32-.61-.5-1.26-.92-1.93-1.25-.21-.1-.42-.19-.63-.27-.09-.03-.17-.06-.25-.09-.21-.08-.42-.15-.63-.2-.09-.03-.18-.05-.26-.07a1.31 1.31 0 00-.27-.06c-.09-.02-.19-.04-.29-.06-.1-.02-.19-.04-.29-.05-.13-.02-.26-.04-.39-.05-.04 0-.09-.01-.13-.01-.09-.01-.18-.01-.27-.01-.02 0-.04-.01-.06-.01-.26-.01-.53 0-.79.01-.01-.01-.02-.01-.03 0h-.06c-.1 0-.2.01-.3.03-.08 0-.17.01-.25.03-.01 0-.03 0-.04.01-.1.01-.2.03-.3.05-.16.02-.32.05-.47.1-.11.02-.22.05-.32.09-.03 0-.05 0-.07.02-.13.03-.25.07-.37.12-.03.01-.05.02-.08.03-.16.06-.32.13-.48.2a.3.3 0 00-.08.04c-.16.08-.32.16-.48.26-.07.04-.14.08-.2.12-.16.1-.31.2-.45.31-.1.07-.19.14-.28.23-.08.06-.17.13-.25.21l-.79.74v.01c.05.17.1.33.16.49l.25.71.01.02.02-.02.87-.8.29-.27c.02-.01.03-.03.05-.04 0-.01.01-.02.02-.02.08-.08.17-.15.26-.22.01-.01.02-.02.03-.02.05-.05.1-.09.16-.12.24-.19.51-.35.78-.48l.18-.09c.29-.14.59-.25.9-.33.01 0 .01-.01.02 0 .07-.03.14-.05.21-.05.13-.04.26-.07.39-.09.09-.02.18-.03.27-.04.06-.01.12-.02.19-.02.08-.01.16-.02.25-.02.15-.01.3-.02.46-.02.23 0 .47.01.7.04.36.04.72.1 1.08.2.03 0 .06.01.09.03.14.02.27.06.4.11.16.05.31.1.47.17.09.03.17.07.26.11.02 0 .03.01.05.02.18.08.35.16.53.26.23.12.45.26.67.41.23.14.44.3.65.48.17.14.33.28.49.44.04.03.08.07.12.11.3.4.6.8.91 1.2.3.4.61.79.92 1.18.25.31.49.62.74.92.06.09.13.17.21.26.22.27.44.53.66.79.21.27.44.54.67.8.7.83 1.43 1.65 2.17 2.46.77.85 1.57 1.7 2.39 2.52a97.73 97.73 0 009.86 8.77c.09.09.18.18.26.27-.08-.1-.16-.2-.25-.29zM79.96 89.18v1.86c.07.08.14.16.2.24h.58l.53-.52c-.42-.53-.86-1.06-1.31-1.58zm-7.12-7.54c-.78-.74-1.58-1.47-2.39-2.19a85.79 85.79 0 00-2.9-2.47c-.71-.58-1.42-1.16-2.15-1.72-.21-.21-.4-.44-.57-.67-1.06-1.36-1.63-3-1.6-4.61.01-.46.07-.92.19-1.35h-.55v5.07c.15.31.31.6.49.89.35.55.76 1.08 1.24 1.57.35.27.7.55 1.05.82.08.07.17.13.25.2.34.27.68.55 1.01.82l.75.63c.26.21.52.43.78.66.05.04.1.08.15.13.55.47 1.1.95 1.63 1.44.08.06.15.13.23.2.68.62 1.34 1.24 2 1.87h1.72c-.44-.44-.89-.87-1.33-1.29zm28.17-3.23c-3.21-2.48-6.29-5.2-9.16-8.06L91.5 70v-.5c0-.17 0-.33.02-.49 0-.21.01-.42.04-.62v-.01c.02-.27.06-.53.12-.79-.18.1-.36.19-.54.28-.01 0-.01.01-.02.01-.81-.84-1.6-1.69-2.37-2.56-.44-.49-.88-.99-1.3-1.49-.53-.61-1.04-1.22-1.54-1.84-.24-.29-.47-.58-.71-.87-.31-.39-.62-.78-.92-1.18l-.9-1.19c-.11-.11-.23-.23-.34-.33-.12-.11-.24-.22-.36-.32-.61-.5-1.26-.92-1.93-1.25-.21-.1-.42-.19-.63-.27-.09-.03-.17-.06-.25-.09-.21-.08-.42-.15-.63-.2-.09-.03-.18-.05-.26-.07a1.31 1.31 0 00-.27-.06c-.09-.02-.19-.04-.29-.06-.1-.02-.19-.04-.29-.05-.13-.02-.26-.04-.39-.05-.04 0-.09-.01-.13-.01-.09-.01-.18-.01-.27-.01-.02 0-.04-.01-.06-.01-.26-.01-.53 0-.79.01-.01-.01-.02-.01-.03 0h-.06c-.1 0-.2.01-.3.03-.08 0-.17.01-.25.03-.01 0-.03 0-.04.01-.1.01-.2.03-.3.05-.16.02-.32.05-.47.1-.11.02-.22.05-.32.09-.03 0-.05 0-.07.02-.13.03-.25.07-.37.12-.03.01-.05.02-.08.03-.16.06-.32.13-.48.2a.3.3 0 00-.08.04c-.16.08-.32.16-.48.26-.07.04-.14.08-.2.12-.16.1-.31.2-.45.31-.1.07-.19.14-.28.23-.08.06-.17.13-.25.21l-.79.74v.01c.05.17.1.33.16.49l.25.71.01.02.02-.02.87-.8.29-.27c.02-.01.03-.03.05-.04 0-.01.01-.02.02-.02.08-.08.17-.15.26-.22.01-.01.02-.02.03-.02.05-.05.1-.09.16-.12.24-.19.51-.35.78-.48l.18-.09c.29-.14.59-.25.9-.33.01 0 .01-.01.02 0 .07-.03.14-.05.21-.05.13-.04.26-.07.39-.09.09-.02.18-.03.27-.04.06-.01.12-.02.19-.02.08-.01.16-.02.25-.02.15-.01.3-.02.46-.02.23 0 .47.01.7.04.36.04.72.1 1.08.2.03 0 .06.01.09.03.14.02.27.06.4.11.16.05.31.1.47.17.09.03.17.07.26.11.02 0 .03.01.05.02.18.08.35.16.53.26.23.12.45.26.67.41.23.14.44.3.65.48.17.14.33.28.49.44.04.03.08.07.12.11.3.4.6.8.91 1.2.3.4.61.79.92 1.18.25.31.49.62.74.92.06.09.13.17.21.26.22.27.44.53.66.79.21.27.44.54.67.8.7.83 1.43 1.65 2.17 2.46.77.85 1.57 1.7 2.39 2.52a97.73 97.73 0 009.86 8.77c.09.09.18.18.26.27-.08-.1-.16-.2-.25-.29zM79.96 91.04c.07.08.14.16.2.24h.58l.53-.52c-.42-.53-.86-1.06-1.31-1.58v1.86zm-9.51-11.59a85.79 85.79 0 00-2.9-2.47c-.71-.58-1.42-1.16-2.15-1.72-.21-.21-.4-.44-.57-.67-1.06-1.36-1.63-3-1.6-4.61.01-.46.07-.92.19-1.35h-.55v5.07c.15.31.31.6.49.89.35.55.76 1.08 1.24 1.57.35.27.7.55 1.05.82.08.07.17.13.25.2.34.27.68.55 1.01.82l.75.63c.26.21.52.43.78.66.05.04.1.08.15.13.55.47 1.1.95 1.63 1.44.08.06.15.13.23.2.68.62 1.34 1.24 2 1.87h1.72c-.44-.44-.89-.87-1.33-1.29-.78-.74-1.58-1.47-2.39-2.19zm34.18.05c-.18-.37-.38-.74-.6-1.09-.31-.48-.65-.93-1.04-1.36 0-.02-.01-.03-.03-.04-.1-.11-.21-.21-.31-.32l-.11-.11h-.01a93.451 93.451 0 01-9.49-8.39l-.22-.22c-.21-.22-.42-.44-.64-.66-.12-.13-.24-.25-.36-.38a87.307 87.307 0 01-3.07-3.39c-.35-.4-.7-.81-1.04-1.22-.08-.1-.17-.2-.25-.3 0-.01 0-.01-.01-.01-.49-.59-.98-1.2-1.45-1.81-.57-.71-1.12-1.43-1.66-2.16l-.11-.13c-.17-.17-.35-.34-.53-.5-.26-.24-.53-.46-.81-.65-.15-.12-.31-.23-.47-.33-.21-.14-.43-.27-.65-.39-.15-.08-.3-.16-.45-.23-.15-.08-.3-.15-.45-.21-.13-.06-.27-.11-.4-.16a.442.442 0 00-.16-.06c-.15-.06-.31-.12-.47-.16-.22-.07-.44-.13-.66-.18-.1-.03-.2-.05-.31-.07-.06-.01-.12-.03-.19-.04a.875.875 0 00-.16-.02c-.15-.03-.3-.05-.46-.07-.19-.02-.38-.04-.57-.05s-.37-.02-.56-.02c-2.13 0-4.18.72-5.76 2.18l-.32.29v.01l-.15.14-.87.8-.98.91-.01.01-.72.67-4.73 4.38c-.11.1-.22.21-.3.32-.09.07-.16.14-.22.22-.03.03-.06.06-.08.09-.27.3-.51.63-.71.97-.11.15-.2.31-.28.48-.11.19-.2.38-.28.58-.25.57-.44 1.18-.54 1.81-.08.42-.13.86-.14 1.3-.04 1.6.36 3.2 1.14 4.66.26.48.55.94.89 1.38.26.35.55.69.86 1.01l.02.02.12.11c2.28 1.75 4.48 3.62 6.58 5.58.09.08.18.16.26.24.72.67 1.43 1.36 2.13 2.06l.33.33c1.89 1.9 3.71 3.89 5.43 5.96.46.54.91 1.09 1.36 1.65.06.07.11.14.16.21l.01.01c.07.08.12.14.17.22l.01.01c.08.1.16.19.23.29.52.65 1.02 1.32 1.52 1.99l.11.13c.06.06.12.12.18.17 1.81 1.77 4.11 2.76 6.4 2.93a9.344 9.344 0 002.39-.12c1.52-.28 2.94-.95 4.1-2.03l7.79-7.24c1.59-1.46 2.49-3.5 2.54-5.73.03-1.46-.29-2.92-.94-4.27zM91.14 96.32c-.77.21-1.58.27-2.39.18-1.71-.17-3.44-.95-4.82-2.33-.38-.52-.77-1.03-1.16-1.54-.14-.18-.28-.36-.42-.53-.04-.06-.08-.1-.12-.15l-.01-.01c-.08-.11-.16-.21-.22-.31-.02-.01-.02-.02-.03-.03-.01 0-.01-.01-.01-.01-.01-.01-.02-.01-.02-.02-.23-.27-.44-.54-.67-.81-.42-.53-.86-1.06-1.31-1.58-.43-.52-.88-1.04-1.33-1.55-.53-.59-1.06-1.18-1.61-1.76-.16-.18-.33-.36-.5-.55a106.11 106.11 0 00-3.68-3.68c-.78-.74-1.58-1.47-2.39-2.19a85.79 85.79 0 00-2.9-2.47c-.71-.58-1.42-1.16-2.15-1.72-.21-.21-.4-.44-.57-.67-1.06-1.36-1.63-3-1.6-4.61.01-.46.07-.92.19-1.35.1-.43.26-.85.47-1.23.21-.42.48-.81.81-1.16.09-.11.2-.22.31-.33l4.67-4.32.77-.71 1.16-1.07v-.01l.02-.02.87-.8.29-.27c.02-.01.03-.03.05-.04 0-.01.01-.02.02-.02.08-.08.17-.15.26-.22.01-.01.02-.02.03-.02.05-.05.1-.09.16-.12.24-.19.51-.35.78-.48l.18-.09c.29-.14.59-.25.9-.33.01 0 .01-.01.02 0 .07-.03.14-.05.21-.05.13-.04.26-.07.39-.09.09-.02.18-.03.27-.04.06-.01.12-.02.19-.02.08-.01.16-.02.25-.02.15-.01.3-.02.46-.02.23 0 .47.01.7.04.36.04.72.1 1.08.2.03 0 .06.01.09.03.14.02.27.06.4.11.16.05.31.1.47.17.09.03.17.07.26.11.02 0 .03.01.05.02.18.08.35.16.53.26.23.12.45.26.67.41.23.14.44.3.65.48.17.14.33.28.49.44.04.03.08.07.12.11.3.4.6.8.91 1.2.3.4.61.79.92 1.18.25.31.49.62.74.92.06.09.13.17.21.26.22.27.44.53.66.79.21.27.44.54.67.8.7.83 1.43 1.65 2.17 2.46.77.85 1.57 1.7 2.39 2.52a97.73 97.73 0 009.86 8.77c.09.09.18.18.26.27.08.09.16.19.24.29 1.11 1.38 1.73 3.06 1.69 4.72-.04 1.58-.67 3.02-1.78 4.03l-7.8 7.25c-.71.65-1.56 1.1-2.47 1.33zm-18.3-14.68c-.78-.74-1.58-1.47-2.39-2.19a85.79 85.79 0 00-2.9-2.47c-.71-.58-1.42-1.16-2.15-1.72-.21-.21-.4-.44-.57-.67-1.06-1.36-1.63-3-1.6-4.61.01-.46.07-.92.19-1.35h-.55v5.07c.15.31.31.6.49.89.35.55.76 1.08 1.24 1.57.35.27.7.55 1.05.82.08.07.17.13.25.2.34.27.68.55 1.01.82l.75.63c.26.21.52.43.78.66.05.04.1.08.15.13.55.47 1.1.95 1.63 1.44.08.06.15.13.23.2.68.62 1.34 1.24 2 1.87h1.72c-.44-.44-.89-.87-1.33-1.29zm7.12 7.54v1.86c.07.08.14.16.2.24h.58l.53-.52c-.42-.53-.86-1.06-1.31-1.58zm21.05-10.77c-3.21-2.48-6.29-5.2-9.16-8.06L91.5 70v-.5c0-.17 0-.33.02-.49 0-.21.01-.42.04-.62v-.01c.02-.27.06-.53.12-.79-.18.1-.36.19-.54.28-.01 0-.01.01-.02.01-.81-.84-1.6-1.69-2.37-2.56-.44-.49-.88-.99-1.3-1.49-.53-.61-1.04-1.22-1.54-1.84-.24-.29-.47-.58-.71-.87-.31-.39-.62-.78-.92-1.18l-.9-1.19c-.11-.11-.23-.23-.34-.33-.12-.11-.24-.22-.36-.32-.61-.5-1.26-.92-1.93-1.25-.21-.1-.42-.19-.63-.27-.09-.03-.17-.06-.25-.09-.21-.08-.42-.15-.63-.2-.09-.03-.18-.05-.26-.07a1.31 1.31 0 00-.27-.06c-.09-.02-.19-.04-.29-.06-.1-.02-.19-.04-.29-.05-.13-.02-.26-.04-.39-.05-.04 0-.09-.01-.13-.01-.09-.01-.18-.01-.27-.01-.02 0-.04-.01-.06-.01-.26-.01-.53 0-.79.01-.01-.01-.02-.01-.03 0h-.06c-.1 0-.2.01-.3.03-.08 0-.17.01-.25.03-.01 0-.03 0-.04.01-.1.01-.2.03-.3.05-.16.02-.32.05-.47.1-.11.02-.22.05-.32.09-.03 0-.05 0-.07.02-.13.03-.25.07-.37.12-.03.01-.05.02-.08.03-.16.06-.32.13-.48.2a.3.3 0 00-.08.04c-.16.08-.32.16-.48.26-.07.04-.14.08-.2.12-.16.1-.31.2-.45.31-.1.07-.19.14-.28.23-.08.06-.17.13-.25.21l-.79.74v.01c.05.17.1.33.16.49l.25.71.01.02.02-.02.87-.8.29-.27c.02-.01.03-.03.05-.04 0-.01.01-.02.02-.02.08-.08.17-.15.26-.22.01-.01.02-.02.03-.02.05-.05.1-.09.16-.12.24-.19.51-.35.78-.48l.18-.09c.29-.14.59-.25.9-.33.01 0 .01-.01.02 0 .07-.03.14-.05.21-.05.13-.04.26-.07.39-.09.09-.02.18-.03.27-.04.06-.01.12-.02.19-.02.08-.01.16-.02.25-.02.15-.01.3-.02.46-.02.23 0 .47.01.7.04.36.04.72.1 1.08.2.03 0 .06.01.09.03.14.02.27.06.4.11.16.05.31.1.47.17.09.03.17.07.26.11.02 0 .03.01.05.02.18.08.35.16.53.26.23.12.45.26.67.41.23.14.44.3.65.48.17.14.33.28.49.44.04.03.08.07.12.11.3.4.6.8.91 1.2.3.4.61.79.92 1.18.25.31.49.62.74.92.06.09.13.17.21.26.22.27.44.53.66.79.21.27.44.54.67.8.7.83 1.43 1.65 2.17 2.46.77.85 1.57 1.7 2.39 2.52a97.73 97.73 0 009.86 8.77c.09.09.18.18.26.27-.08-.1-.16-.2-.25-.29zm-28.17 3.23c-.78-.74-1.58-1.47-2.39-2.19a85.79 85.79 0 00-2.9-2.47c-.71-.58-1.42-1.16-2.15-1.72-.21-.21-.4-.44-.57-.67-1.06-1.36-1.63-3-1.6-4.61.01-.46.07-.92.19-1.35h-.55v5.07c.15.31.31.6.49.89.35.55.76 1.08 1.24 1.57.35.27.7.55 1.05.82.08.07.17.13.25.2.34.27.68.55 1.01.82l.75.63c.26.21.52.43.78.66.05.04.1.08.15.13.55.47 1.1.95 1.63 1.44.08.06.15.13.23.2.68.62 1.34 1.24 2 1.87h1.72c-.44-.44-.89-.87-1.33-1.29zm7.12 7.54v1.86c.07.08.14.16.2.24h.58l.53-.52c-.42-.53-.86-1.06-1.31-1.58zm21.05-10.77c-3.21-2.48-6.29-5.2-9.16-8.06L91.5 70v-.5c0-.17 0-.33.02-.49 0-.21.01-.42.04-.62v-.01c.02-.27.06-.53.12-.79-.18.1-.36.19-.54.28-.01 0-.01.01-.02.01-.81-.84-1.6-1.69-2.37-2.56-.44-.49-.88-.99-1.3-1.49-.53-.61-1.04-1.22-1.54-1.84-.24-.29-.47-.58-.71-.87-.31-.39-.62-.78-.92-1.18l-.9-1.19c-.11-.11-.23-.23-.34-.33-.12-.11-.24-.22-.36-.32-.61-.5-1.26-.92-1.93-1.25-.21-.1-.42-.19-.63-.27-.09-.03-.17-.06-.25-.09-.21-.08-.42-.15-.63-.2-.09-.03-.18-.05-.26-.07a1.31 1.31 0 00-.27-.06c-.09-.02-.19-.04-.29-.06-.1-.02-.19-.04-.29-.05-.13-.02-.26-.04-.39-.05-.04 0-.09-.01-.13-.01-.09-.01-.18-.01-.27-.01-.02 0-.04-.01-.06-.01-.26-.01-.53 0-.79.01-.01-.01-.02-.01-.03 0h-.06c-.1 0-.2.01-.3.03-.08 0-.17.01-.25.03-.01 0-.03 0-.04.01-.1.01-.2.03-.3.05-.16.02-.32.05-.47.1-.11.02-.22.05-.32.09-.03 0-.05 0-.07.02-.13.03-.25.07-.37.12-.03.01-.05.02-.08.03-.16.06-.32.13-.48.2a.3.3 0 00-.08.04c-.16.08-.32.16-.48.26-.07.04-.14.08-.2.12-.16.1-.31.2-.45.31-.1.07-.19.14-.28.23-.08.06-.17.13-.25.21l-.79.74v.01c.05.17.1.33.16.49l.25.71.01.02.02-.02.87-.8.29-.27c.02-.01.03-.03.05-.04 0-.01.01-.02.02-.02.08-.08.17-.15.26-.22.01-.01.02-.02.03-.02.05-.05.1-.09.16-.12.24-.19.51-.35.78-.48l.18-.09c.29-.14.59-.25.9-.33.01 0 .01-.01.02 0 .07-.03.14-.05.21-.05.13-.04.26-.07.39-.09.09-.02.18-.03.27-.04.06-.01.12-.02.19-.02.08-.01.16-.02.25-.02.15-.01.3-.02.46-.02.23 0 .47.01.7.04.36.04.72.1 1.08.2.03 0 .06.01.09.03.14.02.27.06.4.11.16.05.31.1.47.17.09.03.17.07.26.11.02 0 .03.01.05.02.18.08.35.16.53.26.23.12.45.26.67.41.23.14.44.3.65.48.17.14.33.28.49.44.04.03.08.07.12.11.3.4.6.8.91 1.2.3.4.61.79.92 1.18.25.31.49.62.74.92.06.09.13.17.21.26.22.27.44.53.66.79.21.27.44.54.67.8.7.83 1.43 1.65 2.17 2.46.77.85 1.57 1.7 2.39 2.52a97.73 97.73 0 009.86 8.77c.09.09.18.18.26.27-.08-.1-.16-.2-.25-.29zM93.87 53.85c.04.65-.47 1.22-1.13 1.25h-.06c-.63 0-1.16-.49-1.2-1.13-.04-.74-.16-1.38-.34-1.94-.62-1.95-1.98-2.91-3.24-3.38a7.442 7.442 0 00-2.67-.44c-.65.03-1.22-.48-1.24-1.14-.03-.66.47-1.22 1.13-1.25.08 0 8.31-.3 8.75 8.03z"/><path class="st0" d="M112.54 68.85c-.29-5.12-4.24-9.19-9.22-9.73v-.06h-1.19c-.74 0-1.49.08-2.22.24-.47.09-.93.22-1.38.38-.42.14-.82.31-1.21.5l-.35.18-.18.36c-.15.29-.3.57-.48.85-.14.25-.29.49-.46.72-.22.32-.45.63-.71.93-.09.13-.2.25-.3.37l-.48.51c-.2.2-.4.39-.61.58-.2.19-.42.37-.64.54-.22.17-.44.34-.67.5l-.33.23v.01l-.12.38c-.06.19-.12.39-.17.59-.06.22-.11.44-.14.66-.06.26-.1.52-.12.79v.01c-.03.2-.04.41-.04.62-.02.16-.02.32-.02.49v.5l.35.35c2.87 2.86 5.95 5.58 9.16 8.06.09.09.17.19.25.29.08.09.16.19.24.29.09.1.17.2.24.3l.38.53.65-.04c.22-.01.43-.03.64-.06.42-.05.83-.12 1.22-.22 4.77-1.15 8.19-5.59 7.91-10.65zm-9.55 8.2c0-.02-.01-.03-.03-.04-.09-.11-.19-.21-.29-.32l-.13-.11h-.01a98.483 98.483 0 01-8.63-7.56c.03-.54.12-1.06.25-1.58v-.01c.24-.17.47-.35.69-.54.23-.19.45-.38.67-.58.43-.4.83-.82 1.22-1.26.15-.18.3-.35.44-.54.07-.07.13-.15.18-.23.1-.13.2-.25.29-.39.12-.16.23-.32.33-.48.25-.37.48-.75.69-1.14.03-.04.05-.07.07-.11.94-.41 1.96-.65 2.99-.7l.42-.01h.05c4.24 0 7.73 3.3 7.97 7.53.23 4.19-2.82 7.81-6.91 8.36-.08-.1-.17-.2-.26-.29zM71.6 59.78l-.25-.71c-.06-.16-.11-.32-.16-.49v-.02c-.1-.28-.18-.58-.25-.87v-.01c-.02-.09-.04-.19-.06-.29-.01-.04-.02-.09-.03-.14v-.01c-.01-.02-.01-.05-.01-.07-.04-.19-.07-.37-.09-.56-.03-.19-.06-.38-.07-.57-.02-.19-.04-.38-.04-.57-.08-1.18.03-2.37.3-3.53l.21-.9v-.01l.01-.03-.87-.41a1.22 1.22 0 00-.17-.07c-.36-.17-.73-.31-1.11-.42a9.46 9.46 0 00-2.73-.41c-1.79-.02-3.48.47-4.91 1.34-.01.01-.02.01-.02.01a9.31 9.31 0 00-4.49 7.86c0 .3.02.59.05.88a9.053 9.053 0 003.72 6.46c.28.21.58.41.89.58.34.2.7.37 1.08.51.05.03.1.05.15.07l.12.05.79.3.23-.35.3-.47c.15-.24.33-.48.54-.69.08-.1.18-.21.28-.3l4.67-4.34.77-.71v-.01l1.16-1.07v-.01l-.01-.02zm-12.35-.88c.01-.52.07-1.03.2-1.51a6.898 6.898 0 016.72-5.31c.74 0 1.52.11 2.25.34-.03.2-.04.41-.07.61v.02c-.07.57-.1 1.13-.1 1.69 0 .06-.01.11-.01.16 0 .21 0 .42.01.64.01.21.03.42.04.63v.01a.03.03 0 000 .04c.01.19.04.38.07.58.03.2.06.4.09.59.03.22.08.45.12.67.05.22.1.43.16.64.04.14.08.27.12.4v.02l-.01.01-.7.65-4.75 4.41c-.11.09-.21.19-.3.29-.08.08-.15.16-.22.24-.02.03-.05.05-.07.08 0 0-.01 0-.01-.01-.93-.5-1.71-1.21-2.31-2.05a6.648 6.648 0 01-1.16-2.96 5.14 5.14 0 01-.07-.88zM81.16 93.73c-.31 0-.62-.12-.86-.36-.46-.47-.45-1.23.02-1.69l8.1-7.89c.47-.46 1.23-.45 1.69.02.46.47.45 1.23-.02 1.69l-8.1 7.89c-.23.23-.53.34-.83.34zM77.2 88.56c-.31 0-.62-.12-.86-.36-.46-.47-.45-1.23.02-1.69l3.96-3.85c.47-.46 1.23-.45 1.69.02.46.47.45 1.23-.02 1.69l-3.96 3.85c-.23.22-.53.34-.83.34z"/><g><path class="st0" d="M87.51 63.77l-.08.08-.84.82-.01.01-4.23 4.1-1.93 1.88c-.13.13-.29.23-.46.28-.12.04-.24.06-.37.06a1.19 1.19 0 01-.83-2.05l.33-.32.87-.85 1.53-1.49.86-.84 2.69-2.62.8-.78c.02-.02.04-.04.06-.05 0-.01.01-.01.01-.01.09-.07.18-.13.28-.17.06-.03.13-.05.2-.06.15-.04.32-.05.48-.02l.21.06c.07.02.14.05.2.09.05.03.11.06.15.11.01 0 .02 0 .02.01.01 0 .01 0 .01.01.03.02.05.04.07.06.06.06.11.12.15.18l.03.06c.27.46.2 1.06-.2 1.45z"/></g></svg>