<svg version="1.1" id="Layer_1" xmlns="http://www.w3.org/2000/svg" x="0" y="0" viewBox="0 0 128 128" xml:space="preserve"><style>.st0{fill:#5b5b5b}.st1{fill:#46f8d6}</style><path class="st0" d="M126.8 128H1.2c-.7 0-1.2-.5-1.2-1.2s.5-1.2 1.2-1.2h125.6c.7 0 1.2.5 1.2 1.2s-.5 1.2-1.2 1.2z"/><path class="st0" d="M47.4 128c-3.5 0-6.3-2.8-6.3-6.3v-67c0-3.5 2.8-6.3 6.3-6.3h36c3.5 0 6.3 2.8 6.3 6.3v66.9c0 3.5-2.8 6.3-6.3 6.3h-36zm-3.9-6.3c0 2.2 1.8 4 4 4h36c2.2 0 4-1.8 4-4v-6.5h-44v6.5zm3.9-70.9c-2.2 0-4 1.8-4 4v4h44v-4c0-2.2-1.8-4-4-4h-36z"/><path class="st0" d="M59 55.9c-.7 0-1.2-.5-1.2-1.2s.5-1.2 1.2-1.2h11.6c.7 0 1.2.5 1.2 1.2s-.5 1.2-1.2 1.2H59zM74.5 55.9c-.7 0-1.2-.5-1.2-1.2s.5-1.2 1.2-1.2h1.3c.7 0 1.2.5 1.2 1.2s-.5 1.2-1.2 1.2h-1.3zM65.5 124.1c-2.1 0-3.8-1.7-3.8-3.8 0-2.1 1.7-3.8 3.8-3.8 2.1 0 3.8 1.7 3.8 3.8-.1 2.1-1.8 3.8-3.8 3.8zm0-5.1c-.8 0-1.4.6-1.4 1.4 0 .8.6 1.4 1.4 1.4.8 0 1.4-.6 1.4-1.4 0-.8-.7-1.4-1.4-1.4z"/><path class="st0" d="M65.5 124.8c-2.4 0-4.4-2-4.4-4.4 0-2.4 2-4.4 4.4-4.4 2.4 0 4.4 2 4.4 4.4s-2 4.4-4.4 4.4z"/><path class="st1" d="M65.5 118c-1.3 0-2.4 1.1-2.4 2.4s1.1 2.4 2.4 2.4 2.4-1.1 2.4-2.4-1.1-2.4-2.4-2.4zM43.5 61.1h44v51.7h-44z"/><circle class="st0" cx="57.1" cy="76.3" r="1.4"/><circle class="st0" cx="51.5" cy="81.9" r="1.4"/><circle class="st0" cx="51.5" cy="76.3" r="1.4"/><circle class="st0" cx="57.1" cy="70.8" r="1.4"/><circle class="st0" cx="51.5" cy="70.8" r="1.4"/><circle class="st0" cx="62.6" cy="70.8" r="1.4"/></svg>