<svg xmlns="http://www.w3.org/2000/svg" width="131" height="130"><path fill="#46F9D7" d="M44.168 68.104c0-5.401-4.378-9.779-9.779-9.779-5.4 0-9.778 4.378-9.778 9.779 0 5.4 4.378 9.777 9.778 9.777 5.401.003 9.779-4.376 9.779-9.777"/><path fill="#434345" d="M40.256 72.574a.838.838 0 11-1.676 0 .838.838 0 011.676 0M36.903 69.222a.838.838 0 11-1.676 0 .838.838 0 011.676 0M36.903 72.574a.838.838 0 11-1.676 0 .838.838 0 011.676 0M33.551 69.222a.838.838 0 11-1.676 0 .838.838 0 011.676 0M33.551 72.574a.838.838 0 11-1.676 0 .838.838 0 011.676 0M30.198 72.574a.838.838 0 11-1.676 0 .838.838 0 011.676 0"/><path fill="#434345" d="M54.505 91.732H14.273a.719.719 0 01-.719-.718V40.723c0-.396.322-.718.719-.718h40.232c.397 0 .719.322.719.718v50.292a.719.719 0 01-.719.717m-39.514-1.436h38.795V41.442H14.991v48.854z"/><path fill="#434345" d="M40.536 49.546a3.237 3.237 0 01-3.233-3.234 3.236 3.236 0 013.233-3.233 3.236 3.236 0 013.233 3.233 3.237 3.237 0 01-3.233 3.234m0-5.031c-.99 0-1.796.806-1.796 1.796 0 .991.806 1.796 1.796 1.796s1.796-.806 1.796-1.796a1.8 1.8 0 00-1.796-1.796M48.638 49.546a3.237 3.237 0 01-3.233-3.234 3.236 3.236 0 013.233-3.233 3.236 3.236 0 013.233 3.233 3.237 3.237 0 01-3.233 3.234m0-5.031c-.99 0-1.796.806-1.796 1.796 0 .991.806 1.796 1.796 1.796s1.796-.806 1.796-1.796a1.8 1.8 0 00-1.796-1.796M31.036 49.544h-13.41a.718.718 0 01-.719-.718v-5.029a.72.72 0 01.719-.719h13.41a.72.72 0 01.719.719v5.029a.72.72 0 01-.719.718m-12.692-1.437h11.974v-3.592H18.344v3.592zM53.667 52.339H15.111a.719.719 0 010-1.438h38.556a.718.718 0 010 1.438M53.667 85.027H15.111a.72.72 0 010-1.439h38.556a.718.718 0 010 1.439M34.389 78.601c-5.788 0-10.497-4.709-10.497-10.498 0-5.787 4.709-10.496 10.497-10.496s10.497 4.709 10.497 10.496c0 5.789-4.709 10.498-10.497 10.498m0-19.557c-4.996 0-9.06 4.063-9.06 9.062 0 4.994 4.064 9.061 9.06 9.061s9.06-4.063 9.06-9.061c0-4.999-4.064-9.062-9.06-9.062"/><path fill="#434345" d="M34.389 82.232c-7.791 0-14.129-6.339-14.129-14.13 0-7.792 6.338-14.129 14.129-14.129 6.579 0 12.27 4.549 13.754 10.896h2.171c.397 0 .719.321.719.721v5.027a.72.72 0 01-.719.72h-2.171c-1.484 6.348-7.175 10.895-13.754 10.895m0-26.82c-6.999 0-12.692 5.693-12.692 12.69 0 7 5.693 12.693 12.692 12.693 6.089 0 11.332-4.339 12.466-10.313a.717.717 0 01.706-.585h2.035v-3.595h-2.035a.717.717 0 01-.706-.584c-1.134-5.969-6.377-10.306-12.466-10.306M24.052 88.38h-4.75a.719.719 0 010-1.438h4.75a.718.718 0 010 1.438M129.984 91.73H1.016a.79.79 0 010-1.577h128.968a.79.79 0 010 1.577"/><path fill="#46F9D7" d="M77.232 74.236h14.175v8.338H77.232z"/><path fill="none" d="M.227 0h130.546v91.732H.227z"/><path fill="#46F9D7" d="M63.057 82.575h8.337v8.338h-8.337z"/><path fill="#434345" d="M71.395 58.348H63.06a.79.79 0 01-.788-.789v-8.338c0-.437.353-.789.788-.789h8.335c.438 0 .789.354.789.789v8.338a.789.789 0 01-.789.789m-7.55-1.576h6.762V50.01h-6.762v6.762zM71.395 75.025H63.06a.788.788 0 01-.788-.789v-8.338c0-.436.353-.788.788-.788h8.335c.438 0 .789.354.789.788v8.338a.788.788 0 01-.789.789m-7.55-1.577h6.762v-6.763h-6.762v6.763z"/><path fill="#46F9D7" d="M63.057 57.559h14.175v8.339H63.057z"/><path fill="#434345" d="M77.232 50.011H63.057a.789.789 0 01-.788-.787v-8.339c0-.435.353-.788.788-.788h14.175c.437 0 .787.353.787.788v8.339a.787.787 0 01-.787.787m-13.387-1.579h12.598v-6.761H63.845v6.761zM77.232 66.686H63.057a.789.789 0 01-.788-.787V57.56c0-.437.353-.787.788-.787h14.175c.437 0 .787.353.787.787v8.339a.786.786 0 01-.787.787M63.845 65.11h12.598v-6.762H63.845v6.762zM77.232 83.363H63.057a.788.788 0 01-.788-.788v-8.339c0-.435.353-.788.788-.788h14.175c.437 0 .787.354.787.788v8.339a.785.785 0 01-.787.788m-13.387-1.577h12.598v-6.762H63.845v6.762z"/><path fill="#434345" d="M71.395 58.348a.788.788 0 01-.787-.789v-8.338c0-.436.354-.789.787-.789H85.57a.789.789 0 110 1.578H72.184v7.549a.788.788 0 01-.789.789M85.57 75.025H71.396a.788.788 0 01-.789-.788v-8.339c0-.438.353-.788.789-.788h10.006a.788.788 0 010 1.575h-9.219v6.763h12.6v-4.214a.788.788 0 111.576 0v5.003a.788.788 0 01-.789.788M85.57 91.701H71.395a.787.787 0 01-.787-.788v-8.338c0-.436.354-.789.787-.789H85.57c.437 0 .789.354.789.789v8.338a.788.788 0 01-.789.788m-13.386-1.576h12.601v-6.762H72.184v6.762z"/><path fill="#434345" d="M98.078 75.025H85.57a.787.787 0 01-.788-.788v-5.003a.788.788 0 111.577 0v4.214h11.719a.788.788 0 010 1.577M77.232 66.686a.788.788 0 01-.789-.787V57.56a.79.79 0 01.789-.79h6.67a.789.789 0 110 1.579H78.02v7.55a.787.787 0 01-.788.787M99.746 91.701H85.57a.786.786 0 01-.788-.788v-8.338a.79.79 0 01.788-.789h14.176c.436 0 .788.354.788.789v8.338a.787.787 0 01-.788.788m-13.387-1.576h12.599v-6.762H86.359v6.762z"/><path fill="#434345" d="M91.407 83.363H77.232a.787.787 0 01-.789-.788v-8.339a.79.79 0 01.789-.788h14.175c.437 0 .788.354.788.788v8.339a.787.787 0 01-.788.788M78.02 81.786h12.6v-6.762h-12.6v6.762z"/><path fill="#434345" d="M105.583 83.363H91.408a.788.788 0 01-.788-.788v-8.339a.788.788 0 011.575 0v7.55h12.6v-2.547a.788.788 0 011.576 0v3.336a.788.788 0 01-.788.788"/><path fill="#434345" d="M113.92 91.702H99.746a.788.788 0 01-.788-.788v-8.339a.788.788 0 011.576 0v7.55h12.599v-3.381a.788.788 0 111.576 0v4.17a.79.79 0 01-.789.788M71.395 91.701H63.06a.788.788 0 01-.788-.788v-8.338c0-.436.353-.789.788-.789h8.335c.438 0 .789.354.789.789v8.338a.788.788 0 01-.789.788m-7.55-1.576h6.762v-6.762h-6.762v6.762zM112.736 79.472a2.72 2.72 0 01-1.922-.797l-5.918-5.916a.783.783 0 010-1.115l2.729-2.73a.811.811 0 011.115 0l5.917 5.916a2.72 2.72 0 01-1.921 4.642m-6.168-7.271l5.361 5.36a1.14 1.14 0 001.612 0 1.152 1.152 0 000-1.617l-5.356-5.359-1.617 1.616zM100.902 70.259a.804.804 0 01-.561-.229l-1.816-1.82a.778.778 0 010-1.112l4.551-4.553a.786.786 0 011.115 0l1.82 1.82c.309.31.309.81 0 1.114l-4.555 4.552a.784.784 0 01-.554.228m-.705-2.61l.705.706 3.438-3.438-.706-.705-3.437 3.437z"/><path fill="#434345" d="M105.91 72.535a.796.796 0 01-.559-.231l-3.644-3.642a.783.783 0 010-1.114l1.817-1.819a.803.803 0 011.122 0l3.641 3.643c.309.31.309.81 0 1.115l-1.82 1.817a.793.793 0 01-.557.231m-2.528-4.431l2.527 2.527.705-.707-2.526-2.526-.706.706zM109.096 72.201c.25.251.25.659 0 .91a.642.642 0 01-.91 0 .644.644 0 01.91-.91M110.916 74.021a.644.644 0 11-.911.91.644.644 0 01.911-.91M112.736 75.843a.642.642 0 11-.909.91.642.642 0 11.909-.91M97.893 68.939c-.414 0-.83-.104-1.205-.319L85.04 61.962a.802.802 0 01-.393-.58.789.789 0 01.226-.66l11.832-11.836a.788.788 0 011.241.166l6.658 11.651a2.44 2.44 0 01-.396 2.933l-4.591 4.591a2.43 2.43 0 01-1.724.712m-11.179-7.834l10.755 6.146a.863.863 0 001.035-.139l4.592-4.592a.864.864 0 00.139-1.035l-6.146-10.754-10.375 10.374z"/><path fill="#434345" d="M92.709 62.066a.786.786 0 01-.557-.231l-3.188-3.186a.788.788 0 011.114-1.115l3.188 3.186c.31.311.31.81 0 1.115a.781.781 0 01-.557.231M98.171 63.887a.796.796 0 01-.558-.231l-6.827-6.827a.786.786 0 010-1.113.783.783 0 011.114 0l6.828 6.825a.788.788 0 01-.557 1.346M96.352 56.604a.794.794 0 01-.559-.231l-2.275-2.276a.783.783 0 010-1.112.785.785 0 011.115 0l2.274 2.274a.785.785 0 010 1.114.778.778 0 01-.555.231M102.002 49.158a.833.833 0 11-1.177 1.179.833.833 0 011.177-1.179M95.333 45.822a.835.835 0 11-1.182 1.179.835.835 0 011.182-1.179M102.002 42.487a.833.833 0 11-1.177 1.179.833.833 0 011.177-1.179M104.749 55.817a2.734 2.734 0 01-1.933-4.667 2.735 2.735 0 013.865 0 2.74 2.74 0 010 3.864 2.707 2.707 0 01-1.932.803m0-3.89a1.157 1.157 0 100 2.314 1.157 1.157 0 000-2.314M90.574 44.976a2.72 2.72 0 01-1.934-.8 2.74 2.74 0 010-3.867c.517-.516 1.2-.8 1.934-.8.729 0 1.417.284 1.933.8a2.738 2.738 0 010 3.867c-.516.516-1.204.8-1.933.8m0-3.891a1.16 1.16 0 00-.818 1.976 1.186 1.186 0 001.637 0 1.16 1.16 0 00-.819-1.976"/><path fill="none" d="M76.126 0h12.043v12.042H76.126z"/><path fill="none" d="M76.126 0h12.043v12.042H76.126z"/><path fill="none" d="M76.126 0h12.043v12.042H76.126z"/><path fill="none" d="M76.126 0h12.043v12.042H76.126z"/><path fill="none" d="M76.126 0h12.043v12.042H76.126z"/><g opacity=".2" fill="#434345"><path d="M82.148 12.042a.9.9 0 01-.9-.9V.9a.897.897 0 111.796 0v10.242a.895.895 0 01-.896.9"/><path d="M76.126 6.021c0-.497.401-.9.899-.9H87.27a.9.9 0 110 1.8H77.025a.9.9 0 01-.899-.9"/></g><g opacity=".2"><path fill="none" d="M30.597 15.508h9.043v9.043h-9.043z"/><path fill="none" d="M30.597 15.508h9.043v9.043h-9.043z"/><path fill="none" d="M30.597 15.508h9.043v9.043h-9.043z"/><path fill="#434345" d="M30.861 24.287a.9.9 0 010-1.273l7.242-7.242a.901.901 0 011.273 1.273l-7.242 7.242a.9.9 0 01-1.273 0"/><path fill="none" d="M30.597 15.508h9.043v9.043h-9.043z"/><path fill="none" d="M30.597 15.508h9.043v9.043h-9.043z"/><path fill="#434345" d="M30.86 15.772a.901.901 0 011.273 0l7.243 7.243a.9.9 0 01-1.273 1.273l-7.243-7.243a.9.9 0 010-1.273"/></g><circle opacity=".2" fill="none" stroke="#434345" stroke-width="2" stroke-miterlimit="10" cx="95.867" cy="19.734" r="5.118"/></svg>