<svg version="1.1" id="Layer_1" xmlns="http://www.w3.org/2000/svg" x="0" y="0" viewBox="0 0 128 128" xml:space="preserve"><style>.st0{fill:#5b5b5b}.st1{fill:#46f8d6}</style><path class="st0" d="M126.8 128H1.2c-.7 0-1.2-.5-1.2-1.2s.5-1.2 1.2-1.2h125.6c.7 0 1.2.5 1.2 1.2s-.5 1.2-1.2 1.2z"/><path class="st0" d="M30.7 128c-3.6 0-6.5-2.9-6.5-6.5V54.9c0-3.6 2.9-6.5 6.5-6.5h66.6c3.6 0 6.5 2.9 6.5 6.5v66.6c0 3.6-2.9 6.5-6.5 6.5H30.7zm-4.2-6.5c0 2.3 1.9 4.2 4.2 4.2h66.6c2.3 0 4.2-1.9 4.2-4.2V61.4h-75v60.1zm4.2-70.8c-2.3 0-4.2 1.9-4.2 4.2V59h75v-4.2c0-2.3-1.9-4.2-4.2-4.2H30.7z"/><path class="st0" d="M32 56c-.6 0-1.2-.5-1.2-1.2 0-.6.5-1.2 1.2-1.2h1.3c.6 0 1.2.5 1.2 1.2 0 .6-.5 1.2-1.2 1.2H32zM38.7 56c-.2 0-.3 0-.4-.1-.1-.1-.3-.1-.4-.3-.4-.4-.4-1.2 0-1.6.1-.1.2-.2.4-.2.1-.1.3-.1.4-.1.2 0 .3 0 .4.1.1.1.3.1.4.3.4.4.4 1.2 0 1.6-.1.1-.2.2-.4.2-.1.1-.3.1-.4.1zM44 56c-.3 0-.6-.1-.8-.3-.1-.1-.2-.2-.2-.4-.1-.3-.1-.6 0-.9.1-.1.1-.3.3-.4.2-.2.5-.3.8-.3.2 0 .3 0 .4.1.4.2.7.6.7 1.1 0 .2 0 .3-.1.4-.1.2-.1.3-.3.4-.2.2-.5.3-.8.3zM50.7 56c-.6 0-1.2-.5-1.2-1.2 0-.6.5-1.2 1.2-1.2H96c.6 0 1.2.5 1.2 1.2 0 .6-.5 1.2-1.2 1.2H50.7zM64 120c-7.2 0-14.2-3-19.2-8.3-.1-.1-.2-.1-.2-.2 0 0 0-.1-.1-.1-9.3-10-9.3-25.7 0-35.7.1-.1.1-.2.1-.2l.1-.1c5-5.3 12-8.3 19.2-8.3 7.2 0 14.2 3 19.2 8.3.1.1.2.1.2.2 0 0 0 .1.1.1 9.2 10 9.2 25.7 0 35.7-.1.1-.1.2-.1.2l-.1.1C78.3 117 71.3 120 64 120z"/><path class="st1" d="M65.2 117.5l.2-.1c3.2-.8 6.2-4.7 8.1-10.5l.1-.2-.2-.1c-2.6-.9-5.3-1.4-8-1.5h-.2v12.4zM62.7 105.3c-2.7.1-5.4.6-8 1.5l-.2.1.1.2c1.9 5.8 4.8 9.6 8.1 10.5l.2.1v-12.3l-.2-.1zM75.6 108c-.9 3-2.5 5.8-4.5 8.3l-.4.4.5-.2c3.5-1.1 6.7-3 9.3-5.5l.1-.1-.2-.1c-1.5-1.1-3.1-2.1-4.7-2.9l-.2-.1v.2zM52.1 107.8c-1.7.8-3.3 1.8-4.7 2.9l-.2.1.1.1c2.6 2.5 5.8 4.4 9.3 5.5l.5.2-.4-.4c-2-2.5-3.6-5.3-4.5-8.3h-.3l.2-.1zM77.8 94.8c-.1 3.5-.5 7.1-1.4 10.5v.1l.1.1c2.1.9 4 2.1 5.8 3.5l.1.1.1-.1c3.3-4 5.3-9 5.6-14.2v-.2H77.8v.2zM39.9 94.9c.3 5.2 2.3 10.2 5.6 14.2l.1.1.1-.1c1.8-1.4 3.7-2.6 5.8-3.5l.1-.1v-.1c-.9-3.4-1.3-7-1.4-10.5v-.2H39.9v.2zM52.5 94.9c.1 3.2.5 6.4 1.3 9.6v.2l.2-.1c2.8-.9 5.7-1.5 8.7-1.6h.2v-8.3H52.5v.2zM65.2 103h.2c2.9.1 5.9.6 8.7 1.6l.2.1v-.2c.8-3.1 1.2-6.4 1.3-9.6v-.2H65.2v8.3zM82.2 78c-1.8 1.4-3.7 2.6-5.8 3.5l-.1.1v.1c.9 3.4 1.3 7 1.4 10.5v.2H88v-.2C87.8 87 85.8 82 82.5 78l-.1-.1-.2.1zM74 82.5c-2.8.9-5.7 1.5-8.7 1.6h-.2v8.3h10.3v-.2c-.1-3.2-.5-6.4-1.3-9.6v-.2l-.1.1zM53.8 82.6c-.8 3.1-1.2 6.4-1.3 9.6v.2h10.3v-8.3h-.2c-3-.1-5.9-.6-8.7-1.6l-.2-.1.1.2zM45.5 78c-3.3 4-5.3 9-5.6 14.2v.2h10.3v-.2c.1-3.5.5-7.1 1.4-10.5v-.1l-.1-.1c-2.1-.9-4-2.1-5.8-3.5l-.1-.1-.1.1zM65.2 81.8h.2c2.7-.1 5.4-.6 8-1.5l.2-.1-.1-.2c-1.9-5.8-4.8-9.6-8.1-10.5l-.2-.1v12.4zM62.6 69.6c-3.2.9-6.2 4.7-8.1 10.5l-.1.2.2.1c2.6.9 5.3 1.4 8 1.5h.2V69.5l-.2.1zM71.1 70.8c2 2.5 3.6 5.3 4.5 8.3l.1.2.2-.1c1.7-.8 3.3-1.8 4.7-2.9l.2-.1-.2-.2c-2.6-2.5-5.8-4.4-9.3-5.5l-.5-.2.3.5zM56.7 70.5c-3.5 1.1-6.7 3-9.3 5.5l-.1.1.2.1c1.5 1.1 3.1 2.1 4.7 2.9H52l.3.1c.9-3.1 2.5-5.9 4.5-8.3l.4-.4h-.5z"/></svg>