<svg version="1.1" id="Layer_1" xmlns="http://www.w3.org/2000/svg" x="0" y="0" viewBox="0 0 128 128" xml:space="preserve"><style>.st0{fill:#5b5b5b}.st2{fill:#46f8d6}</style><path class="st0" d="M126.8 128H1.2c-.7 0-1.2-.5-1.2-1.2s.5-1.2 1.2-1.2h125.6c.7 0 1.2.5 1.2 1.2s-.5 1.2-1.2 1.2zM62.7 107.8c-2.1 0-3.8-1.7-3.8-3.8V67c0-2.1 1.7-3.8 3.8-3.8h37.1c2.1 0 3.8 1.7 3.8 3.8v37c0 2.1-1.7 3.8-3.8 3.8H62.7zm0-42.3c-.8 0-1.5.7-1.5 1.4V104c0 .8.7 1.4 1.5 1.4h37.1c.8 0 1.4-.7 1.4-1.4V66.9c0-.8-.7-1.4-1.4-1.4H62.7z"/><path class="st0" d="M81.2 99.9c-8 0-14.4-6.5-14.4-14.4S73.2 71 81.2 71c7.9 0 14.4 6.5 14.4 14.4 0 8-6.4 14.5-14.4 14.5zm0-6.4c.7 0 1.2.5 1.2 1.2v2.7h.1c6.1-.7 10.7-5.8 10.7-12s-4.6-11.3-10.7-12h-.1v2.7c0 .7-.5 1.2-1.2 1.2s-1.2-.5-1.2-1.1v-2.7h-.1c-6.1.7-10.7 5.8-10.7 12s4.6 11.3 10.7 12h.1v-2.7c0-.8.6-1.3 1.2-1.3z"/><path class="st0" d="M75.9 89.3c-2.1 0-3.8-1.7-3.8-3.8s1.7-3.8 3.8-3.8c2.1 0 3.8 1.7 3.8 3.8.1 2.1-1.7 3.8-3.8 3.8zm0-5.3c-.8 0-1.4.7-1.4 1.4s.7 1.4 1.4 1.4c.8 0 1.4-.7 1.4-1.4s-.6-1.4-1.4-1.4z"/><path d="M86.5 89.3c-1 0-2-.4-2.7-1.1-1.1-1.1-1.4-2.8-.8-4.2s2-2.4 3.6-2.4c2.1 0 3.8 1.7 3.8 3.8 0 1.6-.9 3-2.4 3.6-.5.2-1 .3-1.5.3zm0-5.3c-.8 0-1.4.7-1.4 1.4s.7 1.4 1.4 1.4c.8 0 1.4-.7 1.4-1.4s-.6-1.4-1.4-1.4z" fill="#434345"/><path class="st0" d="M50.8 120.2c-6.5 0-11.8-5.3-11.8-11.8V107h-.1c-1.4 0-2.5-1.1-2.5-2.5v-2.8h-.1c-5 0-9.1-4.1-9.1-9.1V75.2h-.1c-1.4 0-2.5-1.1-2.5-2.5V70c0-1.4 1.1-2.5 2.5-2.5h2.8V54.2c0-2.1 1.7-3.8 3.9-3.8s3.8 1.7 3.8 3.8v13.4H43V54.2c0-2.1 1.7-3.8 3.8-3.8s3.8 1.7 3.8 3.8v13.4h2.8c1.4 0 2.5 1.1 2.5 2.5v2.7c0 1.4-1.1 2.5-2.5 2.5h-.1v17.3c0 5-4.1 9.1-9.1 9.1H44v2.8c0 1.4-1.1 2.5-2.5 2.5h-.1v1.4c0 5.2 4.2 9.4 9.4 9.4h51.6c.7 0 1.2.5 1.2 1.2s-.5 1.2-1.2 1.2H50.8zm-12.1-15.6h2.9v-2.9h-2.9v2.9zm-9.2-12c0 3.7 3 6.7 6.7 6.7h7.9c3.7 0 6.7-3 6.7-6.7V75.2H29.5v17.4zm17.3-39.9c-.8 0-1.5.7-1.5 1.5v13.4h2.9V54.2c0-.8-.6-1.5-1.4-1.5zm-13.2 0c-.8 0-1.5.7-1.5 1.5v13.4H35V54.2c0-.8-.6-1.5-1.4-1.5z"/><path class="st2" d="M26.8 69.9h26.7v2.9H26.8z"/><path class="st0" d="M75.7 89.8c-2.4 0-4.4-2-4.4-4.4 0-2.4 2-4.4 4.4-4.4s4.4 2 4.4 4.4c0 2.5-2 4.4-4.4 4.4z"/><path class="st2" d="M75.7 83.1c-1.3 0-2.4 1.1-2.4 2.4s1.1 2.4 2.4 2.4 2.4-1.1 2.4-2.4c-.1-1.4-1.1-2.4-2.4-2.4z"/><path class="st0" d="M86.5 89.8c-2.4 0-4.4-2-4.4-4.4 0-2.4 2-4.4 4.4-4.4s4.4 2 4.4 4.4-2 4.4-4.4 4.4z"/><path class="st2" d="M86.5 83.1c-1.3 0-2.4 1.1-2.4 2.4s1.1 2.4 2.4 2.4 2.4-1.1 2.4-2.4-1.1-2.4-2.4-2.4z"/><path class="st0" d="M102.3 113.9H64.5c-.7 0-1.2-.5-1.2-1.2s.5-1.2 1.2-1.2h37.8c.7 0 1.2.5 1.2 1.2s-.6 1.2-1.2 1.2z"/><circle class="st0" cx="60.1" cy="112.7" r="1.4"/><g><circle class="st0" cx="42.6" cy="92.8" r="2"/></g><g><circle class="st0" cx="60.4" cy="112.7" r="2"/></g><g><circle class="st0" cx="34.7" cy="92.8" r="2"/></g><g><circle class="st0" cx="34.7" cy="84.9" r="2"/></g></svg>