<svg xmlns="http://www.w3.org/2000/svg" fill="#f6931c" viewBox="0 0 511 168.47"><title>Asset 2</title><g id="Layer_2" data-name="Layer 2"><g id="Layer_1-2" data-name="Layer 1"><path d="M499.92,32a11.08,11.08,0,0,0-11.08,11.08v36.5a12.63,12.63,0,0,1-25.26,0V43.05a11.08,11.08,0,1,0-22.16,0v36.5a12.62,12.62,0,1,1-25.24,0V43.05a10.84,10.84,0,0,0-.13-1.62c0-.2-.05-.41-.09-.61a11.06,11.06,0,0,0-2.14-4.6l-.17-.22a6.29,6.29,0,0,0-.43-.47c-.09-.11-.18-.22-.28-.32s-.21-.19-.32-.28a6.29,6.29,0,0,0-.47-.43,11.31,11.31,0,0,0-3.87-2.06,11.26,11.26,0,0,0-1.65-.36A12.81,12.81,0,0,0,405.1,32H368.6a11.08,11.08,0,0,0,0,22.16H394V79.55h0a12.62,12.62,0,0,1-12.29,12.61H348a12.63,12.63,0,0,1-12.62-12.62,2.83,2.83,0,0,0,0-.29V43.05a11.08,11.08,0,1,0-22.16,0v36.5a12.62,12.62,0,1,1-25.24,0V43.05a11.08,11.08,0,1,0-22.16,0v36.5a12.63,12.63,0,0,1-25.25,0V43.05a11.09,11.09,0,0,0-22.17,0v36.5a12.62,12.62,0,1,1-25.23,0V43.05a11.09,11.09,0,0,0-22.17,0v36.5a12.63,12.63,0,0,1-25.25,0V11.08a11.08,11.08,0,1,0-22.16,0V79.55A34.77,34.77,0,0,0,182.09,105a34.71,34.71,0,0,0,47.4,0,34.74,34.74,0,0,0,47.42,0,34.7,34.7,0,0,0,47.4,0A34.64,34.64,0,0,0,348,114.34H381.4A34.66,34.66,0,0,0,405.11,105a34.7,34.7,0,0,0,47.39,0A34.78,34.78,0,0,0,511,79.55V43.05A11.08,11.08,0,0,0,499.92,32Z"/><path d="M91.87,32A11.08,11.08,0,0,0,80.79,43.05v36.5h0A12.62,12.62,0,0,1,68.51,92.17H34.8A12.63,12.63,0,0,1,22.18,79.56a2.83,2.83,0,0,0,0-.29V43.05A11.08,11.08,0,0,0,0,43.05v36.5c0,.2,0,.39,0,.59a34.81,34.81,0,0,0,34.77,34.2H68.17A34.82,34.82,0,0,0,103,79.56h0V43.05A11.08,11.08,0,0,0,91.87,32Z"/><path d="M51.48,22.16A11.08,11.08,0,0,0,62.56,11.08V10.4a11.09,11.09,0,0,0-22.15.68c0,.22,0,.43,0,.65A11.08,11.08,0,0,0,51.48,22.16Z"/><path d="M164.31,22.16h17.77a11.08,11.08,0,0,0,11.08-11.08V10.4A11.09,11.09,0,0,0,182.09,0H164.32a11.09,11.09,0,0,0-11.08,11.08c0,.22,0,.43,0,.65A11.08,11.08,0,0,0,164.31,22.16Z"/><path d="M362.62,146.31a11.08,11.08,0,0,0-11.08,11.08c0,.22,0,.43,0,.65a11.08,11.08,0,0,0,22.14-.65v-.68A11.09,11.09,0,0,0,362.62,146.31Z"/><path d="M467.32,22.16h17.77a11.08,11.08,0,0,0,11.08-11.08V10.4A11.09,11.09,0,0,0,485.1,0H467.33a11.09,11.09,0,0,0-11.08,11.08c0,.22,0,.43,0,.65A11.08,11.08,0,0,0,467.32,22.16Z"/><path d="M437.69,124.15H419.92a11.08,11.08,0,0,0-11.08,11.08c0,.22,0,.43,0,.65a11.08,11.08,0,0,0,11.06,10.43h17.77a11.08,11.08,0,0,0,11.08-11.08v-.68A11.09,11.09,0,0,0,437.69,124.15Z"/><path d="M371.51,124.15H353.73a11.08,11.08,0,0,0-11.07,11.08c0,.22,0,.43,0,.65a11.08,11.08,0,0,0,11.06,10.43H371.5a11.08,11.08,0,0,0,11.08-11.08v-.68A11.09,11.09,0,0,0,371.51,124.15Z"/></g></g></svg>