<svg xmlns="http://www.w3.org/2000/svg" viewBox="0 0 345 268.5"><defs><style>.cls-1{fill:#69a323;}.cls-2{fill:#f7931e;}</style></defs><title>Asset 1</title><g id="Layer_2" data-name="Layer 2"><g id="Layer_1-2" data-name="Layer 1"><circle class="cls-1" cx="26.17" cy="107.05" r="15.66"/><circle class="cls-1" cx="54.88" cy="128.7" r="15.66"/><circle class="cls-1" cx="47.3" cy="163.55" r="15.66"/><circle class="cls-1" cx="318.82" cy="107.05" r="15.66"/><circle class="cls-1" cx="290.12" cy="128.7" r="15.66"/><circle class="cls-1" cx="297.7" cy="163.55" r="15.66"/><path class="cls-2" d="M345,13.43,343.49,25a90,90,0,0,1-25.15,51.39,90,90,0,0,1-52.21,25.72l-3.74-29.48a60,60,0,0,0,34.86-17.16A59.4,59.4,0,0,0,311.2,33l-2.32-.56a99.38,99.38,0,0,0-44.68-.41c-12.35,2.8-20.84,7.66-23.9,13.68-1.83,3.58-2.33,8.77-1.51,15.44,3.77,30.53,15.61,59.81,27.4,87.19,5.87,13.6,13.16,30.53,14.63,49,1.65,20.77-4.84,43.72-17.81,56a56.58,56.58,0,0,1-39.08,15.16H121.07A56.58,56.58,0,0,1,82,253.34c-13-12.27-19.46-35.22-17.81-56,1.47-18.44,8.76-35.37,14.63-49C90.6,121,102.44,91.72,106.21,61.19c.82-6.67.32-11.86-1.51-15.44-3.06-6-11.55-10.88-23.9-13.68a99.38,99.38,0,0,0-44.68.41L33.8,33a59.4,59.4,0,0,0,14,22.43A60,60,0,0,0,82.61,72.63l-3.74,29.48A90,90,0,0,1,26.66,76.39,90,90,0,0,1,1.51,25L0,13.43,10.88,9.22A137.93,137.93,0,0,1,29.43,3.53a128.66,128.66,0,0,1,58-.43C108.79,8,123.94,18,131.18,32.26c4.63,9.08,6.1,19.74,4.52,32.57-4.26,34.43-17,66-29.61,95.31-5.25,12.19-11.21,26-12.29,39.56-.92,11.6,2.3,26.09,8.61,32.06,4.84,4.59,11.64,6.88,18.66,6.88h36.57V181.87H125.56V152.15h93.88v29.72H187.36v56.77h36.57c7,0,13.82-2.29,18.66-6.88,6.31-6,9.53-20.46,8.61-32.06-1.08-13.54-7-27.37-12.29-39.56-12.65-29.35-25.35-60.88-29.61-95.31-1.58-12.83-.11-23.49,4.52-32.57C221.06,18,236.21,8,257.62,3.1a128.66,128.66,0,0,1,57.95.43,137.93,137.93,0,0,1,18.55,5.69Z"/></g></g></svg>