<?xml version="1.0" standalone="no"?>
<!DOCTYPE svg PUBLIC "-//W3C//DTD SVG 20010904//EN"
 "http://www.w3.org/TR/2001/REC-SVG-20010904/DTD/svg10.dtd">
<svg version="1.0" xmlns="http://www.w3.org/2000/svg"
 width="690.000000pt" height="690.000000pt" viewBox="0 0 690.000000 690.000000"
 preserveAspectRatio="xMidYMid meet">
<metadata>
Created by potrace 1.11, written by Peter Selinger 2001-2013
</metadata>
<g transform="translate(0.000000,690.000000) scale(0.100000,-0.100000)"
fill="#000000" stroke="none">
<path d="M1009 6126 c-2 -2 -38 -7 -79 -10 -133 -12 -326 -49 -453 -85 -37
-11 -68 -20 -70 -20 -12 0 -164 -56 -175 -64 -6 -5 -12 -7 -12 -4 0 3 -48 -14
-108 -38 -126 -51 -115 -22 -86 -245 4 -30 8 -59 9 -65 1 -5 5 -28 9 -50 77
-419 289 -779 631 -1070 38 -32 231 -165 240 -165 4 0 21 -10 38 -22 18 -13
33 -22 34 -21 2 2 100 -40 158 -67 53 -25 228 -77 290 -86 17 -2 36 -6 43 -9
7 -2 32 -7 57 -11 41 -5 45 -4 46 15 1 12 2 24 3 29 1 4 6 41 10 82 5 41 10
84 12 95 2 11 6 40 9 65 3 25 8 65 11 90 9 64 12 88 18 151 l6 57 -67 12
c-149 26 -335 105 -471 200 -65 46 -175 148 -232 215 -28 33 -94 127 -95 135
-1 3 -11 21 -23 40 -40 64 -85 181 -73 193 6 6 11 8 11 4 0 -3 11 -2 24 3 13
5 44 12 67 15 24 4 62 10 84 15 133 28 477 31 599 5 12 -2 35 -6 51 -9 46 -6
164 -35 220 -53 57 -18 193 -81 212 -97 7 -6 30 -24 52 -41 50 -38 88 -96 108
-165 12 -43 14 -79 9 -170 -7 -125 -7 -133 -31 -265 -9 -50 -19 -103 -22 -119
-2 -16 -20 -88 -39 -160 -19 -72 -37 -142 -40 -155 -3 -14 -13 -50 -23 -80
-10 -31 -31 -94 -45 -141 -28 -86 -80 -238 -96 -275 -12 -29 -23 -58 -25 -70
-2 -5 -12 -30 -23 -55 -11 -25 -44 -106 -73 -180 -29 -74 -56 -137 -59 -140
-3 -3 -6 -10 -7 -16 -1 -7 -13 -36 -26 -65 -43 -98 -62 -143 -62 -149 -1 -3
-11 -27 -24 -55 -58 -128 -162 -411 -176 -485 -2 -8 -4 -15 -5 -15 -1 0 -4
-11 -6 -25 -3 -14 -9 -43 -15 -65 -14 -50 -14 -53 -28 -145 -40 -269 -26 -494
45 -740 28 -95 26 -90 85 -215 101 -215 241 -360 462 -478 64 -34 229 -95 279
-102 13 -2 48 -8 78 -14 71 -13 2339 -14 2395 -1 22 5 56 12 75 15 113 19 293
96 409 174 218 148 370 385 442 689 37 154 44 218 44 407 0 185 -7 249 -50
445 -8 36 -67 230 -84 275 -36 94 -114 290 -132 330 -43 95 -210 500 -254 615
-53 139 -162 457 -169 492 -2 13 -13 51 -24 86 -11 34 -18 62 -16 62 2 0 -1
12 -7 28 -11 27 -16 46 -25 92 -3 14 -7 33 -10 42 -3 9 -7 27 -9 40 -3 13 -9
46 -15 73 -14 71 -20 104 -26 150 -3 22 -9 59 -14 82 -4 23 -8 88 -8 145 -1
112 21 200 58 241 11 11 20 24 20 27 0 12 113 91 170 120 61 31 225 83 310 99
275 51 550 47 825 -12 55 -12 60 -16 58 -38 -3 -24 -91 -209 -118 -245 -71
-94 -142 -178 -183 -215 -66 -58 -121 -103 -135 -109 -19 -8 -71 -44 -78 -53
-3 -5 -9 -8 -13 -8 -3 1 -36 -14 -74 -32 -59 -30 -169 -70 -227 -84 -11 -2
-24 -5 -30 -7 -5 -1 -32 -6 -58 -11 l-49 -8 7 -56 c3 -31 8 -67 10 -81 8 -60
17 -128 20 -159 2 -19 6 -50 9 -70 3 -20 9 -61 12 -91 12 -107 13 -115 13
-124 1 -7 20 -6 119 10 18 3 56 12 85 20 29 8 61 16 72 19 38 9 160 54 220 81
33 15 62 28 65 29 18 4 120 63 200 115 399 261 674 673 775 1161 2 9 6 40 10
69 4 29 9 62 11 74 5 25 16 119 18 160 1 29 -3 31 -99 69 -55 21 -120 45 -145
54 -25 8 -54 18 -65 23 -31 13 -57 22 -90 30 -16 5 -62 18 -102 29 -84 24
-307 66 -413 77 -148 16 -528 9 -631 -11 -13 -3 -53 -10 -89 -15 -85 -14 -244
-56 -328 -87 -37 -14 -71 -26 -77 -27 -23 -5 -108 -47 -177 -87 -342 -198
-510 -494 -503 -884 3 -116 9 -185 31 -307 3 -18 7 -46 10 -63 2 -16 6 -41 9
-55 3 -14 8 -38 11 -55 2 -16 15 -70 26 -120 12 -49 22 -94 23 -100 1 -5 3
-12 4 -15 4 -7 9 -30 16 -65 3 -16 8 -37 11 -45 3 -8 14 -46 25 -85 21 -80 96
-311 135 -415 97 -262 169 -442 299 -745 118 -276 184 -453 211 -570 48 -209
52 -415 10 -570 -1 -5 -6 -26 -10 -45 -9 -41 -67 -173 -78 -178 -5 -2 -8 -10
-8 -17 0 -22 -107 -110 -172 -142 -106 -52 -147 -56 -574 -56 -215 0 -395 2
-400 5 -10 7 -11 1114 -1 1125 4 3 148 7 319 7 l313 1 3 296 2 296 -940 0
-940 0 0 -297 0 -297 320 1 c278 1 320 -1 321 -14 4 -82 0 -1112 -5 -1117 -8
-9 -768 -6 -826 2 -151 23 -280 111 -351 240 -23 41 -65 177 -79 255 -15 79
-20 265 -10 323 5 23 10 58 13 77 21 144 83 321 260 742 132 315 200 482 247
613 10 28 21 59 26 70 4 11 8 25 10 30 2 6 19 57 39 115 51 149 139 456 160
560 2 8 4 15 5 15 1 0 3 9 5 20 1 11 5 34 9 50 3 17 8 41 11 55 2 14 7 36 9
50 3 14 8 36 11 50 3 14 7 43 10 65 2 22 6 51 9 64 19 84 25 324 12 421 -51
379 -304 662 -734 819 -45 17 -93 33 -105 36 -12 2 -45 11 -74 19 -29 8 -65
17 -80 20 -15 2 -50 9 -78 15 -27 5 -77 13 -110 16 -33 4 -69 10 -80 12 -23 6
-440 14 -446 9z"/>
<path d="M508 4305 c-1 -2 -20 -6 -40 -9 -97 -15 -185 -85 -229 -180 -23 -52
-26 -72 -24 -136 3 -89 27 -149 82 -204 125 -125 301 -134 431 -20 111 97 138
246 69 384 -36 73 -142 147 -224 157 -21 2 -43 6 -50 8 -6 2 -13 2 -15 0z"/>
<path d="M6360 4303 c-91 -12 -168 -50 -220 -109 -105 -119 -98 -313 16 -427
124 -123 336 -118 452 12 52 58 76 121 76 201 0 41 -3 86 -7 98 -18 68 -105
170 -165 194 -44 17 -125 34 -152 31z"/>
<path d="M1000 3853 c-177 -61 -264 -260 -185 -427 83 -175 288 -234 451 -131
92 59 137 140 141 254 2 65 -2 83 -28 138 -20 41 -47 77 -79 105 -28 24 -53
43 -57 44 -5 0 -21 7 -38 14 -45 19 -152 21 -205 3z"/>
<path d="M5693 3848 c-184 -68 -257 -294 -152 -465 48 -78 151 -134 248 -136
78 -1 105 4 157 31 145 76 209 258 141 405 -69 150 -240 223 -394 165z"/>
<path d="M5917 3168 c-162 -21 -278 -157 -273 -318 10 -271 325 -401 524 -216
100 93 127 255 62 371 -65 117 -186 180 -313 163z"/>
<path d="M822 3145 c-29 -13 -59 -31 -68 -40 -8 -8 -19 -15 -22 -15 -8 0 -72
-95 -73 -107 -1 -5 -5 -16 -10 -26 -16 -29 -17 -136 -3 -185 71 -233 365 -301
532 -122 79 84 101 234 51 340 -54 114 -143 171 -274 177 -68 3 -88 -1 -133
-22z"/>
</g>
</svg>
