<svg xmlns="http://www.w3.org/2000/svg" width="105" height="92"><path fill="#FFF" d="M41.082 26.866c0 2.992-2.388 5.417-5.333 5.417-2.946 0-5.334-2.425-5.334-5.417s2.388-5.417 5.334-5.417c2.945 0 5.333 2.425 5.333 5.417M73.102 26.866c0 2.992-2.387 5.417-5.332 5.417s-5.334-2.425-5.334-5.417 2.389-5.417 5.334-5.417 5.332 2.425 5.332 5.417"/><path fill="none" stroke="#666" stroke-width="2" stroke-linecap="round" stroke-linejoin="round" stroke-miterlimit="10" d="M51.846 24.501v50.177"/><path fill="#37FAD7" d="M68.43 54.422h-2.154c-4.828 0-8.779-3.951-8.779-8.78V40.98c0-4.829 3.951-8.78 8.779-8.78h2.154c4.828 0 8.778 3.951 8.778 8.78v4.662c.001 4.829-3.95 8.78-8.778 8.78"/><path fill="none" stroke="#666" stroke-width="2" stroke-linecap="round" stroke-linejoin="round" stroke-miterlimit="10" d="M68.43 54.422h-2.154c-4.828 0-8.779-3.951-8.779-8.78V40.98c0-4.829 3.951-8.78 8.779-8.78h2.154c4.828 0 8.778 3.951 8.778 8.78v4.662c.001 4.829-3.95 8.78-8.778 8.78z"/><path fill="#37FAD7" d="M72.852 42.256v32h-11v-32"/><path fill="none" stroke="#666" stroke-width="2" stroke-linecap="round" stroke-linejoin="round" stroke-miterlimit="10" d="M72.852 42.256v32h-11v-32M67.352 54.521v19.156"/><circle fill="none" stroke="#666" stroke-width="2" stroke-miterlimit="10" cx="67.352" cy="27.074" r="5"/><path fill="#37FAD7" d="M36.409 54.422h-2.154c-4.829 0-8.78-3.951-8.78-8.78V40.98c0-4.829 3.951-8.78 8.78-8.78h2.154c4.829 0 8.78 3.951 8.78 8.78v4.662c0 4.829-3.951 8.78-8.78 8.78"/><path fill="none" stroke="#666" stroke-width="2" stroke-linecap="round" stroke-linejoin="round" stroke-miterlimit="10" d="M36.409 54.422h-2.154c-4.829 0-8.78-3.951-8.78-8.78V40.98c0-4.829 3.951-8.78 8.78-8.78h2.154c4.829 0 8.78 3.951 8.78 8.78v4.662c0 4.829-3.951 8.78-8.78 8.78z"/><path fill="none" stroke="#666" stroke-width="2" stroke-miterlimit="10" d="M38.83 57.266v16.991h-6.996V57.266"/><path fill="#37FAD7" d="M40.832 42.256l4.003 21.994H25.829l4.003-21.994"/><path fill="none" stroke="#666" stroke-width="2" stroke-linecap="round" stroke-linejoin="round" stroke-miterlimit="10" d="M40.832 42.256l4.003 21.994H25.829l4.003-21.994"/><circle fill="none" stroke="#666" stroke-width="2" stroke-miterlimit="10" cx="35.332" cy="27.074" r="5"/><g opacity=".2" fill="#434345"><path d="M24.381 13.042a.9.9 0 01-.9-.9V1.9a.9.9 0 011.8 0v10.242a.9.9 0 01-.9.9"/><path d="M18.36 7.021a.9.9 0 01.9-.9h10.244a.9.9 0 010 1.8H19.26a.9.9 0 01-.9-.9"/></g><g opacity=".2" fill="#434345"><path d="M92.791 48.943a.895.895 0 010-1.271l7.241-7.242a.9.9 0 011.272 1.273l-7.242 7.24a.894.894 0 01-1.271 0"/><path d="M92.79 40.43a.898.898 0 011.272 0l7.244 7.242a.898.898 0 010 1.271.897.897 0 01-1.273 0l-7.243-7.241a.899.899 0 010-1.272"/></g><circle opacity=".2" fill="none" stroke="#434345" stroke-width="2" stroke-miterlimit="10" cx="6.618" cy="24.286" r="5.118"/></svg>