<svg xmlns="http://www.w3.org/2000/svg" width="102" height="100"><path fill="none" stroke="#666" stroke-width="2" stroke-miterlimit="10" d="M72.089 77.035H32.087c-2.75 0-5-2.25-5-5v-40c0-2.75 2.25-5 5-5h40.002"/><path fill="#37FAD7" d="M52.251 85.867l-5.333-3.002-5 3.002v-15.5h10.333z"/><path fill="none" stroke="#666" stroke-width="2" stroke-linecap="round" stroke-linejoin="round" stroke-miterlimit="10" d="M52.251 85.867l-5.333-3.002-5 3.002v-15.5h10.333zM57.706 37.654l-3.539-3.156-3.539 3.156-3.538-3.156-3.541 3.156-3.543-3.156-3.543 3.156M33.002 44.2h28.164M33.002 48.537h28.164M36.505 52.871h21.159"/><path fill="#37FAD7" d="M47.079 57.717c-4.189 0-7.582 3.404-7.582 7.594s3.393 7.594 7.582 7.594c4.2 0 7.594-3.403 7.594-7.594a7.592 7.592 0 00-7.594-7.594m0 10.896a3.3 3.3 0 01-3.302-3.303 3.302 3.302 0 013.302-3.304 3.305 3.305 0 013.314 3.304 3.302 3.302 0 01-3.314 3.303"/><path fill="none" stroke="#666" stroke-width="2" stroke-linecap="round" stroke-linejoin="round" stroke-miterlimit="10" d="M47.079 57.717c-4.189 0-7.582 3.404-7.582 7.594s3.393 7.594 7.582 7.594c4.2 0 7.594-3.403 7.594-7.594a7.592 7.592 0 00-7.594-7.594zm0 10.896a3.3 3.3 0 01-3.302-3.303 3.302 3.302 0 013.302-3.304 3.305 3.305 0 013.314 3.304 3.302 3.302 0 01-3.314 3.303z"/><path fill="none" stroke="#666" stroke-width="2" stroke-miterlimit="10" d="M67.096 35.618l.002 32.829h9.979v3.59c0 2.74-2.239 4.99-4.979 5h-.021c-2.739-.01-4.979-2.26-4.979-5V32.038c0-2.75 2.239-4.99 4.989-5 2.75.01 4.989 2.25 4.989 5v3.58h-9.98z"/><g opacity=".2" fill="#434345"><path d="M29.881 12.042a.9.9 0 01-.899-.9V.9a.9.9 0 111.799 0v10.242a.899.899 0 01-.9.9"/><path d="M23.86 6.021a.9.9 0 01.9-.9h10.244a.9.9 0 010 1.8H24.76a.9.9 0 01-.9-.9"/></g><g opacity=".2" fill="#434345"><path d="M83.124 56.279a.895.895 0 010-1.271l7.242-7.242a.893.893 0 011.271 0 .893.893 0 010 1.271l-7.24 7.242a.901.901 0 01-1.273 0"/><path d="M83.124 47.764a.897.897 0 011.271 0l7.244 7.242a.9.9 0 01-1.272 1.273l-7.242-7.244a.894.894 0 01-.001-1.271"/></g><circle opacity=".2" fill="none" stroke="#434345" stroke-width="2" stroke-miterlimit="10" cx="12.119" cy="23.287" r="5.118"/></svg>