<svg version="1.1" id="Layer_1" xmlns="http://www.w3.org/2000/svg" x="0" y="0" viewBox="0 0 128 128" xml:space="preserve"><style>.st0{fill:#5b5b5b}</style><path class="st0" d="M126.8 128H1.2c-.7 0-1.2-.5-1.2-1.2s.5-1.2 1.2-1.2h125.6c.7 0 1.2.5 1.2 1.2s-.5 1.2-1.2 1.2zM73.4 115.6L52.1 99.5l6.7-8.7 16.3 9.5-1.7 15.3zM55.4 99l16 12.1 1-9.5-13.1-7.7-3.9 5.1z"/><path class="st0" d="M53.5 100.7h-.2l-4.9-.8c-.6-.1-1.1-.7-1-1.4 0-.2.1-.4.2-.5l9-11.7c.3-.3.7-.5 1.1-.5.4.1.8.3.9.7l1.8 4.7c.1.4.1.8-.2 1.2l-6 7.8c0 .3-.3.5-.7.5zm-2.8-2.9l2.2.4 5.1-6.7-.8-2.1-6.5 8.4zM105.6 128H74c-2.2 0-3.9-1.8-3.9-3.9v-.4l3.8-34.5c.2-2 1.9-3.5 3.9-3.5h24.1c.7 0 1.2.5 1.2 1.2s-.5 1.2-1.2 1.2H77.7c-.8 0-1.4.6-1.5 1.3l-3.8 34.5c-.1.8.5 1.6 1.4 1.7H105.5c.8 0 1.5-.7 1.5-1.5v-.1l-3.5-32.1c-.1-.7.4-1.3 1-1.3.7-.1 1.3.4 1.3 1v.1l3.5 32.1c.2 2.1-1.3 4.1-3.5 4.3.1-.1-.1-.1-.2-.1z"/><path class="st0" d="M106.4 108.6c-.7 0-1.2-.6-1.2-1.2 0-.5.3-1 .8-1.1l3.8-1.2c.7-.2 1.2-.9 1.2-1.6v-7.3c0-1.9-1.5-3.4-3.4-3.4h-10c-.7 0-1.2-.5-1.2-1.2s.5-1.2 1.2-1.2h10.2c3.2 0 5.8 2.6 5.8 5.8v7.3c0 1.8-1.2 3.4-2.9 3.9l-3.8 1.2h-.5z"/><path class="st0" d="M107.1 113.7c-.7 0-1.2-.5-1.2-1.2 0-.6.4-1 .9-1.2l4.8-1.3c2.7-.7 4.5-3.1 4.5-5.9V95c0-3.8-3.1-6.9-6.9-6.9h-7.9c-.7 0-1.2-.5-1.2-1.2s.5-1.2 1.2-1.2h7.9c5.1 0 9.3 4.2 9.3 9.3v9.2c0 3.8-2.6 7.2-6.3 8.2l-4.7 1.3h-.4zM107.8 122.5h-36c-.7 0-1.2-.5-1.2-1.2s.5-1.2 1.2-1.2h36.1c.7 0 1.2.5 1.2 1.2-.1.7-.6 1.2-1.3 1.2zM92.6 92.8h-2.8c-.7 0-1.2-.5-1.2-1.2s.5-1.2 1.2-1.2h2.8c.7 0 1.2.5 1.2 1.2s-.5 1.2-1.2 1.2z"/><circle class="st0" cx="96.8" cy="111.7" r="1.4"/><circle class="st0" cx="91.3" cy="111.7" r="1.4"/><circle class="st0" cx="102.3" cy="111.7" r="1.4"/><circle class="st0" cx="96.8" cy="117.2" r="1.4"/><circle class="st0" cx="102.3" cy="117.2" r="1.4"/><circle class="st0" cx="91.3" cy="117.2" r="1.4"/><circle class="st0" cx="85.7" cy="117.2" r="1.4"/><circle class="st0" cx="84.8" cy="91.6" r="1.2"/><path class="st0" d="M53.5 127.4c-.5 0-.9-.3-1.1-.7-1-2.3-3.7-3.3-5.9-2.3-.2.1-.3.2-.5.3-.6.3-1.3.2-1.6-.4-.1-.2-.2-.5-.2-.7v-.2c0-1.5-1.2-2.7-2.6-2.7-.8 0-1.5.3-2 .9-.2.3-.6.4-1 .4s-.7-.2-.9-.5c-2.3-3.3-6.9-4.2-10.2-1.9-1.4.9-2.4 2.3-2.9 4-.1.4-.4.7-.8.8-.4.1-.8 0-1.1-.3-1.5-1.4-4-1.4-5.4.2-.3.3-.5.6-.7 1l-.8 1.6c-.3.6-1 .9-1.6.6-.6-.3-.9-1-.6-1.6 0 0 0-.1.1-.1l.8-1.6c1.5-3.1 5.2-4.4 8.3-2.8.1 0 .1 0 .1.1 2.4-4.8 8.3-6.8 13.1-4.4 1.1.5 2 1.2 2.8 2.1 2.4-1.5 5.5-.8 7 1.5.3.4.5.9.6 1.3.6-.2 1.3-.3 1.9-.3 2.7 0 5.2 1.6 6.3 4.1.3.6 0 1.3-.6 1.6h-.5z"/><path d="M31.2 40.9c7.3 0 13.3 6 13.3 13.3v33.1c0 7.3-6 13.3-13.3 13.3-7.3 0-13.3-6-13.3-13.3V54.2c0-7.4 6-13.3 13.3-13.3z" fill="#46f9d7"/><path class="st0" d="M31.2 101.7c-8 0-14.5-6.5-14.5-14.5v-33c0-8 6.5-14.5 14.5-14.5s14.5 6.5 14.5 14.5v33.1c0 7.9-6.5 14.4-14.5 14.4zm0-59.6c-6.7 0-12.1 5.4-12.1 12.1v33.1c.3 6.7 6 11.8 12.7 11.5 6.2-.4 11.2-5.3 11.5-11.6v-33c0-6.7-5.4-12.1-12.1-12.1z"/><path class="st0" d="M31.2 92.1c-5.7 0-10.3-4.6-10.3-10.3 0-.7.5-1.2 1.2-1.2s1.2.5 1.2 1.2c0 4.3 3.5 7.9 7.9 7.9s7.9-3.5 7.9-7.9c0-.7.5-1.2 1.2-1.2s1.2.5 1.2 1.2c-.1 5.7-4.6 10.3-10.3 10.3zM31.2 76.9c-4.8 0-8.7-3.9-8.7-8.7 0-.7.5-1.2 1.2-1.2s1.2.5 1.2 1.2c0 3.5 2.8 6.4 6.4 6.4s6.4-2.8 6.4-6.4c0-.7.5-1.2 1.2-1.2s1.2.5 1.2 1.2c-.2 4.8-4.1 8.7-8.9 8.7zM31.2 61.6c-3.9 0-7.1-3.2-7.1-7.1 0-.7.5-1.2 1.2-1.2s1.2.5 1.2 1.2c0 2.6 2.1 4.7 4.7 4.7s4.7-2.1 4.7-4.7c0-.7.5-1.2 1.2-1.2s1.2.5 1.2 1.2c0 4-3.2 7.1-7.1 7.1z"/><path class="st0" d="M31.2 118c-.7 0-1.2-.5-1.2-1.2V50.3c0-.7.5-1.2 1.2-1.2s1.2.5 1.2 1.2v66.5c0 .7-.5 1.2-1.2 1.2zM39.9 123.7c-.4 0-.8-.2-1-.6-.7-1-1.4-1.9-2.2-2.8-.4-.5-.2-1.3.3-1.7.5-.3 1.1-.3 1.5.1.9 1 1.8 2.1 2.5 3.2.3.6.1 1.3-.5 1.6-.2.1-.4.2-.6.2z"/></svg>