<svg xmlns="http://www.w3.org/2000/svg" width="131" height="100"><path fill="#46F9D7" d="M42.42 2.237h44.064v8.208H42.42z"/><path fill="#434345" d="M88.95 36.329c-.438-.062-.738-.479-.738-.922v-24.53h-47.52v43.764c0 .43-.294.828-.719.897a.864.864 0 01-1.009-.853V10.013c0-.477.386-.864.864-.864h49.248c.479 0 .863.387.863.864v25.461c0 .518-.457.93-.989.855"/><path fill="#434345" d="M83.766 36.329c-.438-.062-.738-.479-.738-.922V16.061H45.876v41.46c0 .431-.295.828-.719.897a.864.864 0 01-1.009-.853v-42.37c0-.477.386-.864.863-.864h38.881c.477 0 .863.387.863.864v20.277a.864.864 0 01-.989.857"/><path fill="#434345" d="M52.788 61.313a.864.864 0 01-.864-.863V16.494a.864.864 0 111.728 0V60.45a.864.864 0 01-.864.863M60.563 65.156a.864.864 0 01-.864-.864V16.493a.864.864 0 011.728 0v47.799a.862.862 0 01-.864.864M68.339 69.959a.863.863 0 01-.864-.863V16.493a.864.864 0 111.728 0v52.603a.863.863 0 01-.864.863M75.99 36.329c-.438-.062-.738-.479-.738-.922V16.539c0-.43.295-.829.719-.898a.864.864 0 011.01.852v18.981a.866.866 0 01-.991.855"/><path fill="#434345" d="M82.596 23.837H46.308a.864.864 0 010-1.728h36.288a.863.863 0 110 1.728M82.596 31.613H46.308a.864.864 0 010-1.728h36.288a.863.863 0 110 1.728M68.186 39.389H46.308a.864.864 0 010-1.728h21.877a.863.863 0 11.001 1.728M68.186 47.165H46.308a.864.864 0 010-1.728h21.877a.863.863 0 11.001 1.728M68.186 54.941H46.308a.864.864 0 110-1.728h21.877a.863.863 0 11.001 1.728M68.186 62.945H56.313a.864.864 0 010-1.727h11.873a.864.864 0 110 1.727M86.484 9.581a.863.863 0 01-.864-.864V3.101H43.284v5.616a.864.864 0 01-1.728 0v-6.48c0-.477.387-.864.864-.864h44.064c.477 0 .863.387.863.864v6.48a.863.863 0 01-.863.864"/><path fill="#46F9D7" d="M68.212 30.521h31.104v5.184H68.212z"/><path fill="#434345" d="M99.462 98.23c.425-.068.72-.469.72-.897V30.521a.865.865 0 00-.865-.864H68.213a.862.862 0 00-.863.864v35.17c.762.867 1.728.34 1.728-.414V31.385h29.376v65.994a.862.862 0 001.008.851"/><path fill="#434345" d="M69.509 36.569h28.513a.863.863 0 000-1.728H69.509a.864.864 0 100 1.728M83.766 45.106a.863.863 0 00.863-.864V41.65a.865.865 0 00-1.728 0v2.592a.863.863 0 00.865.864M75.988 45.106a.864.864 0 00.865-.864V41.65a.865.865 0 00-1.728 0v2.592c0 .478.387.864.863.864M91.541 45.106a.862.862 0 00.863-.864V41.65a.864.864 0 00-1.726 0v2.592a.862.862 0 00.863.864M83.766 55.475a.863.863 0 00.863-.863V52.02a.865.865 0 10-1.728 0v2.592a.864.864 0 00.865.863M75.988 55.475a.864.864 0 00.865-.863V52.02a.865.865 0 10-1.728 0v2.592c0 .476.387.863.863.863M91.541 55.475a.862.862 0 00.863-.863V52.02a.864.864 0 10-1.726 0v2.592a.863.863 0 00.863.863M83.766 98.243a.864.864 0 00.863-.864v-5.186a.863.863 0 00-1.728 0v5.186a.864.864 0 00.865.864M83.766 65.843a.863.863 0 00.863-.864v-2.592a.864.864 0 00-1.728 0v2.592a.864.864 0 00.865.864M75.988 65.843a.864.864 0 00.865-.864v-2.592a.864.864 0 00-1.728 0v2.592c0 .477.387.864.863.864M91.541 65.843a.862.862 0 00.863-.864v-2.592a.863.863 0 00-1.726 0v2.592a.863.863 0 00.863.864M83.766 76.211a.863.863 0 00.863-.863v-2.593a.864.864 0 00-1.728 0v2.593a.864.864 0 00.865.863M75.988 76.211a.864.864 0 00.865-.863v-2.593a.864.864 0 00-1.728 0v2.593c0 .476.387.863.863.863M91.541 76.211a.862.862 0 00.863-.863v-2.593a.863.863 0 10-1.726 0v2.593a.863.863 0 00.863.863M83.766 86.579a.864.864 0 00.863-.864v-2.592a.863.863 0 10-1.728 0v2.592a.864.864 0 00.865.864M75.988 86.579a.864.864 0 00.865-.864v-2.592a.864.864 0 10-1.728 0v2.592c0 .476.387.864.863.864M91.541 86.579a.863.863 0 00.863-.864v-2.592a.863.863 0 10-1.726 0v2.592a.863.863 0 00.863.864"/><path fill="#434345" d="M75.988 98.243a.864.864 0 00.865-.864v-5.615h13.823v5.615a.865.865 0 001.727 0v-6.48a.863.863 0 00-.864-.862H75.988a.863.863 0 00-.863.862v6.48c0 .476.387.864.863.864M115.421 98.184a.864.864 0 01-.864-.863V77.88a.865.865 0 011.728 0v19.44a.864.864 0 01-.864.864"/><path fill="#434345" d="M115.421 88.247c-5.717 0-10.368-4.651-10.368-10.368s4.651-10.368 10.368-10.368c5.718 0 10.368 4.651 10.368 10.368s-4.65 10.368-10.368 10.368m0-19.008c-4.764 0-8.64 3.876-8.64 8.64s3.876 8.641 8.64 8.641c4.765 0 8.64-3.877 8.64-8.641s-3.875-8.64-8.64-8.64"/><path fill="#434345" d="M115.421 83.495a5.623 5.623 0 01-5.616-5.616.865.865 0 011.728 0 3.892 3.892 0 003.888 3.889 3.891 3.891 0 003.888-3.889.865.865 0 011.728 0 5.62 5.62 0 01-5.616 5.616"/><path fill="#46F9D7" d="M9.314 67.818l31.537-15.015 31.536 15.015v4.026h-4.321v-1.296l-27.215-12.96-27.216 12.96v1.296H9.314z"/><path fill="#434345" d="M68.253 97.145a.862.862 0 01-.862-.863V70.906L41.038 58.357 14.686 70.906v25.373a.864.864 0 11-1.728 0v-25.92c0-.332.192-.637.492-.779l27.216-12.96a.864.864 0 01.743 0l27.216 12.96a.862.862 0 01.493.779v25.92a.866.866 0 01-.865.866"/><path fill="#434345" d="M72.574 72.521h-4.32a.865.865 0 01-.863-.864v-.75l-26.353-12.55-26.352 12.549v.75a.863.863 0 01-.864.863h-4.32a.865.865 0 01-.864-.863v-4.027c0-.37.233-.686.561-.809l31.467-14.985a.864.864 0 01.743 0l31.536 15.019a.861.861 0 01.492.778v4.024a.864.864 0 01-.863.865m-3.456-1.729h2.592v-2.614L41.038 53.572 10.366 68.178v2.614h2.592v-.433c0-.332.192-.637.492-.779l27.216-12.96a.864.864 0 01.743 0l27.216 12.96a.862.862 0 01.493.779v.433zM50.11 85.479H31.966a.864.864 0 110-1.726H50.11a.864.864 0 010 1.726"/><path fill="#434345" d="M47.518 97.145a.865.865 0 01-.864-.863v-10.37a.863.863 0 111.728 0v10.367a.865.865 0 01-.864.866M34.558 97.145a.865.865 0 01-.864-.863v-10.37a.863.863 0 111.728 0v10.367a.865.865 0 01-.864.866M34.558 80.296h-12.96a.864.864 0 01-.864-.864v-7.774c0-.478.387-.864.864-.864h12.96c.477 0 .864.387.864.864v7.774a.864.864 0 01-.864.864m-12.096-1.728h11.232V72.52H22.462v6.048zM60.478 80.296h-12.96a.864.864 0 01-.864-.864v-7.774c0-.478.387-.864.864-.864h12.96c.477 0 .864.387.864.864v7.774a.864.864 0 01-.864.864m-12.096-1.728h11.232V72.52H48.382v6.048z"/><path fill="#434345" d="M126.73 98.627H4.343a.864.864 0 010-1.726H126.73a.864.864 0 110 1.726M39.102 92.393a1.296 1.296 0 11-2.592.002 1.296 1.296 0 012.592-.002M64.366 87.208a1.296 1.296 0 11-2.591 0 1.296 1.296 0 012.591 0M64.366 92.393a1.296 1.296 0 11-2.592.002 1.296 1.296 0 012.592-.002M59.182 87.208a1.296 1.296 0 11-2.591 0 1.296 1.296 0 012.591 0M59.182 92.393a1.296 1.296 0 11-2.592.002 1.296 1.296 0 012.592-.002M53.998 92.393a1.296 1.296 0 11-2.592.002 1.296 1.296 0 012.592-.002"/><g opacity=".2" fill="#434345"><path d="M21.82 32.802a.9.9 0 01-.9-.9V21.66a.9.9 0 011.8 0v10.242c0 .496-.404.9-.9.9"/><path d="M15.798 26.781a.9.9 0 01.9-.9h10.244a.9.9 0 010 1.8H16.698a.9.9 0 01-.9-.9"/></g><circle opacity=".2" fill="none" stroke="#434345" stroke-width="2" stroke-miterlimit="10" cx="9.522" cy="40.494" r="5.118"/></svg>