<svg version="1.1" id="Layer_1" xmlns="http://www.w3.org/2000/svg" x="0" y="0" viewBox="0 0 128 128" xml:space="preserve"><style>.st0{fill:#5b5b5b}.st1{fill:#46f9d7}</style><path class="st0" d="M126.8 128H1.2c-.7 0-1.2-.5-1.2-1.2s.5-1.2 1.2-1.2h125.6c.7 0 1.2.5 1.2 1.2s-.5 1.2-1.2 1.2z"/><g id="Layer_1_1_"><path class="st0" d="M70.3 128.2h-43c-1.2 0-2.2-1-2.2-2.2V84.1h47.5V126c-.1 1.2-1.1 2.2-2.3 2.2zm-42.8-2.4h42.6V86.6H27.5v39.2z"/><path class="st0" d="M72.5 86.4H25v-1.2c.1-13 10.8-23.5 23.7-23.5 13 0 23.6 10.6 23.7 23.5l.1 1.2zm-45-2.4H70c-.7-11.1-10-19.9-21.2-19.9S28.3 72.9 27.5 84z"/><path class="st1" d="M24.3 85.3h48.9c.4 0 .7.3.7.7v4c0 .4-.3.7-.7.7H24.3c-.4 0-.7-.3-.7-.7v-3.9c0-.4.3-.8.7-.8z"/><path class="st0" d="M73.3 91.9h-49c-1.1 0-1.9-.9-1.9-1.9v-3.9c0-1.1.9-1.9 1.9-1.9h48.9c1.1 0 1.9.9 1.9 1.9V90c.1 1-.8 1.9-1.8 1.9zm-48.5-2.4h48v-2.9h-48v2.9z"/><path class="st0" d="M46.7 118.1c-3.8 0-6.9-3.1-6.9-6.9v-14c0-.8-.7-1.5-1.5-1.5-.9 0-1.5.7-1.5 1.5v6.5c0 3.2-2.6 5.8-5.8 5.8-3.2 0-5.8-2.6-5.8-5.8v-13h2.4v12.9c0 1.9 1.5 3.4 3.4 3.4s3.4-1.5 3.4-3.4v-6.5c0-2.2 1.8-4 4-4s4 1.8 4 4v14.1c0 2.4 2 4.4 4.4 4.4 2.4 0 4.4-2 4.4-4.4v-10.8c0-2.9 2.4-5.3 5.3-5.3s5.3 2.4 5.3 5.3v3.1c0 1.2.9 2.1 2.1 2.1.6 0 1.1-.2 1.5-.6.4-.4.6-.9.6-1.5v-4.9c0-1.9 1.6-3.5 3.5-3.5h.7v-2.9h2.4v5.4h-3.2c-.6 0-1 .5-1 1v4.9c0 1.2-.5 2.4-1.3 3.2-.9.9-2 1.3-3.2 1.3-2.5 0-4.6-2-4.6-4.5v-3.1c0-1.6-1.3-2.8-2.8-2.8-1.6 0-2.8 1.3-2.8 2.8v10.8c-.2 3.8-3.2 6.9-7 6.9zM96.6 68.9h-10c-.7 0-1.2-.5-1.2-1.2s.5-1.2 1.2-1.2h10c.7 0 1.2.5 1.2 1.2s-.5 1.2-1.2 1.2z"/><path class="st0" d="M107.3 68.5v20h-2.5v-.8H82.5v.8H80v-20c0-1 .8-1.9 1.9-2h2.8c.7 0 1.2.5 1.2 1.2s-.5 1.2-1.2 1.2h-2.2V86H105V68.9h-4.7v2.3c0 .7-.5 1.2-1.2 1.2s-1.2-.5-1.2-1.2v-2.4c0-1.3 1-2.3 2.3-2.3h5.2c1.1 0 1.9.9 1.9 2z"/><path class="st0" d="M80 85.1V88.4c.1 3.3 2.9 6 6.2 6H101c3.4 0 6.1-2.7 6.2-6V85.1H80zm21 6.9H86.3c-2 0-3.7-1.6-3.8-3.6v-.8h22.4v.8c-.2 2-1.8 3.6-3.9 3.6z"/><path class="st0" d="M86.8 87.2c-.7 0-1.2-.5-1.2-1.2v-4.1c0-.7.5-1.2 1.2-1.2s1.2.5 1.2 1.2V86c.1.6-.5 1.2-1.2 1.2zM96.5 87.2c-.7 0-1.2-.5-1.2-1.2v-2.6c0-.7.5-1.2 1.2-1.2s1.2.5 1.2 1.2V86c0 .6-.5 1.2-1.2 1.2zM100.4 87.3c-.7 0-1.2-.5-1.2-1.2v-6.4c0-.7.5-1.2 1.2-1.2s1.2.5 1.2 1.2V86c.1.7-.5 1.3-1.2 1.3zM84.9 79c-2.7 0-4.9-2.2-4.9-4.9V70c0-.7.5-1.2 1.2-1.2s1.2.5 1.2 1.2v4.1c0 1.3 1.1 2.4 2.4 2.4s2.4-1.1 2.4-2.4v-.7c0-1.7 1.4-3 3-3 1.7 0 3.1 1.4 3.1 3v.2c0 .5.4.9.9.9s.9-.4.9-.9V69h-1.6c-.7 0-1.2-.5-1.2-1.2s.5-1.2 1.2-1.2h4v7c0 1.9-1.5 3.4-3.4 3.4s-3.4-1.5-3.4-3.4v-.2c0-.3-.3-.6-.6-.6s-.6.3-.6.6v.7c.3 2.7-1.9 4.9-4.6 4.9zM91.1 93.3V107h5.1V93.3h-5.1zm3.9 12.5h-2.7V94.5H95v11.3z"/><path class="st0" d="M89.9 92.1v16.2h7.6V92.1h-7.6zm5.1 13.7h-2.7V94.5H95v11.3z"/><path class="st1" d="M89.8 98.6h7.6c.3 0 .5.2.5.5v13.4c0 2.1-1.7 3.7-3.7 3.7H93c-2.1 0-3.7-1.7-3.7-3.7V99.1c0-.2.2-.5.5-.5z"/><path class="st0" d="M94.2 117.5H93c-2.7 0-5-2.2-5-5V99.1c0-.9.8-1.7 1.7-1.7h7.7c.9 0 1.7.8 1.7 1.7v13.4c0 2.8-2.2 5-4.9 5zm-3.7-17.6v12.7c0 1.4 1.1 2.5 2.5 2.5h1.1c1.4 0 2.5-1.1 2.5-2.5V99.9h-6.1z"/><circle class="st0" cx="93.6" cy="103.9" r="1.6"/><circle class="st0" cx="93.6" cy="109.5" r="1.6"/><g><path class="st0" d="M57.5 121.5c0 .7-.6 1.3-1.3 1.3h-4c-.7 0-1.3-.6-1.3-1.3 0-.7.6-1.3 1.3-1.3h4c.7-.1 1.3.5 1.3 1.3z"/></g><g><path class="st0" d="M67.6 121.5c0 .7-.6 1.3-1.3 1.3h-4c-.7 0-1.3-.6-1.3-1.3 0-.7.6-1.3 1.3-1.3h4c.7-.1 1.3.5 1.3 1.3z"/></g><g><path class="st0" d="M67.6 115.3c0 .7-.6 1.3-1.3 1.3h-4c-.7 0-1.3-.6-1.3-1.3 0-.7.6-1.3 1.3-1.3h4c.7 0 1.3.6 1.3 1.3z"/></g></g></svg>