<svg version="1.1" id="Layer_1" xmlns="http://www.w3.org/2000/svg" x="0" y="0" viewBox="0 0 128 128" xml:space="preserve"><style>.st0{fill:#5b5b5b}.st1{fill:#46f8d6}</style><path class="st0" d="M126.8 128H1.2c-.7 0-1.2-.5-1.2-1.2s.5-1.2 1.2-1.2h125.6c.7 0 1.2.5 1.2 1.2s-.5 1.2-1.2 1.2z"/><path class="st0" d="M81.4 48.4h-36c-3.5 0-6.3 2.8-6.3 6.3v67c0 3.5 2.8 6.3 6.3 6.3v-.1h36c3.5 0 6.3-2.8 6.3-6.3V54.7c0-3.5-2.8-6.3-6.3-6.3zm-40 6.4c0-2.2 1.8-4 4-4h36c2.2 0 4 1.8 4 4v4h-44v-4zm44.1 66.9c0 2.2-1.8 4-4 4h-36c-2.2 0-4-1.8-4-4v-6.5h44v6.5zm0-8.9h-44V61.1h44v51.7z"/><path class="st0" d="M57 55.9c-.7 0-1.2-.5-1.2-1.2s.5-1.2 1.2-1.2h11.6c.7 0 1.2.5 1.2 1.2s-.5 1.2-1.2 1.2H57zM72.5 55.9c-.7 0-1.2-.5-1.2-1.2s.5-1.2 1.2-1.2h1.3c.7 0 1.2.5 1.2 1.2s-.5 1.2-1.2 1.2h-1.3zM63.5 124.1c-2.1 0-3.8-1.7-3.8-3.8 0-2.1 1.7-3.8 3.8-3.8s3.8 1.7 3.8 3.8c-.1 2.1-1.8 3.8-3.8 3.8zm0-5.1c-.8 0-1.4.6-1.4 1.4s.6 1.4 1.4 1.4 1.4-.6 1.4-1.4-.7-1.4-1.4-1.4z"/><path class="st0" d="M63.5 124.8c-2.4 0-4.4-2-4.4-4.4s2-4.4 4.4-4.4 4.4 2 4.4 4.4-2 4.4-4.4 4.4z"/><path class="st1" d="M63.5 118c-1.3 0-2.4 1.1-2.4 2.4s1.1 2.4 2.4 2.4 2.4-1.1 2.4-2.4-1.1-2.4-2.4-2.4z"/><path class="st0" d="M93.1 66.1H62.4c-4.6 0-8.3 3.7-8.3 8.3v17.7c0 4.2 3.1 7.6 7.1 8.2v4.3c0 1 .6 1.8 1.5 2.2.3.1.6.2.9.2.6 0 1.2-.2 1.7-.7l5.9-5.9h21.9c4.6 0 8.3-3.7 8.3-8.3V74.3c-.1-4.5-3.8-8.2-8.3-8.2z"/><path class="st1" d="M99 92.1c0 3.3-2.6 5.9-5.9 5.9H70.6c-.3 0-.6.1-.8.3l-6.3 6.2v-5.4c0-.7-.5-1.2-1.2-1.2-3.3 0-5.9-2.6-5.9-5.9V74.3c0-3.3 2.6-5.9 5.9-5.9H93c3.3 0 5.9 2.6 5.9 5.9v17.8z"/><path class="st0" d="M93.1 79.1H74.2c-.7 0-1.2.5-1.2 1.2s.5 1.2 1.2 1.2h18.9c.7 0 1.2-.5 1.2-1.2-.1-.7-.6-1.2-1.2-1.2zM93.1 85H86c-.7 0-1.2.5-1.2 1.2s.5 1.2 1.2 1.2h7.1c.7 0 1.2-.5 1.2-1.2s-.6-1.2-1.2-1.2zM62.4 87.3h18.9c.7 0 1.2-.5 1.2-1.2s-.6-1.1-1.2-1.1H62.4c-.7 0-1.2.5-1.2 1.2s.5 1.1 1.2 1.1zM93.1 73.2H62.4c-.7 0-1.2.5-1.2 1.2s.5 1.2 1.2 1.2h30.7c.7 0 1.2-.5 1.2-1.2s-.6-1.2-1.2-1.2zM93.1 90.9H62.4c-.7 0-1.2.5-1.2 1.2s.5 1.2 1.2 1.2h30.7c.7 0 1.2-.5 1.2-1.2-.1-.7-.6-1.2-1.2-1.2zM62.4 81.4h7.1c.7 0 1.2-.5 1.2-1.2s-.5-1.2-1.2-1.2h-7.1c-.7 0-1.2.5-1.2 1.2s.5 1.2 1.2 1.2z"/></svg>