<svg version="1.1" id="Layer_1" xmlns="http://www.w3.org/2000/svg" x="0" y="0" viewBox="0 0 128 128" xml:space="preserve"><style>.st0{fill:#5b5b5b}.st1{fill:#46f8d6}</style><path class="st0" d="M126.8 128H1.2c-.7 0-1.2-.5-1.2-1.2s.5-1.2 1.2-1.2h125.6c.7 0 1.2.5 1.2 1.2s-.5 1.2-1.2 1.2z"/><circle class="st0" cx="81.2" cy="111.7" r="1.3"/><path class="st0" d="M29.6 128c-.7 0-1.3-.6-1.3-1.3 0-9.6 6.2-18.6 14.8-21.4l7.5-2.5 2.8-5.6-.2-.2-.7-.7c-1-1.2-1.9-2.5-2.6-4l-.1-.1h-1.5c-2.5 0-4.4-2-4.4-4.4v-2l-.2-.1c-1.8-.6-3-2.3-3-4.2v-9.9c0-12.8 10.4-23.2 23.2-23.2s23.2 10.4 23.2 23.2v9.9c0 2.5-2 4.4-4.4 4.4h-3.1l-.4 2.2c-.6 3.3-2.2 6.5-4.6 8.9l-.1.1 2.8 5.6 7.5 2.5c8.5 2.9 14.8 11.9 14.8 21.4 0 .7-.6 1.3-1.3 1.3H29.6zm47.7-22.3c-1.2 3.3-2.7 6.5-4.4 9.5-1.3 2.3-2.8 4.5-4.3 6.6l-2.2 3.5h30.7v-.3c-.6-7.9-5.9-15-12.9-17.3l-6.8-2.3-.1.3zm-33.5 2.1c-7 2.3-12.3 9.4-12.9 17.3v.3h30.7l-2.2-3.5c-1.6-2.1-3-4.3-4.3-6.5-1.8-3.1-3.2-6.3-4.4-9.6l-.1-.2-6.8 2.2zm9.1-3.9c1 2.9 2.2 5.6 3.6 8.3l.2.3 5.4-5.7-7-7-2.2 4.1zm12.8 2.9l5.7 5.7.2-.3c1.4-2.6 2.6-5.4 3.5-8.2v-.1l-2.3-4.7-7.1 7.6zm-1.9-1.9l3.4-3.6-.7.1c-.8.1-1.7.2-2.5.2-1.1 0-2.1-.1-3.2-.3l-.8-.2 3.8 3.8zM53 92.5c1.8 3 4.7 5.2 7.8 6 1 .3 2.1.4 3.1.4 1.1 0 2.1-.1 3.1-.4 4.8-1.2 8.7-5.7 9.6-10.9l.2-1.3c.1-.9.2-1.4.3-2.1.4-3 .8-6.3.9-9.6v-.2l-2.5-.4c-5.7-.8-11.1-3.4-15.3-7.4l-.1-.1H60c-3.3.2-6.3 1.8-8.3 4.5l-1.9 3v.1c.2 4.7 1.1 12.5 1.9 15.2l.1.2h4.9l.1-.2c.6-1.8 2.3-3 4.2-3h3c2.5 0 4.4 2 4.4 4.4 0 2.5-2 4.4-4.4 4.4h-3.1c-1.9 0-3.6-1.2-4.2-3l-.1-.2h-3.8l.2.6zm-6.5-4.8c0 1 .8 1.8 1.8 1.8h.6l-.1-.3c-.1-.4-.2-.7-.2-1.1l-.4-2.2h-1.7v1.8zm18.9-33.1c8.5 0 15.5 6.9 15.6 15.4v.2h3.6v-.3C83.7 59.4 74.7 51 64 51c-10.7 0-19.7 8.3-20.5 19v.3H47v-.2c.1-8.5 7.1-15.4 15.6-15.4h2.8zm25.9 66.1c.7-.3.9-1.1.6-1.8-1-2.1-2.5-3.9-4.4-5.3-.2-.2-.5-.3-.8-.3-.4 0-.8.2-1 .5-.2.3-.3.6-.3 1 0 .3.2.7.5.9 1.5 1.2 2.8 2.7 3.6 4.4.2.5.7.7 1.2.7.2 0 .4 0 .6-.1z"/><path class="st1" d="M58 114.9l.1.2c1.1 1.8 2.3 3.6 3.5 5.3 0 0 0 .1.1.1l2.3 3.7 1.9-3.1c.4-.7.4-.7.5-.7 1.3-1.7 2.5-3.5 3.6-5.3l.1-.2-6.2-6.2-5.9 6.2zM60.9 89c-1 0-1.8.8-1.8 1.8s.8 1.8 1.8 1.8H64c1 0 1.8-.8 1.8-1.8S65 89 64 89h-3.1zM80.9 73.4c-.1 3.2-.4 6.5-.8 9.6v.3h2.7c1 0 1.8-.8 1.8-1.8V73h-3.7v.4zM43.4 81.5c0 1 .8 1.8 1.8 1.8h2.7V83c-.4-3-.7-6.2-.8-9.3V73h-3.6v8.5zM60.9 64c.4 0 .7.1.9.4 3.8 3.8 8.9 6.4 14.3 7.1l2.2.3v-.3-1.3c0-3.5-1.3-6.7-3.8-9.2-2.4-2.5-5.7-3.8-9.1-3.8h-2.8c-6.6 0-12.2 5-12.9 11.6l-.1.8.5-.6c2.7-3.1 6.7-5 10.8-5z"/></svg>