<svg version="1.1" id="Layer_1" xmlns="http://www.w3.org/2000/svg" x="0" y="0" viewBox="0 0 128 128" xml:space="preserve"><style>.st0{fill:#5b5b5b}.st1{fill:#46f8d6}</style><path class="st0" d="M126.8 128H1.2c-.7 0-1.2-.5-1.2-1.2s.5-1.2 1.2-1.2h125.6c.7 0 1.2.5 1.2 1.2s-.5 1.2-1.2 1.2zM65.7 120.5H31.2c-.7 0-1.2-.5-1.2-1.2V56.5c0-3.9 3.2-7.1 7.1-7.1h22.7c3.9 0 7.1 3.2 7.1 7.1v62.8c0 .7-.5 1.2-1.2 1.2zm-33.2-2.4h32V56.5c0-2.6-2.1-4.7-4.7-4.7H37.1c-2.6 0-4.7 2.1-4.7 4.7v61.6h.1z"/><path class="st0" d="M31.2 70.3c-.7 0-1.2-.5-1.2-1.2v-.8h-2.9v.8c0 .7-.5 1.2-1.2 1.2s-1.2-.5-1.2-1.2V67c0-.7.5-1.2 1.2-1.2h5.3c.7 0 1.2.5 1.2 1.2v2.1c.1.7-.5 1.2-1.2 1.2zM56 51.7H41c-.3 0-.7-.2-.9-.4-.2-.3-.3-.6-.2-.9l1-5.2c.4-1.8 2.2-3.1 4.3-3.1h6.5c2.1 0 3.9 1.3 4.3 3.1l1 5.2c.1.3 0 .7-.2.9-.2.3-.5.4-.8.4z"/><path class="st1" d="M42.4 49.5h12.3l-.8-3.8c-.2-.8-1.1-1.4-2.1-1.4h-6.5c-1 0-2 .6-2.1 1.4l-.8 3.8z"/><path class="st0" d="M58.5 128H38.4c-.7 0-1.2-.5-1.2-1.2v-7.5c0-.7.5-1.2 1.2-1.2h20.1c.7 0 1.2.5 1.2 1.2v7.5c.1.7-.5 1.2-1.2 1.2zm-18.8-2.4h17.7v-5.1H39.7v5.1z"/><path class="st0" d="M58.5 120.5H38.4c-.7 0-1.2-.5-1.2-1.2v-19c0-.7.5-1.2 1.2-1.2h20.1c.7 0 1.2.5 1.2 1.2v19c.1.7-.5 1.2-1.2 1.2zm-18.8-2.4h17.7v-16.6H39.7v16.6z"/><path class="st1" d="M51.7 112.6c-.2 2.1-2.1 3.5-4.2 3.3-1.7-.2-3.1-1.6-3.3-3.3 0-2.1 3.7-5.6 3.7-5.6s3.8 3.6 3.8 5.6z"/><path class="st0" d="M48 116.1c-2.7 0-4.9-2.2-4.9-4.9 0-2.5 3.4-5.8 4.1-6.5l.8-.8.8.8c.7.7 4.1 4 4.1 6.5.1 2.6-2.2 4.9-4.9 4.9zm0-8.8c-1.3 1.4-2.5 3.1-2.5 3.9.1 1.4 1.3 2.4 2.6 2.4 1.3-.1 2.3-1.1 2.4-2.4 0-.8-1.2-2.5-2.5-3.9zM38.6 67.5c-.7 0-1.2-.5-1.2-1.2v-8.7c0-.7.5-1.2 1.2-1.2s1.2.5 1.2 1.2v8.7c0 .6-.5 1.2-1.2 1.2z"/><circle class="st0" cx="38.6" cy="71" r="1.4"/><path class="st0" d="M102.1 97.8H74.4c-.7 0-1.2-.6-1.2-1.2V54.3c0-.7.6-1.1 1.2-1.1h27.7c.7 0 1.2.6 1.2 1.1v42.3c0 .7-.5 1.2-1.2 1.2zm-26.5-2.4H101V55.5H75.6v39.9z"/><g><path class="st0" d="M91 90.9H80.8c-.7 0-1.2-.5-1.2-1.2s.5-1.2 1.2-1.2H91c.7 0 1.2.5 1.2 1.2s-.5 1.2-1.2 1.2zM88.2 70.9c-2.5 0-4.5-2-4.5-4.5s2-4.5 4.5-4.5 4.5 2 4.5 4.5-2.1 4.5-4.5 4.5z"/><path class="st1" d="M88.2 63.9c-1.3 0-2.4 1.1-2.4 2.4s1.1 2.4 2.4 2.4 2.4-1.1 2.4-2.4-1.1-2.4-2.4-2.4z"/><circle class="st0" cx="95.4" cy="89.7" r="1.4"/><path class="st0" d="M92.3 101.4c-.7 0-1.2-.5-1.2-1.2v-2.3h-5.9v2.3c0 .7-.5 1.2-1.2 1.2s-1.2-.5-1.2-1.2v-3.6c0-.7.5-1.2 1.2-1.2h8.3c.7 0 1.2.5 1.2 1.2v3.6c0 .7-.5 1.2-1.2 1.2z"/></g><g><circle class="st0" cx="57.4" cy="84.5" r="2"/></g><g><circle class="st0" cx="57.4" cy="77" r="2"/></g><g><circle class="st0" cx="57.4" cy="92.5" r="2"/></g><g><circle class="st0" cx="49.5" cy="84.5" r="2"/></g><g><circle class="st0" cx="49.5" cy="92.5" r="2"/></g><g><circle class="st0" cx="41.6" cy="92.5" r="2"/></g><g><circle class="st0" cx="38.6" cy="71" r="2"/></g><g><circle class="st0" cx="95.4" cy="89.7" r="2"/></g></svg>