<svg version="1.1" id="Layer_1" xmlns="http://www.w3.org/2000/svg" x="0" y="0" viewBox="0 0 128 128" xml:space="preserve"><style>.st0{fill:#5b5b5b}.st1{fill:#46f9d7}</style><path class="st0" d="M126.81 128H1.19c-.66 0-1.19-.53-1.19-1.19s.53-1.19 1.19-1.19H126.8c.66 0 1.19.53 1.19 1.19s-.52 1.19-1.18 1.19zM102.31 103.48v13.6h-76.8V66.49H82.7c-.06-.83.13-1.67.56-2.38H76.3a3.544 3.544 0 01-6.6 0H24.33c-.66 0-1.19.52-1.2 1.18V118.28c0 .66.54 1.2 1.2 1.2h79.18c.66 0 1.2-.54 1.2-1.2v-15.76c-.67.57-1.52.92-2.4.96z"/><path class="st0" d="M24.33 66.51H18.2a1.19 1.19 0 01-1.28-1.1 1.19 1.19 0 011.1-1.28h6.32c.66-.05 1.23.44 1.28 1.1.05.66-.44 1.23-1.1 1.28-.07.01-.13.01-.19 0zM24.33 79.78H18.2c-.66 0-1.2-.54-1.2-1.2 0-.66.54-1.2 1.2-1.2h6.13c.66 0 1.2.54 1.2 1.2-.01.67-.54 1.2-1.2 1.2zM24.33 92.98H18.2c-.66 0-1.19-.54-1.19-1.2 0-.66.53-1.19 1.19-1.19h6.13a1.195 1.195 0 010 2.39zM24.33 106.24H18.2c-.66 0-1.19-.54-1.19-1.2 0-.66.53-1.19 1.19-1.19h6.13c.66 0 1.19.54 1.19 1.2 0 .65-.54 1.18-1.19 1.19zM24.33 119.47H18.2c-.66 0-1.19-.54-1.19-1.2 0-.66.53-1.19 1.19-1.19h6.13c.66 0 1.2.53 1.2 1.19-.01.66-.54 1.2-1.2 1.2z"/><circle class="st0" cx="18.94" cy="65.32" r="1.99"/><circle class="st0" cx="18.94" cy="78.44" r="1.99"/><circle class="st0" cx="18.94" cy="91.8" r="1.99"/><circle class="st0" cx="18.94" cy="105.04" r="1.99"/><circle class="st0" cx="18.94" cy="118.27" r="1.99"/><path class="st0" d="M109.63 106.24h-6.12a1.195 1.195 0 11-.01-2.39h6.12c.66 0 1.19.54 1.19 1.2.01.65-.52 1.18-1.18 1.19zM109.63 119.47h-6.12c-.66 0-1.19-.54-1.19-1.2 0-.66.53-1.19 1.19-1.19h6.12c.66 0 1.2.53 1.2 1.19s-.54 1.2-1.2 1.2z"/><circle class="st0" cx="108.89" cy="105.04" r="1.99"/><circle class="st0" cx="108.89" cy="118.27" r="1.99"/><path class="st1" d="M93.64 118.27s.92-7.97 9.87-10.01v10.01h-9.87z"/><path class="st0" d="M103.51 119.47h-9.87c-.66 0-1.19-.52-1.2-1.18 0-.05 0-.1.01-.15.97-5.56 5.26-9.95 10.79-11.05.36-.08.73.01 1.01.23.28.23.45.57.45.93v10.01c0 .67-.53 1.21-1.19 1.21zm-8.36-2.39h7.16v-7.24a11.085 11.085 0 00-7.16 7.24z"/><path class="st1" d="M34.19 65.32s-.92 7.98-9.86 10.02V65.32h9.86z"/><path class="st0" d="M24.33 76.54c-.27-.01-.52-.1-.73-.26-.28-.23-.44-.57-.45-.93V65.32c0-.65.53-1.18 1.18-1.19h9.86c.34 0 .67.14.89.4.23.25.33.59.29.93A13.65 13.65 0 0124.58 76.5c-.08.02-.17.03-.25.04zm1.18-10.03v7.24c3.44-1.09 6.12-3.8 7.18-7.24h-7.18z"/><path class="st1" d="M34.19 118.27s-.92-7.97-9.86-10.01v10.01h9.86z"/><path class="st0" d="M34.19 119.47h-9.86c-.66 0-1.2-.54-1.2-1.2v-10.01a1.195 1.195 0 011.46-1.17c3.77.75 7.05 3.04 9.05 6.33a13.13 13.13 0 011.74 4.72c.04.34-.07.68-.29.93-.22.26-.56.41-.9.4zm-8.68-2.39h7.18a10.989 10.989 0 00-7.18-7.24v7.24zM89.21 89.32c-.33-.18-.67-.34-1.03-.52v6.6c0 .46-.37.83-.83.83-1.77 0-3.21 1.44-3.21 3.22v3.29c0 .46-.37.82-.83.83h-38.8c-.46 0-.82-.37-.83-.83v-3.3c0-1.78-1.44-3.22-3.22-3.22h-.01c-.46 0-.83-.37-.83-.83v-7.17c0-.46.37-.83.83-.83 1.77 0 3.22-1.43 3.23-3.2V80.9c0-.46.37-.83.83-.83h23.9c-.1-.82.04-1.65.4-2.39h-24.3c-1.78 0-3.21 1.44-3.22 3.22v3.29c0 .45-.37.82-.83.81h-.01c-1.78 0-3.21 1.44-3.22 3.22v7.17c0 1.78 1.44 3.21 3.22 3.22.45 0 .82.37.82.82v3.3c0 1.78 1.44 3.21 3.22 3.22H83.3c1.78 0 3.21-1.44 3.22-3.22v-3.29c0-.45.36-.82.81-.83h.01c1.78 0 3.21-1.44 3.22-3.22v-5.67c-.47-.05-.93-.19-1.35-.4zM73.11 67.06c-3.23 0-5.86-2.63-5.86-5.86s2.63-5.86 5.86-5.86 5.86 2.63 5.86 5.86c0 3.24-2.63 5.86-5.86 5.86zm0-9.34c-1.92 0-3.48 1.56-3.48 3.48s1.56 3.48 3.48 3.48 3.48-1.56 3.48-3.48c0-1.91-1.56-3.48-3.48-3.48z"/><path class="st0" d="M94.85 91.91c-9.19 0-16.66-7.47-16.66-16.66 0-9.18 7.47-16.66 16.66-16.66 9.18 0 16.66 7.47 16.66 16.66-.01 9.19-7.48 16.66-16.66 16.66zm0-30.94c-7.87 0-14.28 6.41-14.28 14.28 0 7.88 6.41 14.28 14.28 14.28s14.28-6.41 14.28-14.28-6.41-14.28-14.28-14.28z"/><path class="st0" d="M99.2 105.5c-1.95 0-3.86-.56-5.53-1.65a10.084 10.084 0 01-4.42-6.43c-.57-2.66-.06-5.39 1.42-7.67l.44-.68.8.17c.97.2 1.96.3 2.95.31 3.03 0 6.04-1 8.48-2.81l.66-.49.69.44-.64 1 .65-1 .1.06c2.28 1.48 3.85 3.76 4.42 6.42.57 2.66.06 5.39-1.42 7.68a10.084 10.084 0 01-6.43 4.42c-.74.15-1.46.23-2.17.23zm-6.94-13.79a7.78 7.78 0 00-.7 5.22 7.78 7.78 0 003.39 4.93 7.738 7.738 0 005.89 1.09 7.78 7.78 0 004.93-3.39 7.782 7.782 0 001.09-5.89 7.757 7.757 0 00-2.83-4.53c-2.71 1.8-5.94 2.78-9.19 2.78-.86-.01-1.72-.08-2.58-.21zM76.71 87.42c-1.27 0-2.55-.27-3.76-.82a9.03 9.03 0 01-4.76-5.08c-.86-2.27-.78-4.75.22-6.96 2.07-4.57 7.47-6.61 12.04-4.54l.93.42-.28.98c-.35 1.25-.53 2.53-.53 3.82.01 2.92.89 5.72 2.56 8.11l.58.84-.74.7a8.972 8.972 0 01-6.26 2.53zm0-15.82c-2.56 0-5.01 1.47-6.14 3.95-.74 1.64-.8 3.46-.16 5.14a6.65 6.65 0 003.52 3.75c2.21 1 4.73.73 6.66-.64a16.46 16.46 0 01-2.39-8.55v-.01c0-1.14.12-2.28.36-3.39a6.98 6.98 0 00-1.85-.25zM103.56 73.82c-.55 0-1.05-.39-1.16-.95-1.2-5.81-6.13-5.93-6.34-5.94-.65-.01-1.18-.54-1.18-1.19s.53-1.18 1.18-1.18c2.43 0 7.38 1.64 8.66 7.83.13.64-.28 1.27-.92 1.4-.08.03-.16.03-.24.03z"/></svg>