<svg version="1.1" id="Layer_1" xmlns="http://www.w3.org/2000/svg" x="0" y="0" viewBox="0 0 128 128" xml:space="preserve"><style>.st0{fill:#5b5b5b}.st1{fill:#46f8d6}</style><path class="st0" d="M126.8 128H1.2c-.7 0-1.2-.5-1.2-1.2s.5-1.2 1.2-1.2h125.6c.7 0 1.2.5 1.2 1.2s-.5 1.2-1.2 1.2zM30 120c-3.4 0-6.1-2.7-6.1-6.1s2.7-6.1 6.1-6.1 6.1 2.7 6.1 6.1-2.8 6.1-6.1 6.1zm0-9.7c-2 0-3.7 1.7-3.7 3.7s1.6 3.7 3.7 3.7 3.7-1.7 3.7-3.7-1.7-3.7-3.7-3.7z"/><path class="st0" d="M79.6 128H51.1c-1.3 0-2.3-1.1-2.3-2.3 0-5.9 4.8-10.8 10.7-10.8h11.6c5.9 0 10.8 4.8 10.8 10.8 0 1.2-1 2.3-2.3 2.3zm-20.1-10.7c-4.6 0-8.3 3.8-8.3 8.3h28.3c0-4.6-3.8-8.3-8.4-8.3H59.5zM5.1 120.5H1.9v-2.4h3.2c1.6 0 2.9-1.8 2.9-3.9V97.6c0-2.2-1.3-3.9-2.9-3.9H2v-2.4h3c2.9 0 5.3 2.8 5.3 6.3v16.6c.1 3.5-2.3 6.3-5.2 6.3z"/><path class="st1" d="M30 101.1c-7.1 0-12.8 5.8-12.8 12.8 0 7.1 5.8 12.8 12.8 12.8s12.8-5.8 12.8-12.8c0-7-5.7-12.8-12.8-12.8zm0 17.7c-2.7 0-4.9-2.2-4.9-4.9s2.2-4.9 4.9-4.9 4.9 2.2 4.9 4.9c0 2.8-2.2 4.9-4.9 4.9z"/><path class="st0" d="M30 128c-7.7 0-14-6.3-14-14s6.3-14 14-14 14 6.3 14 14-6.3 14-14 14zm0-25.7c-6.4 0-11.6 5.2-11.6 11.6s5.2 11.6 11.6 11.6 11.6-5.2 11.6-11.6c0-6.3-5.2-11.6-11.6-11.6zm0 17.7c-3.4 0-6.1-2.7-6.1-6.1s2.7-6.1 6.1-6.1 6.1 2.7 6.1 6.1-2.8 6.1-6.1 6.1zm0-9.7c-2 0-3.7 1.7-3.7 3.7s1.6 3.7 3.7 3.7 3.7-1.7 3.7-3.7-1.7-3.7-3.7-3.7zM70.1 117.3h-9L61 54.8c-.2-6.7-5.5-12.1-12.2-12.2-6.9-.2-12.7 5.3-12.8 12.2v12h-9v-12c.2-11.6 9.5-20.9 21.1-21.1 5.7-.1 11.2 2 15.4 6 4.1 4 6.5 9.4 6.6 15.1v62.5zm-6.6-2.4h4.2V54.8c-.1-5.1-2.2-9.9-5.9-13.4S53.3 36 48.2 36c-10.3.2-18.6 8.5-18.8 18.8v9.7h4.2v-9.7c.2-8.2 7-14.8 15.2-14.6 7.6.2 13.7 6 14.5 13.4h.1l.1 1.2v60.1zM119.1 87.6c-.2-3.1-1.8-6-4.4-7.7-2.2-1.5-5-2.1-7.6-1.6s-5 2-6.5 4.3l-.8 1.1-1-.9c-1.2-1-2.7-1.7-4.2-1.8-3.9-.3-7.3 2.7-7.5 6.6l-2.4-.2c.3-5.2 4.9-9.2 10.1-8.8 1.7.1 3.2.7 4.6 1.6 1.9-2.2 4.4-3.7 7.3-4.3 3.3-.6 6.7.1 9.4 2 3.2 2.2 5.2 5.7 5.4 9.6l-2.4.1z"/><path class="st0" d="M97.7 80.7l.5.3c.9.5 1.8 1.2 2.4 2.1"/><path class="st0" d="M100.7 84.3c-.4 0-.7-.2-.9-.5-.6-.7-1.2-1.3-2-1.7l-.2-.1-.5-.3c-.6-.4-.7-1.1-.3-1.7s1.1-.7 1.7-.3l.5.3c1.1.6 2 1.4 2.8 2.3.4.5.3 1.3-.2 1.7-.4.2-.7.3-.9.3zM100 86.4v2.4h-2c-2.1 0-3.8 1.7-3.8 3.8v2.5c0 2.6-2.1 4.7-4.7 4.7-2.5 0-4.5-1.9-4.7-4.4v-9.3h2.4v9c0 1.3 1 2.3 2.3 2.3s2.3-1 2.3-2.3v-2.5c0-3.4 2.8-6.1 6.1-6.1l2.1-.1z"/><path class="st1" d="M84.8 88.8v4.1h-.5c-1.1 0-1.9-.9-2-2 0-.5.2-1.1.5-1.5.4-.4.9-.6 1.4-.7l.6.1z"/><path class="st0" d="M82.9 89.5c-.4.4-.6.9-.5 1.5 0 1.1.9 1.9 2 2H86v2.4h-1.8c-2.4-.1-4.2-1.9-4.3-4.2-.1-1.2.3-2.3 1.1-3.2.8-.9 1.9-1.4 3.1-1.5H86v2.4h-1.8c-.4-.1-1 .2-1.3.6z"/><path class="st1" d="M122.9 87.6H97.6c-2.6.2-4.6 2.4-4.6 5v1.6h29.9c1.8-.1 3.2-1.6 3.1-3.4-.1-1.8-1.5-3.1-3.1-3.2z"/><path class="st0" d="M93 95.3h-1.2v-2.8c0-3.2 2.5-5.9 5.7-6.1H122.9c2.3.1 4.1 1.9 4.2 4.2.1 1.2-.3 2.3-1.2 3.2-.8.9-1.9 1.4-3.1 1.4l-29.8.1zm1.2-2.4h28.7c.5 0 1-.3 1.4-.7.4-.4.6-.9.5-1.5-.1-1.1-.9-1.9-1.9-2H97.6c-1.9.2-3.4 1.8-3.4 3.7v.5zM96.8 118.4c0 .7-.6 1.3-1.3 1.3h-4c-.7 0-1.3-.6-1.3-1.3s.6-1.3 1.3-1.3h4c.8 0 1.3.6 1.3 1.3zM106.8 118.4c0 .7-.6 1.3-1.3 1.3h-4c-.7 0-1.3-.6-1.3-1.3s.6-1.3 1.3-1.3h4c.7 0 1.3.6 1.3 1.3zM96.8 111.6c0 .7-.6 1.3-1.3 1.3h-4c-.7 0-1.3-.6-1.3-1.3s.6-1.3 1.3-1.3h4c.8-.1 1.3.5 1.3 1.3zM106.8 111.6c0 .7-.6 1.3-1.3 1.3h-4c-.7 0-1.3-.6-1.3-1.3s.6-1.3 1.3-1.3h4c.7-.1 1.3.5 1.3 1.3zM96.8 104.7c0 .7-.6 1.3-1.3 1.3h-4c-.7 0-1.3-.6-1.3-1.3s.6-1.3 1.3-1.3h4c.8 0 1.3.6 1.3 1.3zM106.8 104.7c0 .7-.6 1.3-1.3 1.3h-4c-.7 0-1.3-.6-1.3-1.3s.6-1.3 1.3-1.3h4c.7 0 1.3.6 1.3 1.3zM116.7 118.4c0 .7-.6 1.3-1.3 1.3h-4c-.7 0-1.3-.6-1.3-1.3s.6-1.3 1.3-1.3h4c.7 0 1.3.6 1.3 1.3zM116.7 111.6c0 .7-.6 1.3-1.3 1.3h-4c-.7 0-1.3-.6-1.3-1.3s.6-1.3 1.3-1.3h4c.7-.1 1.3.5 1.3 1.3zM116.7 104.7c0 .7-.6 1.3-1.3 1.3h-4c-.7 0-1.3-.6-1.3-1.3s.6-1.3 1.3-1.3h4c.7 0 1.3.6 1.3 1.3z"/><circle class="st0" cx="33.8" cy="74.6" r="2"/><circle class="st0" cx="33.8" cy="82.5" r="2"/><circle class="st0" cx="25.9" cy="74.6" r="2"/><circle class="st0" cx="25.9" cy="82.5" r="2"/><circle class="st0" cx="17.9" cy="82.5" r="2"/><path class="st0" d="M19.9 128h-8.2c-6.1 0-11-4.9-11-11V95.2c0-16.9 13.8-30.7 30.8-30.7h2.3c4.2 0 7.6 3.4 7.6 7.6v37.6l-2.1-2.8c-2.2-2.8-5.6-4.6-9.2-4.6-3.1 0-6 1.2-8.2 3.4-2.2 2.2-3.4 5.1-3.4 8.2 0 4.8 3 9.2 7.5 10.9l3.4 1.3-3.5 1c-2 .6-4 .9-6 .9zm11.6-61.1c-15.6 0-28.4 12.7-28.4 28.3V117c0 4.8 3.9 8.6 8.6 8.6h8c.8 0 1.5 0 2.2-.1-3.7-2.6-6-6.9-6-11.5 0-3.8 1.5-7.3 4.1-9.9s6.2-4.1 9.9-4.1c3.3 0 6.5 1.2 9 3.3V72.1c0-2.9-2.3-5.2-5.2-5.2h-2.2z"/><g><path class="st0" d="M115.8 128H91.3c-2.4 0-4.4-1.8-4.7-4.1l-4.2-31.2 1.6.3h2.2v2.4h-1l3.8 28.2c.2 1.2 1.2 2.1 2.4 2.1H116c1.2 0 2.2-.9 2.4-2.1l3.8-28.2H91.8v-2.8c0-.9.2-1.7.5-2.5l2.2 1c-.2.5-.3 1-.3 1.5v.4H123.3l1.6-.3-4.2 31.2c-.4 2.3-2.5 4.1-4.9 4.1z"/></g><g><path class="st1" d="M59.8 84.5l-2.3-3.3-3.7 1.2 4.3-13 6 2.1z"/><path class="st0" d="M59.8 85.7c-.4 0-.8-.2-1-.5L57 82.6l-2.9.9c-.4.1-.9 0-1.2-.3-.3-.3-.4-.8-.3-1.2l4.3-13c.1-.3.3-.6.6-.7s.6-.2.9-.1l6.1 2.1c.6.2 1 .9.7 1.5l-4.3 13c-.1.4-.5.8-1 .8 0 .1 0 .1-.1.1zM57.5 80c.4 0 .8.2 1 .5l.9 1.3 3.2-9.6-3.8-1.3-3.2 9.6 1.5-.5h.4z"/><path class="st1" d="M71.3 84.5l2.3-3.3 3.7 1.2-4.3-13-6.1 2.1z"/><path class="st0" d="M71.3 85.7h-.2c-.5-.1-.8-.4-1-.8l-4.3-13c-.2-.6.1-1.3.7-1.5l6.1-2.1c.3-.1.6-.1.9.1.3.1.5.4.6.7l4.3 13c.1.4 0 .9-.3 1.2-.3.3-.8.4-1.2.3l-2.9-.9-1.8 2.6c-.2.2-.5.4-.9.4zm-2.8-13.4l3.2 9.6.9-1.3c.3-.4.8-.6 1.3-.5l1.5.5-3.2-9.6-3.7 1.3z"/><ellipse class="st1" cx="65.3" cy="59.8" rx="12" ry="12.3"/><path class="st0" d="M65.3 73.3c-7.3 0-13.2-6.1-13.2-13.5 0-7.5 5.9-13.5 13.2-13.5 7.3 0 13.2 6.1 13.2 13.5s-5.9 13.5-13.2 13.5zm0-24.6c-5.9 0-10.8 5-10.8 11.1s4.8 11.1 10.8 11.1c5.9 0 10.8-5 10.8-11.1s-4.8-11.1-10.8-11.1z"/><path class="st0" d="M61.1 67.6c-.2 0-.5-.1-.7-.2-.4-.3-.6-.7-.5-1.2l.7-4.2-3-3c-.3-.3-.4-.8-.3-1.2.1-.4.5-.8 1-.8l4.1-.6 1.8-3.8c.2-.4.6-.7 1.1-.7.5 0 .9.3 1.1.7l1.8 3.8 4.1.6c.5.1.8.4 1 .8.1.4 0 .9-.3 1.2l-3 3 .7 4.2c.1.5-.1.9-.5 1.2-.4.3-.9.3-1.3.1l-3.6-2-3.6 2c-.2.1-.4.1-.6.1z"/><path d="M65.3 63c.2 0 .4 0 .6.1l2 1.1-.4-2.4c-.1-.4.1-.8.3-1.1l1.7-1.7-2.3-.3c-.4-.1-.7-.3-.9-.7l-1-2.1-1 2.1c-.2.4-.5.6-.9.7l-2.3.3 1.7 1.7c.3.3.4.7.3 1.1l-.4 2.4 2-1.1c.2-.1.4-.1.6-.1z" fill="#fff"/></g></svg>