<svg version="1.1" id="Layer_1" xmlns="http://www.w3.org/2000/svg" x="0" y="0" viewBox="0 0 128 128" xml:space="preserve"><style>.st0{fill:#46f8d6}.st1{fill:#5b5b5b}.st2,.st3{fill:none;stroke:#5b5b5b;stroke-width:2.4815;stroke-linecap:round;stroke-linejoin:round}.st3{stroke-width:2.4647}</style><path class="st0" d="M94.9 47.7H33c.7-3.7 2.5-6.2 4.5-6.2h52.9c2.1.1 3.8 2.7 4.5 6.2zM94.9 111.7H33c.7 4 2.5 6.9 4.5 6.9h52.9c2.1.1 3.8-2.8 4.5-6.9z"/><path class="st1" d="M89 39.7H38.9c-3.9 0-7.1 3.2-7.1 7.1v66.4c0 3.9 3.2 7.1 7.1 7.1h50.2c3.9 0 7.1-3.2 7.1-7.1V46.8c-.1-3.9-3.3-7.1-7.2-7.1zm0 78.2H38.9c-2 0-3.7-1.3-4.4-3.1-.2-.5-.3-1-.3-1.6V46.8c0-.6.1-1.2.4-1.7.6-1.6 2.4-2.9 4.3-2.9h50.2c1.9 0 3.6 1.2 4.3 2.9.2.5.4 1.1.4 1.7v66.4c0 .5-.1 1.1-.3 1.6-.8 1.8-2.4 3.1-4.5 3.1z"/><path class="st1" d="M33 110.5h61.9v2.5H33zM33 47h61.9v2.5H33z"/><path class="st2" d="M40.3 55.6h47.2v48.9H40.3z"/><path class="st3" d="M86.9 61.6H40.3M86.9 67.8H40.3M86.9 73.9H40.3M86.9 79.9H40.3M86.9 86H40.3M86.9 92.2H40.3"/><circle class="st1" cx="70" cy="98.5" r="1.5"/><circle class="st1" cx="75.7" cy="98.5" r="1.5"/><circle class="st1" cx="81.2" cy="98.5" r="1.5"/><circle class="st1" cx="64.2" cy="98.5" r="1.5"/><circle class="st1" cx="52.4" cy="98.5" r="1.5"/><circle class="st1" cx="58.2" cy="98.5" r="1.5"/><circle class="st1" cx="46.7" cy="98.5" r="1.5"/><g><path class="st2" d="M40.3 119.1h47.4v7.6H40.3z"/></g><g><path class="st1" d="M126.8 128H1.2c-.7 0-1.2-.5-1.2-1.2s.5-1.2 1.2-1.2h125.6c.7 0 1.2.5 1.2 1.2s-.5 1.2-1.2 1.2z"/></g></svg>