<svg version="1.1" id="Layer_1" xmlns="http://www.w3.org/2000/svg" x="0" y="0" viewBox="0 0 128 128" xml:space="preserve"><style>.st0{fill:#5b5b5b}.st1{fill:#46f8d6}</style><path class="st0" d="M126.81 128H1.19c-.66 0-1.19-.53-1.19-1.19s.53-1.19 1.19-1.19H126.8c.66 0 1.19.53 1.19 1.19s-.52 1.19-1.18 1.19zM35.09 37.29c-.38-.02-.75-.02-1.12-.02-9.96 0-18.32 7.47-19.43 17.38-1.11 9.83 5.3 18.87 14.77 21.19.43.1.87.19 1.31.27h6.73c.33-.06.66-.12.98-.2a19.536 19.536 0 0015.23-19.05c.01-10.39-8.11-18.98-18.47-19.57zm-1.1 36.73c-9.45-.02-17.15-7.71-17.17-17.16 0-9.46 7.7-17.16 17.17-17.16 9.46 0 17.16 7.7 17.16 17.16s-7.7 17.16-17.16 17.16z"/><path class="st0" d="M49.14 53.81c-.72-1.43-2-2.52-3.53-3a5.89 5.89 0 00-1.77-.27c-.99 0-1.97.25-2.84.72l-2.65 1.45-.46.25-.27-.24.26-.48 1.31-2.4c.76-1.4.93-3.08.45-4.61a5.961 5.961 0 00-3.01-3.52c-.81-.41-1.73-.62-2.64-.62-.92 0-1.83.21-2.65.62-1.43.71-2.53 2-3 3.52-.48 1.53-.32 3.21.45 4.61l1.28 2.35.29.53c-.1.08-.19.16-.27.24l-.52-.29-2.6-1.41a5.94 5.94 0 00-4.61-.45 5.945 5.945 0 00-3.52 3 6.017 6.017 0 000 5.3 5.884 5.884 0 003.52 3c.58.18 1.18.28 1.78.28.99 0 1.97-.26 2.83-.73l2.14-1.17.51-.28c.22.29.47.55.74.78l-.29.53-1.28 2.35a5.918 5.918 0 00.94 6.95A5.97 5.97 0 0034 72.63c.91 0 1.82-.22 2.63-.62 1.43-.72 2.53-2 3.01-3.53.47-1.52.31-3.2-.45-4.61l-1.29-2.35-.29-.53c.28-.23.52-.5.74-.78l.51.28L41 61.66c.87.47 1.85.72 2.84.72.6 0 1.2-.09 1.77-.27a5.964 5.964 0 003.53-3c.82-1.66.82-3.64 0-5.3zm-15.15 6.71c-2.05 0-3.67-1.68-3.67-3.66 0-2.06 1.69-3.67 3.67-3.67s3.66 1.69 3.66 3.67c0 2.05-1.68 3.66-3.66 3.66z"/><path class="st1" d="M30.9 65.03c-.45.83-.55 1.83-.27 2.73a3.511 3.511 0 003.35 2.46c.95 0 1.87-.39 2.53-1.07a3.514 3.514 0 00.56-4.12l-1.57-2.88a4.865 4.865 0 01-3.02 0l-1.58 2.88zM42.15 59.54a3.527 3.527 0 002.73.27c.9-.28 1.67-.93 2.09-1.78.49-.98.49-2.16 0-3.14a3.511 3.511 0 00-3.14-1.94c-.59 0-1.17.15-1.68.43L39.17 55c.37.97.44 2.01.2 3.03l2.78 1.51zM24.14 52.95a3.514 3.514 0 101.68 6.6l2.77-1.52c-.23-1.01-.16-2.05.2-3.03l-2.98-1.62c-.51-.28-1.09-.43-1.67-.43zM33.99 51.33c.52 0 1.02.08 1.51.24l1.57-2.88c.8-1.47.45-3.32-.85-4.39a3.51 3.51 0 00-2.24-.8c-.81 0-1.61.29-2.24.8a3.519 3.519 0 00-.85 4.39l1.57 2.88c.5-.16 1.01-.24 1.53-.24z"/><path class="st0" d="M39.64 54.74c-.29-.76-.73-1.45-1.29-2.03-.14-.17-.3-.32-.47-.47-.61-.52-1.32-.93-2.1-1.19a6.007 6.007 0 00-3.6-.01c-.78.24-1.5.64-2.11 1.15-.18.15-.34.31-.5.48-.56.58-1 1.28-1.28 2.06-.26.66-.39 1.38-.39 2.13 0 .5.06.99.18 1.45.19.8.54 1.54 1.03 2.18.28.39.6.73.96 1.03.61.51 1.33.91 2.11 1.15.57.18 1.18.27 1.81.27s1.23-.09 1.8-.26c.78-.25 1.5-.65 2.11-1.16.36-.3.69-.64.96-1.03.49-.64.84-1.38 1.03-2.18.12-.46.18-.95.18-1.45-.01-.74-.16-1.46-.43-2.12zm-5.65 5.78c-2.05 0-3.67-1.68-3.67-3.66 0-2.06 1.69-3.67 3.67-3.67s3.66 1.69 3.66 3.67c0 2.05-1.68 3.66-3.66 3.66zM30.99 104.46v2.41h-5.96a1.206 1.206 0 010-2.41h5.96zM103.9 125.69c-1.38 0-2.71-.6-3.63-1.64v-.01l-.01.01a4.848 4.848 0 01-3.63 1.64c-1.38 0-2.71-.6-3.63-1.64v-.01.01a4.848 4.848 0 01-3.63 1.64c-1.38 0-2.71-.6-3.63-1.64a4.848 4.848 0 01-3.63 1.64c-1.38 0-2.71-.6-3.63-1.64a4.848 4.848 0 01-3.63 1.64c-1.38 0-2.71-.6-3.63-1.64v-.01l-.01.01a4.848 4.848 0 01-3.63 1.64c-2.67 0-4.84-2.17-4.84-4.84V97.84H59.1c-.66 0-1.2-.54-1.2-1.21V94.2h-3.14c-.66 0-1.2-.54-1.2-1.21 0-.67.54-1.21 1.2-1.21h3.14v-2.43c0-.66.54-1.2 1.2-1.2h3.79c.58-2.16 2.5-3.63 4.69-3.63 1.39 0 2.71.6 3.63 1.64v.01-.01a4.848 4.848 0 013.63-1.64c1.39 0 2.71.6 3.63 1.64a4.848 4.848 0 013.63-1.64c1.39 0 2.71.6 3.63 1.64a4.848 4.848 0 013.63-1.64c1.39 0 2.71.6 3.63 1.64v.01a4.864 4.864 0 013.63-1.64c1.39 0 2.71.6 3.63 1.64v.01a4.848 4.848 0 013.63-1.64c2.67 0 4.84 2.17 4.84 4.84v2.43h2.43V82.1a1.206 1.206 0 112.41 0V93c0 .67-.54 1.21-1.2 1.21h-3.64v26.65c.02 2.66-2.15 4.83-4.82 4.83zm0-38.75c-1.34 0-2.42 1.09-2.42 2.43v31.49c0 1.34 1.09 2.42 2.42 2.42a2.43 2.43 0 002.43-2.42V89.37c0-1.34-1.09-2.43-2.43-2.43zm-7.26 0c-1.34 0-2.42 1.09-2.42 2.43v31.49c0 1.34 1.09 2.42 2.42 2.42a2.43 2.43 0 002.43-2.42V89.37c0-1.34-1.09-2.43-2.43-2.43zm-7.27 0c-1.34 0-2.42 1.09-2.42 2.43v31.49c0 1.34 1.09 2.42 2.42 2.42a2.43 2.43 0 002.43-2.42V89.37c0-1.34-1.09-2.43-2.43-2.43zm-7.26 0c-1.34 0-2.43 1.09-2.43 2.43v31.49c0 1.34 1.09 2.42 2.43 2.42a2.43 2.43 0 002.43-2.42V89.37c0-1.34-1.09-2.43-2.43-2.43zm-7.27 0c-1.34 0-2.43 1.09-2.43 2.43v31.49c0 1.34 1.09 2.42 2.43 2.42a2.43 2.43 0 002.43-2.42V89.37c0-1.34-1.09-2.43-2.43-2.43zm-7.26 0c-1.34 0-2.43 1.09-2.43 2.43v31.49c0 1.34 1.09 2.42 2.43 2.42a2.43 2.43 0 002.43-2.42V89.37a2.44 2.44 0 00-2.43-2.43z"/><path class="st1" d="M60.31 90.57h2.43v4.85h-2.43z"/><path class="st0" d="M69.12 77.48c-.48 0-.9-.29-1.09-.73a15.607 15.607 0 010-10.9c1.79-5.04-.39-10.21-.41-10.26-.26-.61.02-1.31.63-1.57s1.31.02 1.57.63c.11.24 2.58 6.06.47 12a13.533 13.533 0 000 9.14c.26.6 0 1.29-.6 1.56h-.01c-.17.09-.37.13-.56.13zM102.75 77.48c-.48 0-.9-.29-1.09-.73a15.607 15.607 0 010-10.9c1.8-5.07-.38-10.21-.4-10.26-.26-.61.02-1.31.63-1.57s1.31.02 1.57.63c.1.24 2.58 6.06.47 12a13.527 13.527 0 00-.1 9.2c.26.6 0 1.29-.6 1.56h-.01c-.15.05-.31.08-.47.07zM85.92 72.04c-.48 0-.9-.29-1.09-.73a13.484 13.484 0 010-9.41c1.52-4.3-.36-9.97-.38-10.03a1.185 1.185 0 012.25-.73c.09.26 2.2 6.53.37 11.59-.9 2.47-.9 5.18 0 7.65.27.6 0 1.3-.6 1.57-.17.07-.36.1-.55.09zM59.26 91.79v2.41H53.3a1.206 1.206 0 010-2.41h5.96z"/><g><path class="st0" d="M47.83 127.72h-28.5c-1.31-.03-2.3-1.06-2.3-2.33 0-5.91 4.81-10.75 10.72-10.78h11.63c5.95 0 10.78 4.84 10.78 10.78 0 1.28-1.05 2.33-2.33 2.33zm-20.07-10.73c-4.58.03-8.31 3.76-8.34 8.34h28.35c-.03-4.6-3.78-8.34-8.39-8.34H27.76z"/></g><g><path class="st0" d="M38.33 116.99h-9.02V75.45h2.39v39.15h4.24V75.45h2.39z"/></g></svg>