<svg version="1.1" id="Layer_1" xmlns="http://www.w3.org/2000/svg" x="0" y="0" viewBox="0 0 128 128" xml:space="preserve"><style>.st0{fill:#5b5b5b}.st1{fill:#46f8d6}</style><path class="st0" d="M126.8 128H1.2c-.7 0-1.2-.5-1.2-1.2s.5-1.2 1.2-1.2h125.6c.7 0 1.2.5 1.2 1.2s-.5 1.2-1.2 1.2zM60.8 61c0-.5-.4-1-.9-1.1h-6.1v2.4H61c0-.5-.1-.9-.2-1.3z"/><path class="st0" d="M55.3 61.2c.1-.7-.4-1.2-1.1-1.3-.7-.1-1.2.4-1.3 1.1-1.2 11.7-9.1 21.7-20.3 25.4-.5.2-.8.4-1.1.8H17.8v9.2h13.3c.1.4.3.8.5 1.1 4 5.8 7.4 17.4 7.4 25.1v4.2c0 .7.5 1.2 1.2 1.2s1.2-.5 1.2-1.2v-4.2c0-8.3-3.5-20.2-7.8-26.5V96c1.1-.5 1.9-1.6 1.9-2.9v-2.7c0-.8-.3-1.6-.8-2.2 11.3-4.3 19.4-14.8 20.6-27zM20.2 93.9v-4.4h12c.5 0 .9.4.9.9v2.7c0 .5-.4.8-.9.8h-12zM24.5 64.3c-.7 0-1.2-.5-1.2-1.2v-1.4c0-.7.5-1.2 1.2-1.2s1.2.5 1.2 1.2v1.4c0 .7-.6 1.2-1.2 1.2zM31.8 64.3c-.7 0-1.2-.5-1.2-1.2v-1.4c0-.7.5-1.2 1.2-1.2s1.2.5 1.2 1.2v1.4c0 .7-.5 1.2-1.2 1.2zM39.1 64.3c-.7 0-1.2-.5-1.2-1.2v-1.4c0-.7.5-1.2 1.2-1.2s1.2.5 1.2 1.2v1.4c0 .7-.5 1.2-1.2 1.2zM46.5 64.3c-.7 0-1.2-.5-1.2-1.2v-1.4c0-.7.5-1.2 1.2-1.2s1.2.5 1.2 1.2v1.4c0 .7-.6 1.2-1.2 1.2z"/><path class="st0" d="M28.3 99.8c1.3 2.2 2.7 6.1 2.7 8.3l-2.7-8.3z"/><path class="st0" d="M31 109.3c-.7 0-1.2-.5-1.2-1.2 0-1.9-1.2-5.6-2.5-7.7l-.2-.3v-.3c0-.7.5-1.2 1.2-1.2.5 0 .9.3 1.1.7 1.4 2.2 2.8 6.2 2.8 8.8 0 .7-.6 1.2-1.2 1.2zM23.8 99.8c.8 2.5.7 4.4.7 6.9l-.7-6.9z"/><path class="st0" d="M24.5 107.9c-.7 0-1.2-.5-1.2-1.2v-.7c0-2.1 0-3.8-.7-5.8l-.1-.2v-.2c0-.7.5-1.2 1.2-1.2.6 0 1.1.4 1.2 1 .8 2.4.8 4.3.8 6.5v.7c0 .6-.6 1.1-1.2 1.1zM61 62.3h-1.1V68c-.6-1.9-1.1-3.8-1.3-5.8 0-.4-.1-.7-.1-1.1-.1-.7.4-1.2 1.1-1.3H59.9c.5.1.9.5.9 1.1.1.5.2.9.2 1.4zM89.3 64.3c-.7 0-1.2-.5-1.2-1.2v-1.4c0-.7.5-1.2 1.2-1.2s1.2.5 1.2 1.2v1.4c-.1.7-.6 1.2-1.2 1.2zM81.9 64.3c-.7 0-1.2-.5-1.2-1.2v-1.4c0-.7.5-1.2 1.2-1.2s1.2.5 1.2 1.2v1.4c0 .7-.5 1.2-1.2 1.2zM74.6 64.3c-.7 0-1.2-.5-1.2-1.2v-1.4c0-.7.5-1.2 1.2-1.2s1.2.5 1.2 1.2v1.4c0 .7-.6 1.2-1.2 1.2zM67.3 64.3c-.7 0-1.2-.5-1.2-1.2v-1.4c0-.7.5-1.2 1.2-1.2s1.2.5 1.2 1.2v1.4c0 .7-.6 1.2-1.2 1.2z"/><path class="st0" d="M59.9 59.9V68c-.6-1.9-1.1-3.8-1.3-5.8h-2.4v28.9H35.3v1.4h20.8v25.2h3.8v2.4h-6.1V94.9H33v-6.1h20.8V59.9h6.1z"/><path class="st0" d="M59.9 117.7v2.4H40.3c-.7 0-1.2-.5-1.2-1.2s.5-1.2 1.2-1.2h19.6zM105.6 77.6c-2.8 0-5.1-2.3-5.1-5.1s2.3-5.1 5.1-5.1 5.1 2.3 5.1 5.1c0 2.9-2.3 5.1-5.1 5.1zm0-7.8c-1.5 0-2.7 1.2-2.7 2.7 0 1.5 1.2 2.7 2.7 2.7 1.5 0 2.7-1.2 2.7-2.7 0-1.5-1.2-2.7-2.7-2.7zM104.8 64.3c-2 0-3.6-1.6-3.6-3.6s1.6-3.6 3.6-3.6 3.6 1.6 3.6 3.6-1.6 3.6-3.6 3.6zm0-4.8c-.7 0-1.2.5-1.2 1.2s.5 1.2 1.2 1.2 1.2-.5 1.2-1.2-.5-1.2-1.2-1.2zM78.1 90.9V91.2c-.1-.2 0-.2 0-.3zM81.9 86.7c-1.5.6-2.8 1.8-3.4 3.2v0c.6-1.5 1.8-2.7 3.4-3.2z"/><path class="st1" d="M111.1 90.8c0 .8-.2 1.5-.5 2-.4.6-.9.9-1.4.9H79.9v-.5-.4-.1c0-.2 0-.3.1-.5v-.1-.1c0-.1 0-.2.1-.4 0-.1 0-.2.1-.3v-.2c0-.1 0-.1.1-.2l.3-.6c.1-.3.3-.6.5-.9l.3-.3c.1-.1.1-.2.2-.2l.2-.2c.1-.1.2-.1.2-.2.1-.1.2-.1.3-.2.1-.1.3-.1.4-.2h.1c.2 0 .3-.1.5-.1h25.9c1 .2 1.8 1.3 1.9 2.8z"/><path class="st0" d="M80.9 90.4c.2-.2.3-.5.5-.7-.2.3-.4.5-.5.7zm-.5 1c0 .1 0 .2-.1.3.1-.1.1-.2.1-.3zm.5-1c.2-.2.3-.5.5-.7-.2.3-.4.5-.5.7zm-.5 1c0 .1 0 .2-.1.3.1-.1.1-.2.1-.3zm.5-1c.2-.2.3-.5.5-.7-.2.3-.4.5-.5.7zm-.5 1c0 .1 0 .2-.1.3.1-.1.1-.2.1-.3zm-.1.7v0zm0 0v-.2-.1.3zm.1-.7c0 .1 0 .2-.1.3.1-.1.1-.2.1-.3zm.2-.5v0zm.3-.5c.2-.2.3-.5.5-.7-.2.3-.4.5-.5.7zm-.5 1c0 .1 0 .2-.1.3.1-.1.1-.2.1-.3zm.5-1c.2-.2.3-.5.5-.7-.2.3-.4.5-.5.7zm-.5 1c0 .1 0 .2-.1.3.1-.1.1-.2.1-.3zm.5-1c.2-.2.3-.5.5-.7-.2.3-.4.5-.5.7zm-.5 1c0 .1 0 .2-.1.3.1-.1.1-.2.1-.3zm.5-1c.2-.2.3-.5.5-.7-.2.3-.4.5-.5.7zm-.6 1.7v0zm.1-.7c0 .1 0 .2-.1.3.1-.1.1-.2.1-.3zM82.9 118.3c0 .7-.6 1.3-1.3 1.3h-4c-.7 0-1.3-.6-1.3-1.3s.6-1.3 1.3-1.3h4c.8-.1 1.3.5 1.3 1.3zM92.9 118.3c0 .7-.6 1.3-1.3 1.3h-4c-.7 0-1.3-.6-1.3-1.3s.6-1.3 1.3-1.3h4c.7-.1 1.3.5 1.3 1.3zM82.9 111.4c0 .7-.6 1.3-1.3 1.3h-4c-.7 0-1.3-.6-1.3-1.3s.6-1.3 1.3-1.3h4c.8 0 1.3.6 1.3 1.3zM92.9 111.4c0 .7-.6 1.3-1.3 1.3h-4c-.7 0-1.3-.6-1.3-1.3s.6-1.3 1.3-1.3h4c.7 0 1.3.6 1.3 1.3zM82.9 104.6c0 .7-.6 1.3-1.3 1.3h-4c-.7 0-1.3-.6-1.3-1.3s.6-1.3 1.3-1.3h4c.8 0 1.3.5 1.3 1.3zM92.9 104.6c0 .7-.6 1.3-1.3 1.3h-4c-.7 0-1.3-.6-1.3-1.3s.6-1.3 1.3-1.3h4c.7 0 1.3.5 1.3 1.3zM102.8 118.3c0 .7-.6 1.3-1.3 1.3h-4c-.7 0-1.3-.6-1.3-1.3s.6-1.3 1.3-1.3h4c.7-.1 1.3.5 1.3 1.3zM102.8 111.4c0 .7-.6 1.3-1.3 1.3h-4c-.7 0-1.3-.6-1.3-1.3s.6-1.3 1.3-1.3h4c.7 0 1.3.6 1.3 1.3zM102.8 104.6c0 .7-.6 1.3-1.3 1.3h-4c-.7 0-1.3-.6-1.3-1.3s.6-1.3 1.3-1.3h4c.7 0 1.3.5 1.3 1.3z"/><g><path class="st1" d="M71.4 88.3v5.2h-.8c-.5 0-.9-.2-1.3-.4-.7-.4-1.2-1-1.3-1.7 0-.1-.1-.3-.1-.4 0-.7.2-1.3.7-1.9.4-.4.8-.6 1.3-.8.2-.1.4-.1.5-.1h1z"/><path class="st0" d="M109 86.3h-1.5c-.5-3.5-2.4-6.5-5.3-8.5-1.9-1.3-4-2-6.2-2.2V62.3h.6c1.4 0 2.6-1.2 2.6-2.6v-3.2c0-1.4-1.2-2.6-2.6-2.6H17.2c-1.4 0-2.6 1.2-2.6 2.6v3.2c0 1.4 1.2 2.6 2.6 2.6h.6v62.8c0 1.6 1.3 2.9 2.9 2.9H93c.3 0 .6 0 .9-.1h8.1c2.4 0 4.4-1.8 4.8-4.1l3.9-28.9c.5-.2 1-.6 1.5-1.1.8-.9 1.2-2 1.1-3.2-.2-2.4-2-4.2-4.3-4.3zm-8.2-6.5c2.3 1.5 3.8 3.9 4.3 6.5H84c-.4 0-.7 0-1.1.1-.2 0-.4.1-.6.1-.2 0-.4.1-.5.2-1.5.6-2.8 1.8-3.4 3.2v.2c-.1.2-.2.4-.2.6V94.8c0 1.3-1 2.3-2.3 2.3s-2.3-1-2.3-2.3V86c.1-.2.1-.4.2-.6.3-.8.7-1.5 1.2-2 1.4-1.7 3.5-2.6 5.8-2.5.9.1 1.7.3 2.5.6h.1l.5.3h.1c.4.2.8.5 1.1.8.3.3.6.6.9 1 .2.3.6.5 1 .5.2 0 .5-.1.7-.2.5-.4.6-1.2.2-1.7-.2-.2-.3-.4-.5-.6 1.5-1.8 3.6-3 5.9-3.5.1 0 .2 0 .4-.1.8-.1 1.6-.1 2.4-.1 1.5.3 3.2.9 4.7 1.9zm-80.1 45.8c-.3 0-.5-.2-.5-.5V62.3h33.6v-2.4H17.2c-.1 0-.2-.1-.2-.2v-3.2c0-.1.1-.2.2-.2h79.4c.1 0 .2.1.2.2v3.2c0 .1-.1.2-.2.2H59.9c.5.1.9.5.9 1.1 0 .4.1.9.2 1.3h32.5v13.4c-.3 0-.5.1-.8.1-2.9.5-5.4 2-7.3 4.3-1.4-.9-3-1.5-4.6-1.6-3.2-.2-6.1 1.2-8 3.5-6.3-4.7-10.6-11.8-11.8-19.7h-1.1V68c2.1 6.4 6.2 12 11.6 16-.3.7-.6 1.5-.7 2.2h-.5c-1.2 0-2.3.6-3.1 1.5-.3.3-.5.7-.7 1h-6.6V68c-.6-1.9-1.1-3.8-1.3-5.8h-1.1v28.9H66c0 .5.1.9.3 1.4h-8.9v25.2h2.4V94.9h8.8l3.1 22.8H59.9v2.4h12.2l.5 3.6c.1.7.3 1.3.7 1.9H20.7zm50.2-36.9v4.1h-.6c-.3 0-.7-.1-.9-.3-.5-.3-.9-.8-1-1.4v-.3c0-.6.2-1.1.5-1.5.3-.3.6-.5 1-.6.1 0 .3-.1.4-.1h.6zm33.4 34.7c-.1.6-.4 1.1-.8 1.5s-1 .6-1.6.6H77.4c-1.2 0-2.2-.9-2.4-2.1l-.5-3.3-.3-2.4L71.4 97c.8 1.6 2.3 2.6 4.2 2.6 2.5 0 4.5-2 4.7-4.4h27.9l-3.9 28.2zm6-31.3c-.4.4-.9.6-1.4.7H80.3v-.4-.3-.3c0-.1 0-.2.1-.3 0-.1 0-.1.1-.2v-.1-.1c.1-.2.2-.3.3-.5.1-.2.3-.5.5-.7.1-.1.2-.2.3-.2l.2-.2c.1-.1.2-.1.2-.2.1-.1.2-.1.2-.1.1-.1.2-.1.3-.1.1 0 .3-.1.4-.1h.1c.2 0 .3-.1.5-.1h25.3c1.1.1 1.9.9 1.9 2 .2.3 0 .8-.4 1.2zM78.4 89.9c0 .1 0 .1 0 0 0 .1 0 .1 0 0z"/><path class="st0" d="M80.4 91.7c0 .1 0 .1 0 0v.3c-.1-.1-.1-.2 0-.3zM80.6 90.9s0 .1-.1.1c0 0 .1 0 .1-.1z"/></g><g><circle class="st0" cx="32" cy="79.7" r="2"/></g><g><circle class="st0" cx="24.1" cy="79.7" r="2"/></g><g><circle class="st0" cx="24.1" cy="71.7" r="2"/></g></svg>