<svg width="143px" height="107px" xmlns="http://www.w3.org/2000/svg" style="animation-delay: 0s; animation-direction: normal; animation-duration: 0s; animation-fill-mode: none; animation-iteration-count: 1; animation-name: none; animation-play-state: running; animation-timing-function: ease; background-attachment: scroll; background-blend-mode: normal; background-clip: border-box; background-color: rgba(0, 0, 0, 0); background-image: none; background-origin: padding-box; background-position: 0% 0%; background-repeat: repeat; background-size: auto; border-bottom-color: rgb(74, 85, 104); border-bottom-left-radius: 0px; border-bottom-right-radius: 0px; border-bottom-style: none; border-bottom-width: 0px; border-collapse: separate; border-image-outset: 0; border-image-repeat: stretch; border-image-slice: 100%; border-image-source: none; border-image-width: 1; border-left-color: rgb(74, 85, 104); border-left-style: none; border-left-width: 0px; border-right-color: rgb(74, 85, 104); border-right-style: none; border-right-width: 0px; border-top-color: rgb(74, 85, 104); border-top-left-radius: 0px; border-top-right-radius: 0px; border-top-style: none; border-top-width: 0px; bottom: auto; box-shadow: none; box-sizing: border-box; break-after: auto; break-before: auto; break-inside: auto; caption-side: top; clear: none; clip: auto; color: rgb(74, 85, 104); content: normal; cursor: pointer; direction: ltr; display: inline; empty-cells: show; float: none; font-family: &quot;Nunito Sans&quot;, sans-serif; font-kerning: auto; font-optical-sizing: auto; font-size: 14px; font-stretch: 100%; font-style: normal; font-variant: normal; font-variant-ligatures: normal; font-variant-caps: normal; font-variant-numeric: normal; font-variant-east-asian: normal; font-weight: 400; height: 20px; image-orientation: from-image; image-rendering: auto; isolation: auto; justify-items: normal; justify-self: auto; left: auto; letter-spacing: normal; line-height: 23.8px; list-style-image: none; list-style-position: outside; list-style-type: none; margin-bottom: 0px; margin-left: 0px; margin-right: 0px; margin-top: 0px; max-height: none; max-width: 100%; min-height: 0px; min-width: 0px; mix-blend-mode: normal; object-fit: fill; object-position: 50% 50%; offset-distance: 0px; offset-path: none; offset-rotate: auto 0deg; opacity: 1; orphans: 2; outline-color: rgb(74, 85, 104); outline-offset: 0px; outline-style: none; outline-width: 0px; overflow-anchor: auto; overflow-wrap: normal; overflow-x: hidden; overflow-y: hidden; padding-bottom: 0px; padding-left: 0px; padding-right: 0px; padding-top: 0px; pointer-events: none; position: static; resize: none; right: auto; scroll-behavior: auto; speak: normal; table-layout: auto; tab-size: 8; text-align: left; text-align-last: auto; text-decoration: none solid rgb(74, 85, 104); text-decoration-line: none; text-decoration-style: solid; text-decoration-color: rgb(74, 85, 104); text-decoration-skip-ink: auto; text-underline-position: auto; text-indent: 0px; text-rendering: auto; text-shadow: none; text-size-adjust: 100%; text-overflow: clip; text-transform: none; top: auto; touch-action: auto; transition-delay: 0s; transition-duration: 0s; transition-property: all; transition-timing-function: ease; unicode-bidi: normal; vertical-align: middle; visibility: visible; white-space: nowrap; widows: 2; width: 20px; will-change: auto; word-break: normal; word-spacing: 0px; z-index: auto; zoom: 1; -webkit-appearance: none; backface-visibility: visible; -webkit-border-horizontal-spacing: 0px; -webkit-border-image: none; -webkit-border-vertical-spacing: 0px; -webkit-box-align: stretch; -webkit-box-decoration-break: slice; -webkit-box-direction: normal; -webkit-box-flex: 0; -webkit-box-ordinal-group: 1; -webkit-box-orient: horizontal; -webkit-box-pack: start; -webkit-box-reflect: none; column-count: auto; column-gap: normal; column-rule-color: rgb(74, 85, 104); column-rule-style: none; column-rule-width: 0px; column-span: none; column-width: auto; backdrop-filter: none; align-content: normal; align-items: normal; align-self: auto; flex-basis: auto; flex-grow: 0; flex-shrink: 1; flex-direction: row; flex-wrap: nowrap; justify-content: normal; -webkit-font-smoothing: auto; grid-auto-columns: auto; grid-auto-flow: row; grid-auto-rows: auto; grid-column-end: auto; grid-column-start: auto; grid-template-areas: none; grid-template-columns: none; grid-template-rows: none; grid-row-end: auto; grid-row-start: auto; row-gap: normal; -webkit-highlight: none; hyphens: manual; -webkit-hyphenate-character: auto; -webkit-line-break: auto; -webkit-line-clamp: none; -webkit-locale: &quot;en&quot;; -webkit-mask-box-image: none; -webkit-mask-box-image-outset: 0; -webkit-mask-box-image-repeat: stretch; -webkit-mask-box-image-slice: 0 fill; -webkit-mask-box-image-source: none; -webkit-mask-box-image-width: auto; -webkit-mask-clip: border-box; -webkit-mask-composite: source-over; -webkit-mask-image: none; -webkit-mask-origin: border-box; -webkit-mask-position: 0% 0%; -webkit-mask-repeat: repeat; -webkit-mask-size: auto; order: 0; perspective: none; perspective-origin: 10px 10px; -webkit-print-color-adjust: economy; -webkit-rtl-ordering: logical; shape-outside: none; shape-image-threshold: 0; shape-margin: 0px; -webkit-tap-highlight-color: rgba(31, 45, 61, 0); -webkit-text-combine: none; -webkit-text-decorations-in-effect: none; -webkit-text-emphasis-color: rgb(74, 85, 104); -webkit-text-emphasis-position: over right; -webkit-text-emphasis-style: none; -webkit-text-fill-color: rgb(74, 85, 104); -webkit-text-orientation: vertical-right; -webkit-text-security: none; -webkit-text-stroke-color: rgb(74, 85, 104); -webkit-text-stroke-width: 0px; transform: none; transform-origin: 10px 10px; transform-style: flat; -webkit-user-drag: auto; -webkit-user-modify: read-only; user-select: auto; -webkit-writing-mode: horizontal-tb; -webkit-app-region: none; buffered-rendering: auto; clip-path: none; clip-rule: nonzero; mask: none; filter: none; flood-color: rgb(0, 0, 0); flood-opacity: 1; lighting-color: rgb(255, 255, 255); stop-color: rgb(0, 0, 0); stop-opacity: 1; color-interpolation: srgb; color-interpolation-filters: linearrgb; color-rendering: auto; fill: rgb(0, 0, 0); fill-opacity: 1; fill-rule: nonzero; marker-end: none; marker-mid: none; marker-start: none; mask-type: luminance; shape-rendering: auto; stroke: none; stroke-dasharray: none; stroke-dashoffset: 0px; stroke-linecap: butt; stroke-linejoin: miter; stroke-miterlimit: 4; stroke-opacity: 1; stroke-width: 1px; alignment-baseline: auto; baseline-shift: 0px; dominant-baseline: auto; text-anchor: start; writing-mode: horizontal-tb; vector-effect: none; paint-order: normal; d: none; cx: 0px; cy: 0px; x: 0px; y: 0px; r: 0px; rx: auto; ry: auto; caret-color: rgb(74, 85, 104); line-break: auto;" version="1.1" xmlns:xlink="http://www.w3.org/1999/xlink"><style  type="text/css">*, ::after, ::before { box-sizing: border-box; }
svg { overflow: hidden; vertical-align: middle; }
.img-fluid { max-width: 100%; height: auto; }
svg { vertical-align: middle; overflow: hidden; }</style><svg xmlns:xlink="http://www.w3.org/1999/xlink" viewBox="0 0 143 107" version="1.1" class="injected-svg svg-inject img-fluid" style="height:20px">
    <!-- Generator: Sketch 51.2 (57519) - http://www.bohemiancoding.com/sketch -->
    <title>Code</title>
    <desc>Created with Sketch.</desc>
    <defs/>
    <g id="Page-1" stroke="none" stroke-width="1" fill="none" fill-rule="evenodd">
        <g id="Code" fill-rule="nonzero">
            <path d="M137.6,96.6 L15.3,96.6 C12.5,96.6 10.2,94.3 10.2,91.5 L10.2,5.4 C10.2,2.6 12.5,0.3 15.3,0.3 L137.6,0.3 C140.4,0.3 142.7,2.6 142.7,5.4 L142.7,91.5 C142.7,94.4 140.4,96.6 137.6,96.6 Z" id="Shape" fill="#3973F4"/>
            <path d="M0.2,17 L0.2,27.4 L0.2,99.3 C0.2,103.1 3.2,106.1 7,106.1 L124.3,106.1 C128.1,106.1 131.1,103 131.1,99.3 L131.1,27.4 L131.1,17.4 C131.1,13.4 127.9,10.2 123.9,10.2 L7,10.2 L0.2,17 Z" id="Shape" fill="#6097FD"/>
            <path d="M87.2,27.4 L0.2,27.4 L0.2,17 C0.2,13.2 3.2,10.2 7,10.2 L124.3,10.2 C128.1,10.2 131.1,13.2 131.1,17 L131.1,27.4 L108.2,27.4 L87.2,27.4 Z" id="Shape" fill="#4988FD"/>
            <circle id="Oval" fill="#FFFFFF" cx="10.8" cy="18.9" r="2.9"/>
            <circle id="Oval" fill="#DFECFD" cx="19.5" cy="18.9" r="2.9"/>
            <circle id="Oval" fill="#C4D9F2" cx="28.2" cy="18.9" r="2.9"/>
            <path d="M47.6,84.3 C46.5,84.3 45.5,83.9 44.8,83 L32.8,68.8 C31.6,67.4 31.6,65.4 32.8,64 L44.8,49.8 C46.1,48.2 48.5,48 50,49.4 C51.6,50.7 51.8,53.1 50.4,54.6 L40.4,66.4 L50.4,78.2 C51.7,79.8 51.5,82.1 50,83.4 C49.3,84.1 48.4,84.3 47.6,84.3 Z" id="Shape" fill="#3973F4"/>
            <path d="M82.1,84.3 C81.3,84.3 80.4,84 79.7,83.4 C78.1,82.1 77.9,79.7 79.3,78.2 L89.3,66.4 L79.3,54.6 C78,53 78.2,50.7 79.7,49.4 C81.3,48.1 83.6,48.3 84.9,49.8 L96.9,64 C98.1,65.4 98.1,67.4 96.9,68.8 L84.9,83 C84.2,83.9 83.2,84.3 82.1,84.3 Z" id="Shape" fill="#3973F4"/>
            <path d="M59.6,85.4 C59.2,85.4 58.8,85.3 58.4,85.2 C56.5,84.5 55.4,82.4 56.1,80.5 L66.6,50.7 C67.3,48.8 69.4,47.7 71.3,48.4 C73.2,49.1 74.3,51.2 73.6,53.1 L63.1,82.9 C62.6,84.4 61.1,85.4 59.6,85.4 Z" id="Shape" fill="#3973F4"/>
        </g>
    </g>
</svg></svg>