<svg class="icon" width="147px" height="148px" xmlns="http://www.w3.org/2000/svg" style="animation-delay: 0s; animation-direction: normal; animation-duration: 0s; animation-fill-mode: none; animation-iteration-count: 1; animation-name: none; animation-play-state: running; animation-timing-function: ease; background-attachment: scroll; background-blend-mode: normal; background-clip: border-box; background-color: rgba(0, 0, 0, 0); background-image: none; background-origin: padding-box; background-position: 0% 0%; background-repeat: repeat; background-size: auto; border-bottom-color: rgb(113, 128, 150); border-bottom-left-radius: 0px; border-bottom-right-radius: 0px; border-bottom-style: none; border-bottom-width: 0px; border-collapse: separate; border-image-outset: 0; border-image-repeat: stretch; border-image-slice: 100%; border-image-source: none; border-image-width: 1; border-left-color: rgb(113, 128, 150); border-left-style: none; border-left-width: 0px; border-right-color: rgb(113, 128, 150); border-right-style: none; border-right-width: 0px; border-top-color: rgb(113, 128, 150); border-top-left-radius: 0px; border-top-right-radius: 0px; border-top-style: none; border-top-width: 0px; bottom: auto; box-shadow: none; box-sizing: border-box; break-after: auto; break-before: auto; break-inside: auto; caption-side: top; clear: none; clip: auto; color: rgb(113, 128, 150); content: normal; cursor: auto; direction: ltr; display: inline; empty-cells: show; float: none; font-family: &quot;Nunito Sans&quot;, sans-serif; font-kerning: auto; font-optical-sizing: auto; font-size: 27.4286px; font-stretch: 100%; font-style: normal; font-variant: normal; font-variant-ligatures: normal; font-variant-caps: normal; font-variant-numeric: normal; font-variant-east-asian: normal; font-weight: 400; height: 48px; image-orientation: from-image; image-rendering: auto; isolation: auto; justify-items: normal; justify-self: auto; left: auto; letter-spacing: normal; line-height: 46.6287px; list-style-image: none; list-style-position: outside; list-style-type: disc; margin-bottom: 0px; margin-left: 0px; margin-right: 0px; margin-top: 0px; max-height: none; max-width: 100%; min-height: 0px; min-width: 0px; mix-blend-mode: normal; object-fit: fill; object-position: 50% 50%; offset-distance: 0px; offset-path: none; offset-rotate: auto 0deg; opacity: 1; orphans: 2; outline-color: rgb(113, 128, 150); outline-offset: 0px; outline-style: none; outline-width: 0px; overflow-anchor: auto; overflow-wrap: normal; overflow-x: hidden; overflow-y: hidden; padding-bottom: 0px; padding-left: 0px; padding-right: 0px; padding-top: 0px; pointer-events: auto; position: static; resize: none; right: auto; scroll-behavior: auto; speak: normal; table-layout: auto; tab-size: 8; text-align: left; text-align-last: auto; text-decoration: none solid rgb(113, 128, 150); text-decoration-line: none; text-decoration-style: solid; text-decoration-color: rgb(113, 128, 150); text-decoration-skip-ink: auto; text-underline-position: auto; text-indent: 0px; text-rendering: auto; text-shadow: none; text-size-adjust: 100%; text-overflow: clip; text-transform: none; top: auto; touch-action: auto; transition-delay: 0s; transition-duration: 0s; transition-property: all; transition-timing-function: ease; unicode-bidi: normal; vertical-align: middle; visibility: visible; white-space: normal; widows: 2; width: 48px; will-change: auto; word-break: normal; word-spacing: 0px; z-index: auto; zoom: 1; -webkit-appearance: none; backface-visibility: visible; -webkit-border-horizontal-spacing: 0px; -webkit-border-image: none; -webkit-border-vertical-spacing: 0px; -webkit-box-align: stretch; -webkit-box-decoration-break: slice; -webkit-box-direction: normal; -webkit-box-flex: 0; -webkit-box-ordinal-group: 1; -webkit-box-orient: horizontal; -webkit-box-pack: start; -webkit-box-reflect: none; column-count: auto; column-gap: normal; column-rule-color: rgb(113, 128, 150); column-rule-style: none; column-rule-width: 0px; column-span: none; column-width: auto; backdrop-filter: none; align-content: normal; align-items: normal; align-self: auto; flex-basis: auto; flex-grow: 0; flex-shrink: 1; flex-direction: row; flex-wrap: nowrap; justify-content: normal; -webkit-font-smoothing: auto; grid-auto-columns: auto; grid-auto-flow: row; grid-auto-rows: auto; grid-column-end: auto; grid-column-start: auto; grid-template-areas: none; grid-template-columns: none; grid-template-rows: none; grid-row-end: auto; grid-row-start: auto; row-gap: normal; -webkit-highlight: none; hyphens: manual; -webkit-hyphenate-character: auto; -webkit-line-break: auto; -webkit-line-clamp: none; -webkit-locale: &quot;en&quot;; -webkit-mask-box-image: none; -webkit-mask-box-image-outset: 0; -webkit-mask-box-image-repeat: stretch; -webkit-mask-box-image-slice: 0 fill; -webkit-mask-box-image-source: none; -webkit-mask-box-image-width: auto; -webkit-mask-clip: border-box; -webkit-mask-composite: source-over; -webkit-mask-image: none; -webkit-mask-origin: border-box; -webkit-mask-position: 0% 0%; -webkit-mask-repeat: repeat; -webkit-mask-size: auto; order: 0; perspective: none; perspective-origin: 24px 24px; -webkit-print-color-adjust: economy; -webkit-rtl-ordering: logical; shape-outside: none; shape-image-threshold: 0; shape-margin: 0px; -webkit-tap-highlight-color: rgba(31, 45, 61, 0); -webkit-text-combine: none; -webkit-text-decorations-in-effect: none; -webkit-text-emphasis-color: rgb(113, 128, 150); -webkit-text-emphasis-position: over right; -webkit-text-emphasis-style: none; -webkit-text-fill-color: rgb(113, 128, 150); -webkit-text-orientation: vertical-right; -webkit-text-security: none; -webkit-text-stroke-color: rgb(113, 128, 150); -webkit-text-stroke-width: 0px; transform: none; transform-origin: 24px 24px; transform-style: flat; -webkit-user-drag: auto; -webkit-user-modify: read-only; user-select: auto; -webkit-writing-mode: horizontal-tb; -webkit-app-region: none; buffered-rendering: auto; clip-path: none; clip-rule: nonzero; mask: none; filter: none; flood-color: rgb(0, 0, 0); flood-opacity: 1; lighting-color: rgb(255, 255, 255); stop-color: rgb(0, 0, 0); stop-opacity: 1; color-interpolation: srgb; color-interpolation-filters: linearrgb; color-rendering: auto; fill: rgb(0, 0, 0); fill-opacity: 1; fill-rule: nonzero; marker-end: none; marker-mid: none; marker-start: none; mask-type: luminance; shape-rendering: auto; stroke: none; stroke-dasharray: none; stroke-dashoffset: 0px; stroke-linecap: butt; stroke-linejoin: miter; stroke-miterlimit: 4; stroke-opacity: 1; stroke-width: 1px; alignment-baseline: auto; baseline-shift: 0px; dominant-baseline: auto; text-anchor: start; writing-mode: horizontal-tb; vector-effect: none; paint-order: normal; d: none; cx: 0px; cy: 0px; x: 0px; y: 0px; r: 0px; rx: auto; ry: auto; caret-color: rgb(113, 128, 150); line-break: auto;" version="1.1" xmlns:xlink="http://www.w3.org/1999/xlink"><style  type="text/css">*, ::after, ::before { box-sizing: border-box; }
svg { overflow: hidden; vertical-align: middle; }
.img-fluid { max-width: 100%; height: auto; }
svg { vertical-align: middle; overflow: hidden; }
.icon i, .icon svg { font-size: 1.71429rem; }
.icon:not(.icon-shape) svg { width: 3rem; height: 3rem; }</style><svg xmlns:xlink="http://www.w3.org/1999/xlink" viewBox="0 0 147 148" version="1.1" class="injected-svg svg-inject img-fluid">
    <!-- Generator: Sketch 51.2 (57519) - http://www.bohemiancoding.com/sketch -->
    <title>Ballance</title>
    <desc>Created with Sketch.</desc>
    <defs/>
    <g id="Page-1" stroke="none" stroke-width="1" fill="none" fill-rule="evenodd">
        <g id="Ballance" fill-rule="nonzero">
            <path d="M137.3,147.2 L10,147.2 C4.6,147.2 0.3,142.8 0.3,137.5 L0.3,10.2 C0.3,4.8 4.7,0.5 10,0.5 L137.3,0.5 C142.7,0.5 147,4.9 147,10.2 L147,137.5 C147,142.8 142.7,147.2 137.3,147.2 Z" id="Shape" fill="#6097FD"/>
            <path d="M123.1,30.6 L24.3,30.6 C22.9,30.6 21.8,29.5 21.8,28.1 C21.8,26.7 22.9,25.6 24.3,25.6 L123.1,25.6 C124.5,25.6 125.6,26.7 125.6,28.1 C125.6,29.5 124.5,30.6 123.1,30.6 Z" id="Shape" fill="#3973F4"/>
            <path d="M123.1,61.9 L24.3,61.9 C22.9,61.9 21.8,60.8 21.8,59.4 C21.8,58 22.9,56.9 24.3,56.9 L123.1,56.9 C124.5,56.9 125.6,58 125.6,59.4 C125.7,60.8 124.5,61.9 123.1,61.9 Z" id="Shape" fill="#3973F4"/>
            <path d="M123.1,93.3 L24.3,93.3 C22.9,93.3 21.8,92.2 21.8,90.8 C21.8,89.4 22.9,88.3 24.3,88.3 L123.1,88.3 C124.5,88.3 125.6,89.4 125.6,90.8 C125.7,92.2 124.5,93.3 123.1,93.3 Z" id="Shape" fill="#3973F4"/>
            <path d="M123.1,124.7 L24.3,124.7 C22.9,124.7 21.8,123.6 21.8,122.2 C21.8,120.8 22.9,119.7 24.3,119.7 L123.1,119.7 C124.5,119.7 125.6,120.8 125.6,122.2 C125.6,123.6 124.5,124.7 123.1,124.7 Z" id="Shape" fill="#3973F4"/>
            <g id="Group" transform="translate(28.000000, 20.000000)" fill="#C5DCFA">
                <path d="M73.7,0.7 L70.4,0.7 C67.9,0.7 65.9,2.7 65.9,5.2 L65.9,10.2 C65.9,12.7 67.9,14.7 70.4,14.7 L73.7,14.7 C76.2,14.7 78.2,12.7 78.2,10.2 L78.2,5.2 C78.2,2.7 76.2,0.7 73.7,0.7 Z" id="Shape"/>
                <path d="M35.2,14.7 C37.7,14.7 39.7,12.7 39.7,10.2 L39.7,5.2 C39.7,2.7 37.7,0.7 35.2,0.7 L31.9,0.7 C29.4,0.7 27.4,2.7 27.4,5.2 L27.4,10.2 C27.4,12.7 29.4,14.7 31.9,14.7 L35.2,14.7 Z" id="Shape"/>
                <path d="M54.9,0.7 L51.6,0.7 C49.1,0.7 47.1,2.7 47.1,5.2 L47.1,10.2 C47.1,12.7 49.1,14.7 51.6,14.7 L54.9,14.7 C57.4,14.7 59.4,12.7 59.4,10.2 L59.4,5.2 C59.4,2.7 57.4,0.7 54.9,0.7 Z" id="Shape"/>
                <path d="M54.9,32.4 L51.6,32.4 C49.1,32.4 47.1,34.4 47.1,36.9 L47.1,41.9 C47.1,44.4 49.1,46.4 51.6,46.4 L54.9,46.4 C57.4,46.4 59.4,44.4 59.4,41.9 L59.4,36.9 C59.4,34.4 57.3,32.4 54.9,32.4 Z" id="Shape"/>
                <path d="M15.1,32.4 L11.8,32.4 C9.3,32.4 7.3,34.4 7.3,36.9 L7.3,41.9 C7.3,44.4 9.3,46.4 11.8,46.4 L15.1,46.4 C17.6,46.4 19.6,44.4 19.6,41.9 L19.6,36.9 C19.6,34.4 17.6,32.4 15.1,32.4 Z" id="Shape"/>
                <path d="M8.6,63.8 L5.3,63.8 C2.8,63.8 0.8,65.8 0.8,68.3 L0.8,73.3 C0.8,75.8 2.8,77.8 5.3,77.8 L8.6,77.8 C11.1,77.8 13.1,75.8 13.1,73.3 L13.1,68.3 C13.1,65.8 11.1,63.8 8.6,63.8 Z" id="Shape"/>
                <path d="M47.6,63.8 L44.3,63.8 C41.8,63.8 39.8,65.8 39.8,68.3 L39.8,73.3 C39.8,75.8 41.8,77.8 44.3,77.8 L47.6,77.8 C50.1,77.8 52.1,75.8 52.1,73.3 L52.1,68.3 C52.2,65.8 50.1,63.8 47.6,63.8 Z" id="Shape"/>
                <path d="M91.3,63.8 L88,63.8 C85.5,63.8 83.5,65.8 83.5,68.3 L83.5,73.3 C83.5,75.8 85.5,77.8 88,77.8 L91.3,77.8 C93.8,77.8 95.8,75.8 95.8,73.3 L95.8,68.3 C95.8,65.8 93.8,63.8 91.3,63.8 Z" id="Shape"/>
                <path d="M37.5,95.2 L34.2,95.2 C31.7,95.2 29.7,97.2 29.7,99.7 L29.7,104.7 C29.7,107.2 31.7,109.2 34.2,109.2 L37.5,109.2 C40,109.2 42,107.2 42,104.7 L42,99.7 C42.1,97.2 40,95.2 37.5,95.2 Z" id="Shape"/>
            </g>
        </g>
    </g>
</svg></svg>